<?xml version="1.0" encoding="UTF-8"?> <svg xmlns="http://www.w3.org/2000/svg" width="2576" height="419" viewBox="0 0 2576 419" fill="none"><path fill-rule="evenodd" clip-rule="evenodd" d="M88.0171 0.199952H244.047L318.062 62.3851L318.262 0.0999761H1045.7V147.065L1043 147.765C1041.4 148.065 1033.2 150.264 1009.2 156.563L1008.7 263.537L1015.4 265.337C1019.2 266.336 1027.5 268.536 1045.8 273.535L1045.7 419H317.562V356.015L304.259 367.212C297.058 373.411 279.954 387.608 241.547 419L90.0175 418.9L0 343.518V306.227C0 285.832 0.100019 225.046 0.400078 73.5824L88.0171 0.199952ZM585.614 212.049L650.126 212.549L650.626 272.035C654.127 271.235 661.628 269.336 669.43 267.236L683.733 263.537L683.133 156.563C659.128 150.164 650.926 148.065 649.426 147.665C646.926 147.065 646.726 146.565 646.726 143.066C646.826 140.866 646.425 138.867 645.925 138.667C645.325 138.367 631.623 154.763 615.319 175.058L585.614 212.049ZM139.727 211.05L140.027 258.538H187.836C193.838 236.843 195.938 228.845 196.538 226.846L197.538 223.047H322.563C322.563 266.436 322.863 279.233 323.263 279.433C323.663 279.733 336.665 264.137 352.068 244.742C367.471 225.446 380.174 209.05 380.274 208.35C380.474 207.351 374.473 207.051 349.568 207.051H318.562V197.053H197.538C195.238 188.955 193.037 180.957 191.137 174.058L187.836 161.561C145.728 161.062 140.327 161.262 139.927 162.261C139.727 162.961 139.627 184.956 139.727 211.05V211.05ZM1135.82 0.0999761L1295.25 0.199952L1378.77 70.0833L1378.67 348.517L1362.96 361.514C1354.26 368.612 1334.96 384.508 1292.75 419H1137.22L1051.8 348.517L1051.5 70.3832L1135.82 0.0999761ZM1190.93 211.05L1191.23 258.538H1239.24L1239.74 161.062C1197.43 161.062 1191.53 161.262 1191.13 162.261C1190.93 162.961 1190.83 184.856 1190.93 211.05ZM1383.77 0.0999761L1478.99 0C1555.8 0 1574.51 0.199952 1575.41 1.29969C1576.01 1.99952 1586.51 20.795 1598.71 43.0897C1610.91 65.2844 1621.21 83.88 1621.61 84.1799C1622.01 84.5798 1632.92 65.7843 1669.32 0.0999761H1849.86V146.565L1838.66 149.664C1832.46 151.464 1824.25 153.663 1813.85 156.563L1813.75 263.537L1849.86 273.535V419H1631.82V323.023L1602.31 323.523L1601.81 419H1383.77L1383.67 273.535L1420.78 263.537V156.563L1405.47 152.564C1397.07 150.464 1388.77 148.265 1383.77 147.065V0.0999761ZM1855.86 0.0999761H2196.93V197.053H2114.91V223.047H2196.93V419H1855.86L1855.76 273.535L1892.87 263.537L1892.37 156.563L1876.86 152.464C1868.36 150.164 1860.06 148.065 1855.86 147.065V0.0999761ZM2201.93 0.0999761L2482.48 0L2561 66.0842V224.546L2534.09 247.541L2535.99 250.54C2537.09 252.14 2538.99 255.139 2542.49 260.938L2576 267.536V419H2452.48L2416.47 357.615L2415.97 419H2201.93L2201.83 273.535L2213.63 270.235C2220.13 268.536 2228.43 266.236 2238.93 263.537L2238.43 156.563L2222.93 152.464C2214.43 150.164 2206.13 148.065 2201.93 147.065V0.0999761Z" fill="black"></path><path fill-rule="evenodd" clip-rule="evenodd" d="M95.0184 19.1954H237.046L303.059 74.5822L303.559 140.067H212.541L211.641 137.767C211.141 136.567 208.841 128.469 202.039 104.075H134.526L120.523 115.073L120.423 266.536L135.026 278.134H202.039L205.34 266.336C207.24 259.838 209.441 251.84 212.141 242.542L303.559 242.042V305.027L285.255 320.324C275.253 328.722 259.75 341.518 234.546 362.014H97.5189L19.7038 297.529L19.5038 82.0804L95.0184 19.1954ZM337.565 19.0955H629.622V88.5789L557.008 179.057C517 228.845 482.694 271.435 477.093 278.134L549.107 278.034L552.907 259.838C555.008 249.74 557.208 239.443 558.608 232.045H631.623V362.014H337.565V293.03L412.98 198.853C454.488 146.965 488.095 104.275 487.795 103.875C487.395 103.475 471.992 103.175 420.082 103.575L410.08 150.064H337.565V19.0955ZM665.629 19.0955H826.66V94.5774L805.156 103.775L804.656 159.062H887.672L887.172 103.975L865.668 94.5774V19.0955H1026.4L1026.2 94.3775L1011.7 98.1766C1003.69 100.276 995.493 102.476 989.692 104.075L990.192 278.434L1004.19 282.133C1011.9 284.132 1020.1 286.332 1026.7 288.031V362.014H865.668L866.168 287.731L887.172 278.334V218.548L804.656 218.048L805.156 278.434L826.16 287.731L826.66 362.014H665.629V288.031L669.43 287.031C671.43 286.432 679.632 284.232 702.136 278.334L702.636 104.075L698.936 103.075C696.835 102.476 688.634 100.276 666.129 94.3775L665.629 19.0955ZM1142.22 19.2954L1288.25 19.1954L1359.26 78.6812L1359.66 301.528L1344.46 314.025C1336.16 320.923 1319.46 334.52 1285.75 362.014H1144.22L1071.21 301.528L1070.71 79.0811L1142.22 19.2954ZM1191.03 211.15L1191.23 258.638H1239.24L1239.74 161.162C1197.43 161.162 1191.63 161.461 1191.23 162.361C1190.93 163.061 1190.83 185.056 1191.03 211.15V211.15ZM1402.77 19.1954L1564 19.6953L1592.71 71.8829C1608.41 100.676 1621.51 124.17 1621.81 124.07C1622.11 124.07 1635.42 100.576 1680.43 19.6953L1830.36 19.1954V94.4775L1817.85 97.8767C1810.95 99.6762 1803.05 101.876 1794.85 104.175L1795.35 278.434L1809.35 282.233C1817.05 284.332 1825.05 286.532 1830.86 288.131V362.114H1650.82V288.131L1653.12 287.631C1654.32 287.331 1664.62 285.232 1676.03 282.832C1687.33 280.533 1696.93 278.434 1697.23 278.134C1697.53 277.834 1697.73 251.54 1697.33 161.761L1636.32 266.037H1597.31L1567.7 215.349C1551.3 187.455 1537.5 164.561 1536.9 164.361C1536.1 164.261 1535.8 180.857 1535.8 221.147C1535.8 274.534 1535.9 278.134 1537.6 278.534C1538.5 278.833 1548.3 280.833 1559.3 283.132C1570.3 285.432 1580.11 287.431 1581.11 287.731C1582.71 288.131 1582.81 290.731 1582.81 362.114H1402.77V288.131L1406.57 287.131C1408.57 286.632 1416.37 284.632 1423.78 282.633C1431.18 280.633 1438.08 278.833 1439.08 278.634C1440.68 278.134 1440.78 273.135 1440.78 104.175L1438.08 103.475C1436.58 103.175 1428.08 100.976 1403.27 94.4775L1402.77 19.1954ZM1874.86 19.1954H2177.92V140.167L2105.51 139.667L2103.81 133.668C2102.91 130.369 2100.61 122.371 2095.41 104.075L2012.89 104.175V159.162L2095.41 159.662L2095.91 218.148L2013.39 218.648L2012.89 278.134H2095.91L2096.61 275.434C2097.01 273.835 2099.11 265.937 2105.51 242.642L2177.92 242.142V362.114H1874.86V288.131L1879.16 287.031C1881.47 286.432 1889.67 284.232 1911.37 278.534V103.875L1875.36 94.4775L1874.86 19.1954ZM2220.93 19.1954H2475.58L2541.59 74.7822L2542.09 177.658L2518.09 198.153C2504.79 209.45 2494.18 219.148 2494.38 219.648C2494.58 220.247 2502.79 233.544 2512.59 249.141C2522.39 264.837 2530.49 277.734 2530.49 277.934C2530.49 278.034 2536.39 279.233 2543.59 280.633C2550.7 282.033 2556.7 283.132 2556.8 283.132C2556.9 283.132 2557.1 300.928 2557.1 362.114L2463.58 362.214L2385.56 229.245L2360.06 229.145L2360.56 278.534L2374.56 282.233C2382.26 284.232 2390.46 286.432 2397.07 288.131V362.114H2221.03V288.131L2224.73 287.131C2226.83 286.532 2235.03 284.332 2257.54 278.434L2258.04 104.175L2254.24 103.175C2252.14 102.576 2243.94 100.376 2221.53 94.4775L2220.93 19.1954Z" fill="#F7C807"></path><path fill-rule="evenodd" clip-rule="evenodd" d="M1185.23 104.075L1245.24 103.975L1258.84 114.573L1258.74 267.036L1245.24 277.934H1185.23L1171.73 267.036L1171.33 114.473L1185.23 104.075ZM1190.93 211.05L1191.23 258.538H1239.24L1239.74 161.062C1197.43 161.062 1191.53 161.362 1191.13 162.261C1190.93 162.961 1190.83 184.956 1190.93 211.05ZM2359.96 104.075H2428.97L2440.87 113.573V150.564L2428.97 160.062H2359.96V104.075Z" fill="black"></path></svg> 