<?xml version="1.0" encoding="UTF-8"?> <svg xmlns="http://www.w3.org/2000/svg" width="1341" height="1341" viewBox="0 0 1341 1341" fill="none"><g clip-path="url(#clip0_65_116)"><rect width="1341" height="1341" rx="670.5" fill="#010910"></rect><path fill-rule="evenodd" clip-rule="evenodd" d="M667.299 673.701L709.914 -124.148L721.402 -339.251H613.197L624.685 -124.148L667.299 673.701L1426.93 426.039L1680.25 343.451V459.451L1448.99 508.366L667.299 673.701L1336.95 237.87L1680.25 14.4398V158.853L1379.57 311.679L667.299 673.701L73.0009 139.668L-345.651 -236.529V-339.251H-242.932L133.266 79.4024L667.299 673.701L-92.335 921.363L-345.651 1003.95V887.951L-114.393 839.037L667.299 673.701L1379.57 1035.72L1680.25 1188.55V1332.96L1336.95 1109.53L667.299 673.701L1201.33 79.4024L1577.53 -339.251H1680.25V-236.53L1261.6 139.668L667.299 673.701L-2.35169 1109.53L-345.651 1332.96V1188.55L-44.9682 1035.72L667.299 673.701L914.962 1433.34L997.549 1686.65H881.549L832.635 1455.39L667.299 673.701L1029.32 -38.5663L1182.15 -339.251H1326.56L1103.13 4.04976L667.299 673.701L133.266 1268L-242.93 1686.65H-345.651V1583.93L73.0009 1207.73L667.299 673.701L231.468 4.04976L8.03754 -339.251H152.451L305.278 -38.5663L667.299 673.701L832.635 -107.992L881.549 -339.251H997.549L914.962 -85.9335L667.299 673.701L305.278 1385.97L152.452 1686.65H8.03875L231.468 1343.35L667.299 673.701L1261.6 1207.73L1680.25 1583.93V1686.65H1577.53L1201.33 1268L667.299 673.701L-130.549 631.086L-345.651 619.598V727.804L-130.549 716.316L667.299 673.701L501.964 1455.39L453.05 1686.65H337.05L419.637 1433.34L667.299 673.701L709.914 1471.55L721.402 1686.65H613.197L624.685 1471.55L667.299 673.701L-92.335 426.039L-345.651 343.452V459.451L-114.393 508.366L667.299 673.701L1465.15 716.316L1680.25 727.804V619.598L1465.15 631.086L667.299 673.701L419.637 -85.9335L337.05 -339.251H453.05L501.964 -107.992L667.299 673.701L-2.35169 237.87L-345.651 14.4398V158.853L-44.9682 311.679L667.299 673.701L1426.93 921.363L1680.25 1003.95V887.951L1448.99 839.037L667.299 673.701L1103.13 1343.35L1326.56 1686.65H1182.15L1029.32 1385.97L667.299 673.701Z" fill="url(#paint0_radial_65_116)"></path></g><defs><radialGradient id="paint0_radial_65_116" cx="0" cy="0" r="1" gradientUnits="userSpaceOnUse" gradientTransform="translate(667.3 673.7) rotate(90) scale(1012.95)"><stop stop-color="#141D25"></stop><stop offset="0.7" stop-color="#010910"></stop></radialGradient><clipPath id="clip0_65_116"><rect width="1341" height="1341" rx="670.5" fill="white"></rect></clipPath></defs></svg> 