<?xml version="1.0" encoding="UTF-8"?> <svg xmlns="http://www.w3.org/2000/svg" width="168" height="52" viewBox="0 0 168 52" fill="none"><rect x="1.15299" y="0.474279" width="165.446" height="51.0514" rx="13.0319" fill="#F7C807"></rect><rect x="1.15299" y="0.474279" width="165.446" height="51.0514" rx="13.0319" stroke="black" stroke-width="0.898753"></rect><path d="M21.6726 25.6447C21.6726 25.5643 21.6885 25.4847 21.7194 25.4105C21.7502 25.3362 21.7955 25.2688 21.8525 25.2121C21.9094 25.1553 21.9771 25.1104 22.0515 25.0799C22.1259 25.0494 22.2056 25.0339 22.286 25.0343L23.303 25.0376C23.4652 25.0376 23.6207 25.102 23.7353 25.2167C23.85 25.3313 23.9144 25.4869 23.9144 25.649V29.4948C24.0289 29.4609 24.1755 29.4246 24.3368 29.3867C24.4486 29.3604 24.5482 29.2971 24.6195 29.2071C24.6908 29.1171 24.7296 29.0057 24.7296 28.8909V24.1208C24.7296 23.9586 24.794 23.8031 24.9087 23.6884C25.0233 23.5737 25.1789 23.5093 25.341 23.5093H26.3611C26.5233 23.5093 26.6788 23.5737 26.7934 23.6884C26.9081 23.8031 26.9725 23.9586 26.9725 24.1208V28.5482C26.9725 28.5482 27.2277 28.4449 27.4761 28.34C27.5685 28.3009 27.6472 28.2356 27.7026 28.1521C27.758 28.0685 27.7876 27.9705 27.7877 27.8703V22.5922C27.7877 22.4301 27.8521 22.2746 27.9668 22.1599C28.0814 22.0453 28.2369 21.9808 28.399 21.9808H29.418C29.5801 21.981 29.7354 22.0454 29.85 22.1601C29.9645 22.2747 30.0288 22.4302 30.0288 22.5922V26.9385C30.9123 26.2983 31.8077 25.5282 32.5182 24.6022C32.6212 24.4678 32.6895 24.31 32.7168 24.1428C32.7439 23.9756 32.7295 23.8043 32.6744 23.6441C32.3455 22.6979 31.8226 21.8307 31.1394 21.0981C30.4561 20.3655 29.6274 19.7836 28.7064 19.3897C27.7853 18.9958 26.7922 18.7984 25.7905 18.8103C24.7888 18.8222 23.8006 19.0431 22.8892 19.4588C21.9777 19.8746 21.1631 20.476 20.4975 21.2246C19.8318 21.9732 19.3297 22.8526 19.0234 23.8064C18.7171 24.7601 18.6133 25.7674 18.7186 26.7636C18.8239 27.7598 19.136 28.7231 19.6349 29.5918C19.7218 29.7416 19.8497 29.8636 20.0035 29.9432C20.1574 30.0229 20.3307 30.0571 20.5033 30.0416C20.6961 30.0247 20.9361 30.0007 21.2214 29.9672C21.3456 29.9531 21.4603 29.8938 21.5435 29.8006C21.6268 29.7074 21.6729 29.5868 21.6731 29.4618V25.6447" fill="black"></path><path d="M21.6509 31.8121C22.725 32.5934 23.9943 33.0625 25.3185 33.1672C26.6426 33.272 27.9699 33.0084 29.1535 32.4057C30.3372 31.8029 31.331 30.8844 32.025 29.7519C32.719 28.6194 33.0862 27.3169 33.086 25.9887C33.086 25.8225 33.0783 25.6589 33.0673 25.4958C30.4366 29.4194 25.5793 31.2536 21.6509 31.8121Z" fill="black"></path><path d="M42.5244 21.192H44.4747L46.2363 28.2382H47.3058L49.0674 21.192H51.0177L48.7528 29.9998H44.7893L42.5244 21.192ZM52.003 22.488C51.8101 22.295 51.7136 22.0728 51.7136 21.8211C51.7136 21.5695 51.8101 21.3514 52.003 21.1668C52.2044 20.9739 52.4434 20.8774 52.7202 20.8774C52.9971 20.8774 53.2319 20.9739 53.4249 21.1668C53.6262 21.3514 53.7268 21.5695 53.7268 21.8211C53.7268 22.0728 53.6262 22.295 53.4249 22.488C53.2319 22.6725 52.9971 22.7648 52.7202 22.7648C52.4434 22.7648 52.2044 22.6725 52.003 22.488ZM51.8395 29.9998V23.5827H53.601V29.9998H51.8395ZM55.6016 29.2071C54.939 28.5444 54.6076 27.7391 54.6076 26.7912C54.6076 25.8433 54.939 25.0422 55.6016 24.3879C56.2727 23.7253 57.0948 23.3939 58.0678 23.3939C59.0576 23.3939 59.8713 23.7211 60.5088 24.3754C61.1463 25.0297 61.4651 25.8349 61.4651 26.7912V27.1687H56.4321C56.4992 27.5881 56.6879 27.9446 56.9983 28.2382C57.3087 28.5318 57.6652 28.6786 58.0678 28.6786C58.5124 28.6786 58.8941 28.5528 59.2128 28.3011C59.3387 28.1921 59.4393 28.0662 59.5148 27.9236H61.4022C61.2596 28.3514 61.0499 28.7289 60.7731 29.0561C60.102 29.811 59.2002 30.1885 58.0678 30.1885C57.0948 30.1885 56.2727 29.8613 55.6016 29.2071ZM56.495 26.0992H59.5777C59.5106 25.7636 59.3387 25.4826 59.0618 25.2561C58.7934 25.0213 58.4621 24.9038 58.0678 24.9038C57.6736 24.9038 57.338 25.0171 57.0612 25.2436C56.7844 25.47 56.5957 25.7552 56.495 26.0992ZM62.0264 23.5827H63.8509L64.7316 28.2382H64.9204L65.8641 23.5827H68.1289L69.0726 28.2382H69.2614L70.1421 23.5827H71.9666L70.5825 29.9998H67.9402L67.0594 25.5959H66.9336L66.0528 29.9998H63.4105L62.0264 23.5827ZM77.007 29.2071C76.3359 28.5444 76.0004 27.7391 76.0004 26.7912C76.0004 25.8433 76.3359 25.0422 77.007 24.3879C77.6781 23.7253 78.5169 23.3939 79.5235 23.3939C80.5217 23.3939 81.3564 23.7253 82.0274 24.3879C82.7069 25.0422 83.0466 25.8433 83.0466 26.7912C83.0466 27.7391 82.7069 28.5444 82.0274 29.2071C81.3564 29.8613 80.5217 30.1885 79.5235 30.1885C78.5169 30.1885 77.6781 29.8613 77.007 29.2071ZM78.3156 25.4323C77.9884 25.7846 77.8249 26.2376 77.8249 26.7912C77.8249 27.3448 77.9884 27.7978 78.3156 28.1501C78.6427 28.5024 79.0454 28.6786 79.5235 28.6786C80.0016 28.6786 80.4043 28.5024 80.7314 28.1501C81.0586 27.7978 81.2221 27.3448 81.2221 26.7912C81.2221 26.2376 81.0586 25.7846 80.7314 25.4323C80.4043 25.08 80.0016 24.9038 79.5235 24.9038C79.0454 24.9038 78.6427 25.08 78.3156 25.4323ZM84.0576 29.9998V23.5827H85.8192V24.4634H85.8821C85.9912 24.2705 86.1463 24.0944 86.3477 23.935C86.809 23.5743 87.3249 23.3939 87.8953 23.3939C88.6922 23.3939 89.3087 23.6246 89.7449 24.086C90.1895 24.5473 90.4118 25.2184 90.4118 26.0992V29.9998H88.6503V26.3508C88.6503 25.8811 88.5328 25.5246 88.298 25.2813C88.0715 25.0297 87.7485 24.9038 87.3291 24.9038C86.9097 24.9038 86.5532 25.0632 86.2596 25.382C85.966 25.7007 85.8192 26.1076 85.8192 26.6025V29.9998H84.0576ZM95.3898 29.9998V21.192H99.9195C100.8 21.192 101.492 21.4059 101.996 21.8337C102.499 22.2615 102.751 22.8025 102.751 23.4568C102.751 24.086 102.52 24.5809 102.059 24.9416C101.84 25.0926 101.61 25.2058 101.366 25.2813V25.3442C101.66 25.4029 101.941 25.5204 102.21 25.6965C102.78 26.074 103.065 26.6486 103.065 27.4203C103.065 28.1753 102.78 28.796 102.21 29.2826C101.647 29.7607 100.863 29.9998 99.8566 29.9998H95.3898ZM97.2772 24.6522H99.6678C100.029 24.6522 100.305 24.5725 100.498 24.4131C100.7 24.2453 100.8 24.0314 100.8 23.7714C100.8 23.5114 100.7 23.3017 100.498 23.1423C100.305 22.9745 100.029 22.8906 99.6678 22.8906H97.2772V24.6522ZM97.2772 28.3011H99.7308C100.192 28.3011 100.536 28.2088 100.763 28.0243C100.997 27.8398 101.115 27.5965 101.115 27.2945C101.115 26.9925 100.997 26.7493 100.763 26.5647C100.536 26.3802 100.192 26.2879 99.7308 26.2879H97.2772V28.3011ZM103.757 27.9236H105.581C105.64 28.0746 105.732 28.213 105.858 28.3389C106.126 28.6073 106.495 28.7415 106.965 28.7415C107.678 28.7415 108.035 28.5318 108.035 28.1124C108.035 28.0453 108.018 27.9865 107.984 27.9362C107.951 27.8775 107.892 27.8272 107.808 27.7852C107.724 27.7349 107.645 27.693 107.569 27.6594C107.494 27.6259 107.38 27.5923 107.229 27.5587C107.087 27.5168 106.969 27.4874 106.877 27.4707C106.793 27.4539 106.655 27.4245 106.462 27.3826C106.277 27.3406 106.143 27.3113 106.059 27.2945C104.734 27.0093 104.071 26.3592 104.071 25.3442C104.071 24.8074 104.31 24.3502 104.788 23.9727C105.275 23.5869 105.938 23.3939 106.776 23.3939C107.901 23.3939 108.744 23.742 109.306 24.4383C109.549 24.7403 109.712 25.0842 109.796 25.47H108.035C107.976 25.3442 107.901 25.2394 107.808 25.1555C107.548 24.9458 107.204 24.8409 106.776 24.8409C106.475 24.8409 106.252 24.8912 106.11 24.9919C105.967 25.0842 105.896 25.2016 105.896 25.3442C105.896 25.3945 105.904 25.4449 105.921 25.4952C105.946 25.5371 105.984 25.5791 106.034 25.621C106.084 25.6546 106.135 25.6881 106.185 25.7217C106.235 25.7469 106.307 25.7762 106.399 25.8098C106.491 25.8349 106.571 25.8601 106.638 25.8853C106.714 25.9104 106.81 25.9356 106.927 25.9608C107.045 25.9859 107.146 26.0069 107.229 26.0237C107.313 26.0405 107.422 26.0656 107.557 26.0992C107.691 26.1243 107.8 26.1453 107.884 26.1621C109.201 26.4557 109.859 27.1058 109.859 28.1124C109.859 28.6744 109.599 29.1609 109.079 29.5719C108.559 29.983 107.854 30.1885 106.965 30.1885C105.774 30.1885 104.893 29.811 104.323 29.0561C104.063 28.7121 103.874 28.3347 103.757 27.9236ZM111.486 29.2071C110.823 28.5444 110.492 27.7391 110.492 26.7912C110.492 25.8433 110.823 25.0422 111.486 24.3879C112.157 23.7253 112.979 23.3939 113.952 23.3939C115.118 23.3939 116.007 23.8133 116.619 24.6522C116.896 25.0129 117.098 25.4323 117.223 25.9104H115.399C115.323 25.7259 115.223 25.5581 115.097 25.4071C114.778 25.0716 114.397 24.9038 113.952 24.9038C113.507 24.9038 113.122 25.08 112.794 25.4323C112.476 25.7846 112.316 26.2376 112.316 26.7912C112.316 27.3448 112.476 27.7978 112.794 28.1501C113.122 28.5024 113.507 28.6786 113.952 28.6786C114.397 28.6786 114.778 28.5108 115.097 28.1753C115.223 28.0243 115.323 27.8565 115.399 27.672H117.223C117.106 28.1585 116.913 28.5779 116.645 28.9302C116.032 29.7691 115.135 30.1885 113.952 30.1885C112.979 30.1885 112.157 29.8613 111.486 29.2071ZM117.852 27.2316H119.802C119.878 27.4832 119.999 27.7055 120.167 27.8985C120.536 28.3347 121.086 28.5528 121.816 28.5528C122.906 28.5528 123.451 28.2172 123.451 27.5462C123.451 27.3784 123.393 27.2274 123.275 27.0932C123.166 26.959 122.99 26.8415 122.747 26.7409C122.512 26.6402 122.281 26.5605 122.055 26.5018C121.837 26.4347 121.551 26.355 121.199 26.2627C121.149 26.2544 121.107 26.246 121.073 26.2376C121.048 26.2292 121.01 26.2208 120.96 26.2124C120.918 26.1956 120.88 26.1831 120.847 26.1747C119.102 25.7552 118.23 24.9122 118.23 23.6456C118.23 22.8906 118.536 22.2531 119.148 21.733C119.769 21.2046 120.595 20.9403 121.627 20.9403C122.969 20.9403 123.984 21.3933 124.672 22.2992C124.957 22.7019 125.158 23.1507 125.276 23.6456H123.325C123.275 23.4694 123.179 23.3017 123.036 23.1423C122.717 22.8067 122.248 22.639 121.627 22.639C121.149 22.639 120.788 22.7312 120.545 22.9158C120.301 23.0919 120.18 23.3142 120.18 23.5827C120.18 24.0692 120.733 24.4383 121.841 24.6899C122.126 24.757 122.302 24.799 122.369 24.8157C122.445 24.8325 122.617 24.8787 122.885 24.9542C123.162 25.0297 123.346 25.0926 123.439 25.1429C123.539 25.1848 123.703 25.2561 123.929 25.3568C124.164 25.4491 124.328 25.5371 124.42 25.621C124.521 25.7049 124.647 25.8182 124.798 25.9608C124.957 26.095 125.07 26.2334 125.137 26.376C125.204 26.5186 125.263 26.6864 125.314 26.8793C125.372 27.0638 125.402 27.2652 125.402 27.4832C125.402 28.2634 125.087 28.9219 124.458 29.4587C123.829 29.9872 122.948 30.2514 121.816 30.2514C120.322 30.2514 119.228 29.7481 118.532 28.7415C118.204 28.3053 117.978 27.802 117.852 27.2316ZM127.153 29.2071C126.49 28.5444 126.159 27.7391 126.159 26.7912C126.159 25.8433 126.49 25.0422 127.153 24.3879C127.824 23.7253 128.646 23.3939 129.619 23.3939C130.785 23.3939 131.674 23.8133 132.286 24.6522C132.563 25.0129 132.764 25.4323 132.89 25.9104H131.066C130.99 25.7259 130.89 25.5581 130.764 25.4071C130.445 25.0716 130.063 24.9038 129.619 24.9038C129.174 24.9038 128.788 25.08 128.461 25.4323C128.142 25.7846 127.983 26.2376 127.983 26.7912C127.983 27.3448 128.142 27.7978 128.461 28.1501C128.788 28.5024 129.174 28.6786 129.619 28.6786C130.063 28.6786 130.445 28.5108 130.764 28.1753C130.89 28.0243 130.99 27.8565 131.066 27.672H132.89C132.773 28.1585 132.58 28.5779 132.311 28.9302C131.699 29.7691 130.801 30.1885 129.619 30.1885C128.646 30.1885 127.824 29.8613 127.153 29.2071ZM134.425 29.2574C133.863 28.6283 133.582 27.8062 133.582 26.7912C133.582 25.7762 133.863 24.9584 134.425 24.3376C134.995 23.7085 135.7 23.3939 136.539 23.3939C137.101 23.3939 137.608 23.5617 138.061 23.8972C138.254 24.0566 138.418 24.2244 138.552 24.4005H138.615V23.5827H140.376V29.9998H138.615V29.1819H138.552C138.418 29.358 138.254 29.5258 138.061 29.6852C137.608 30.0207 137.101 30.1885 136.539 30.1885C135.7 30.1885 134.995 29.8781 134.425 29.2574ZM135.847 25.4071C135.553 25.7427 135.406 26.204 135.406 26.7912C135.406 27.3784 135.553 27.8398 135.847 28.1753C136.14 28.5108 136.518 28.6786 136.979 28.6786C137.466 28.6786 137.86 28.515 138.162 28.1879C138.464 27.8523 138.615 27.3868 138.615 26.7912C138.615 26.1956 138.464 25.7343 138.162 25.4071C137.86 25.0716 137.466 24.9038 136.979 24.9038C136.518 24.9038 136.14 25.0716 135.847 25.4071ZM141.76 29.9998V23.5827H143.522V24.4634H143.585C143.694 24.2705 143.849 24.0944 144.05 23.935C144.512 23.5743 145.028 23.3939 145.598 23.3939C146.395 23.3939 147.011 23.6246 147.448 24.086C147.892 24.5473 148.115 25.2184 148.115 26.0992V29.9998H146.353V26.3508C146.353 25.8811 146.236 25.5246 146.001 25.2813C145.774 25.0297 145.451 24.9038 145.032 24.9038C144.612 24.9038 144.256 25.0632 143.962 25.382C143.669 25.7007 143.522 26.1076 143.522 26.6025V29.9998H141.76Z" fill="black"></path></svg> 