<?xml version="1.0" encoding="UTF-8"?> <svg xmlns="http://www.w3.org/2000/svg" width="34" height="34" viewBox="0 0 34 34" fill="none"><rect width="34" height="34" rx="8" fill="#858585"></rect><path d="M10.3085 16.9162L13.5285 18.0097L21.174 13.3357C21.285 13.2682 21.3985 13.4187 21.303 13.5067L15.515 18.8342L15.3 21.8167C15.2964 21.8667 15.3082 21.9165 15.3337 21.9597C15.3591 22.0028 15.3971 22.0371 15.4426 22.0582C15.488 22.0792 15.5388 22.086 15.5882 22.0775C15.6375 22.069 15.6831 22.0457 15.719 22.0107L17.501 20.2582L20.759 22.7242C21.11 22.9902 21.6185 22.8027 21.713 22.3727L23.9815 12.0727C24.111 11.4852 23.535 10.9892 22.9735 11.2042L10.2925 16.0602C9.89446 16.2127 9.90546 16.7792 10.3085 16.9162Z" fill="#010910"></path></svg> 