<?xml version="1.0" encoding="UTF-8"?> <svg xmlns="http://www.w3.org/2000/svg" width="35" height="43" viewBox="0 0 35 43" fill="none"><path d="M13.7558 0.867254C12.2719 1.27003 10.364 2.26636 8.35017 3.64426L6.67549 4.78898L5.99714 4.44981C5.61556 4.25902 5.0856 3.91984 4.81002 3.70786C3.98328 3.0507 3.87728 3.24149 4.47084 4.32261C5.74275 6.67565 9.11332 9.96142 12.5263 12.2509C14.5825 13.6076 14.6461 13.6288 16.8932 13.0564C17.7199 12.8656 18.0167 12.8868 18.6739 13.1412C19.119 13.332 19.7126 13.4804 20.0306 13.4804C21.1753 13.4804 25.627 10.3006 27.7892 7.92636C29.0611 6.52726 31.075 3.70786 31.075 3.30508C31.075 2.96591 30.757 3.0507 30.3118 3.53827C29.7819 4.11063 28.8915 4.577 28.298 4.577C28.0224 4.577 27.2805 4.15303 26.6445 3.64426C25.3302 2.62673 23.7191 1.75759 21.9596 1.14283C20.3697 0.570475 15.3669 0.400887 13.7558 0.867254Z" fill="#010910"></path><path d="M4.40735 9.28267C3.58061 10.9998 3.32623 12.5684 3.09304 17.4865C2.71147 25.9659 2.35109 28.3825 0.930792 32.1983C0.464425 33.4702 0.146447 34.5513 0.188844 34.6149C0.252439 34.6785 1.18517 34.0425 2.2663 33.2158C3.32623 32.3679 4.32256 31.7319 4.44975 31.7743C4.57694 31.8167 5.36129 32.9402 6.20923 34.2545C7.03597 35.59 7.82031 36.7136 7.94751 36.756C8.0535 36.7984 8.92264 36.1412 9.85537 35.3357L11.5513 33.8306L11.9328 34.3393C12.166 34.6149 13.3107 36.3956 14.5191 38.3035C16.9569 42.204 17.4021 42.8187 17.6988 42.6491C17.8048 42.5856 19.0767 40.6353 20.5182 38.3458C21.9385 36.0564 23.1892 34.0849 23.2528 33.979C23.3376 33.873 24.1432 34.4665 25.0971 35.2933C26.0299 36.12 26.8778 36.7984 27.005 36.7984C27.1322 36.7984 27.9589 35.6536 28.8493 34.2545C29.7396 32.8554 30.5663 31.7107 30.6723 31.7107C30.7995 31.7107 31.7959 32.4315 32.8982 33.3218C34.0005 34.2121 34.9332 34.9117 34.9968 34.8693C35.0392 34.8269 34.6577 33.661 34.1489 32.3043C32.6438 28.3189 32.559 27.7042 31.923 16.3418C31.7111 12.2929 31.5627 11.5509 30.7147 9.60065L30.1636 8.37114L29.6336 8.8587C29.358 9.13428 28.8281 9.70664 28.4889 10.1518L27.8317 10.9786L28.2133 12.5048C28.5737 13.9463 28.5737 14.0735 28.2345 15.1335C27.7893 16.4478 26.369 17.8257 25.0547 18.1649C23.6344 18.5252 23.1257 18.8644 23.0621 19.4368C22.9773 20.1999 23.5072 20.7723 25.5423 22.023C26.5386 22.6377 27.3654 23.2313 27.4078 23.3373C27.4502 23.4645 26.687 24.0368 25.7331 24.6092C22.3201 26.6655 21.451 28.0646 19.0767 35.2933C18.2712 37.6887 17.614 39.7026 17.5716 39.745C17.4232 39.9357 17.2749 39.533 16.6813 37.4131C15.8546 34.4665 14.0951 29.8664 13.1623 28.213C12.3144 26.6655 11.5301 25.9235 9.4738 24.7152C8.66826 24.2276 7.88391 23.7189 7.77792 23.5705C7.58713 23.3585 8.0323 22.9769 9.60099 21.9382L11.6784 20.5815V19.6488V18.6948L10.4701 18.3344C8.79545 17.8469 7.84151 17.1897 7.24795 16.1722C6.5484 14.9427 6.44241 14.0099 6.80278 12.526C7.07837 11.2965 7.07837 11.2329 6.5908 10.4062C6.31522 9.93983 5.80645 9.28267 5.46728 8.96469L4.83132 8.37114L4.40735 9.28267Z" fill="#010910"></path><path d="M9.02905 13.6922C9.02905 14.5825 9.51662 15.4729 10.195 15.7697C11.0429 16.1512 13.0568 16.1088 13.0568 15.7061C13.0568 15.3881 9.70741 13.0562 9.26224 13.0562C9.13505 13.0562 9.02905 13.353 9.02905 13.6922Z" fill="#010910"></path><path d="M24.4831 13.6501C24.0591 13.9681 23.2748 14.4768 22.7236 14.7948C21.3033 15.6427 21.4093 16.0243 23.084 16.0243C25.1402 16.0243 26.4545 14.9644 26.1154 13.6077C25.9458 12.9081 25.4794 12.9293 24.4831 13.6501Z" fill="#010910"></path><path d="M16.4903 15.5151C15.176 16.1934 14.4553 17.6349 14.1373 20.2848C13.9677 21.5355 13.7981 22.129 13.5649 22.2774C13.3741 22.3834 12.9714 22.6802 12.6958 22.9134L12.187 23.3373L13.5225 24.7365C15.0064 26.2839 15.8968 27.789 16.7871 30.2905C17.4654 32.2407 17.5502 32.2195 18.5678 29.6545C19.4581 27.3439 20.4756 25.7116 21.7899 24.3761L22.8499 23.2738L21.9171 22.6378L20.9632 21.9806L20.836 20.2212C20.5604 16.6174 18.5678 14.4764 16.4903 15.5151Z" fill="#010910"></path></svg> 