<?xml version="1.0" encoding="UTF-8"?> <svg xmlns="http://www.w3.org/2000/svg" width="34" height="34" viewBox="0 0 34 34" fill="none"><rect width="34" height="34" rx="8" fill="#858585"></rect><g clip-path="url(#clip0_69_130)"><path fill-rule="evenodd" clip-rule="evenodd" d="M11.877 11.5C11.6246 10.2 12.6341 9 13.9464 9C15.1073 9 16.0662 9.95 16.0662 11.1V13.7C16.3691 13.7 16.6719 13.65 16.9748 13.65C17.2776 13.65 17.53 13.65 17.8328 13.7V11.1C17.8328 9.95 18.7918 9 19.9527 9C21.265 9 22.2744 10.2 22.0726 11.5L21.5173 14.55C23.4858 15.4 25 16.9 25 18.75V19.9C25 21.45 23.9905 22.75 22.5268 23.6C21.0631 24.5 19.1451 25 16.9748 25C14.8044 25 12.8864 24.5 11.4227 23.6C10.0095 22.75 9 21.45 9 19.9V18.75C9 16.9 10.4637 15.4 12.4322 14.55L11.877 11.5ZM20.7603 14.95L21.4164 11.35C21.5678 10.45 20.9117 9.6 19.9527 9.6C19.1451 9.6 18.489 10.25 18.489 11.05V14.35C18.2871 14.3 18.0347 14.3 17.8328 14.3C17.53 14.3 17.2776 14.25 16.9748 14.25C16.6719 14.25 16.3691 14.25 16.0662 14.3C15.8644 14.3 15.612 14.35 15.4101 14.35V11.1C15.4101 10.3 14.7539 9.65 13.9464 9.65C13.0379 9.65 12.3312 10.5 12.5331 11.4L13.1893 15C11.0694 15.8 9.65615 17.2 9.65615 18.8V19.95C9.65615 22.4 12.9369 24.4 16.9748 24.4C21.0126 24.4 24.2934 22.4 24.2934 19.95V18.8C24.3438 17.15 22.9306 15.75 20.7603 14.95Z" fill="#633001"></path><path d="M24.3438 19.9C24.3438 22.35 21.063 24.35 17.0252 24.35C12.9873 24.35 9.70654 22.35 9.70654 19.9V18.75H24.3942V19.9H24.3438Z" fill="#FEDC90"></path><path fill-rule="evenodd" clip-rule="evenodd" d="M12.533 11.3999C12.3311 10.4999 13.0378 9.6499 13.9463 9.6499C14.7539 9.6499 15.41 10.2999 15.41 11.0999V14.3999C15.9147 14.3499 16.4195 14.2999 16.9747 14.2999C17.4794 14.2999 17.9841 14.3499 18.4889 14.3999V11.0999C18.4889 10.2999 19.145 9.6499 19.9526 9.6499C20.8611 9.6499 21.5677 10.4999 21.4163 11.3999L20.7602 14.9999C22.88 15.7999 24.3438 17.1999 24.3438 18.7999C24.3438 21.2499 21.063 23.2499 17.0252 23.2499C12.9873 23.2499 9.70654 21.2499 9.70654 18.7999C9.70654 17.1999 11.1198 15.7999 13.2397 14.9999L12.533 11.3999Z" fill="#D1884F"></path><path d="M14.9557 18.45C14.9557 19.1 14.6024 19.65 14.1481 19.65C13.6939 19.65 13.3406 19.1 13.3406 18.45C13.3406 17.8 13.6939 17.25 14.1481 17.25C14.6024 17.25 14.9557 17.8 14.9557 18.45Z" fill="#633001"></path><path d="M20.5583 18.45C20.5583 19.1 20.2049 19.65 19.7507 19.65C19.2964 19.65 18.9431 19.1 18.9431 18.45C18.9431 17.8 19.2964 17.25 19.7507 17.25C20.2049 17.25 20.5583 17.8 20.5583 18.45Z" fill="#633001"></path></g><defs><clipPath id="clip0_69_130"><rect width="16" height="16" fill="white" transform="translate(9 9)"></rect></clipPath></defs></svg> 