<?xml version="1.0" encoding="UTF-8"?> <svg xmlns="http://www.w3.org/2000/svg" width="1289" height="435" viewBox="0 0 1289 435" fill="none"><path fill-rule="evenodd" clip-rule="evenodd" d="M442.386 0H516.405L553.014 30.493L552.914 192.956H503.402L500.901 185.957L491.899 192.956H443.887L401.976 158.464L401.876 33.4923L442.386 0ZM465.292 97.3776C465.392 114.774 465.692 120.372 466.692 120.672C467.693 120.872 467.893 115.573 467.893 96.4778C467.893 80.3815 467.593 71.9835 466.892 71.9835C466.292 71.9835 465.692 72.5833 465.492 73.2832C465.292 73.983 465.192 84.7805 465.292 97.3776ZM556.915 0H888.899L888.499 98.4774L864.793 98.6773C846.488 98.8773 840.887 98.6773 840.487 97.6775C840.187 97.0777 838.986 90.3792 837.786 83.0809C836.386 74.7828 835.085 69.484 834.285 69.2841C833.285 69.0841 832.985 74.8828 832.985 122.972L836.786 123.972C838.786 124.471 843.187 125.471 852.49 127.571L852.99 192.956H748.964L749.464 127.571L755.465 126.271C758.766 125.471 763.167 124.471 768.969 122.972V95.9779C768.969 75.0827 768.769 68.9841 767.768 68.9841C766.868 68.9841 765.668 73.883 761.467 98.4774L712.954 98.9772V88.9795H675.945L676.445 104.476L714.955 104.976V192.956H556.915L557.415 127.571L573.419 123.472V69.484L556.915 65.4849V0ZM1.0747 243.944H98.7994V309.429L82.2952 313.428V367.416L98.2993 371.515L98.7994 434.9H1.27476L0.474553 404.107C-0.0255732 382.312 -0.0255732 373.114 0.774629 372.414C1.37478 371.815 5.37579 370.515 17.2788 367.416V313.428L9.07673 311.428C4.07546 310.229 0.574578 308.829 0.174477 307.929C-0.125598 307.129 -0.0255732 292.333 0.374528 275.137L1.0747 243.944ZM108.802 243.944L191.323 244.444L199.025 258.441C203.326 266.139 207.227 272.637 207.827 272.737C208.427 272.837 208.827 267.838 208.827 243.944H389.573L389.373 308.429L387.072 309.429C385.872 310.029 384.872 310.929 384.872 311.428C384.872 312.028 386.272 316.927 387.972 322.426C390.073 329.224 391.373 331.924 391.873 330.924C392.274 330.124 393.774 325.325 395.274 320.226C396.675 315.128 397.875 310.729 397.875 310.429C397.875 310.229 396.775 309.729 392.874 308.929V243.944H477.895V259.94C477.895 269.938 478.295 275.937 478.895 275.937C479.496 275.937 488.498 268.738 517.905 243.944H591.924L630.934 276.436V403.907L593.424 434.9H516.405L478.895 403.907V355.718C478.995 316.327 478.795 307.629 477.695 308.629C476.995 309.229 472.894 310.829 460.791 314.428L454.189 334.923C450.588 346.22 441.886 373.214 422.281 434.4H345.462L327.157 374.414C317.055 341.422 308.752 314.428 308.652 314.328C308.452 314.128 305.652 313.228 302.351 312.228C296.649 310.429 295.949 310.429 283.346 313.528L282.846 434.9L222.331 435L201.325 399.508L200.825 434.9H108.802V371.915L114.103 370.515C116.904 369.715 120.905 368.715 126.306 367.316L126.806 313.928L121.605 312.528C118.704 311.728 114.703 310.729 109.302 309.329L108.802 243.944ZM542.912 364.916H566.918V315.927H542.912V364.916ZM634.935 243.944H735.86L735.46 309.329L715.955 313.928V364.916H739.961L741.462 357.718C742.262 353.719 743.262 349.02 744.462 343.921H792.975V434.9H634.935L635.435 371.515L652.039 367.416L651.439 313.628L635.435 309.429L634.935 243.944ZM773.97 243.944H871.995V307.929L869.494 309.229C868.094 309.929 866.993 310.929 866.993 311.428C866.993 312.028 868.094 316.327 869.494 320.926C870.894 325.625 872.295 330.124 872.495 330.924C872.795 331.824 873.295 332.224 873.495 331.924C873.795 331.724 875.295 326.725 876.996 320.926C878.696 315.228 879.997 310.329 879.997 310.229C879.997 310.029 878.896 309.729 874.995 308.929V243.944H1116.86L1116.56 332.424L1078.05 332.923V348.92H1117.06V434.9H958.016V371.915L962.317 370.915C964.618 370.315 968.619 369.215 975.521 367.216L976.021 313.928L970.32 312.228C967.119 311.328 962.117 310.529 959.017 310.629C956.016 310.629 951.115 311.528 942.813 314.428L904.303 434.4L827.483 434.9L809.479 375.414C799.576 342.621 791.274 315.427 790.974 314.928C790.774 314.428 786.873 312.928 774.47 309.229L773.97 243.944ZM1121.16 243.944L1243.69 244.044L1289 281.435V398.408L1245.19 434.9H1121.16L1121.66 371.615L1137.66 367.416V313.528L1121.06 309.429L1121.16 243.944ZM1202.18 364.916C1218.08 364.916 1221.38 364.516 1222.98 363.416C1225.18 361.917 1225.18 361.617 1225.18 340.422C1225.18 319.227 1225.18 318.927 1222.98 317.427C1221.38 316.327 1218.08 315.927 1211.48 315.927H1202.18V364.916Z" fill="black"></path><path fill-rule="evenodd" clip-rule="evenodd" d="M445.087 7.99805H513.404L544.912 33.9921V63.9852H502.401L501.201 60.286C500.601 58.1865 499.601 54.5873 497.9 47.9889H480.696C463.892 48.0888 463.291 48.0888 456.89 52.9877V123.971L459.891 126.471C462.791 128.87 463.391 128.97 476.895 128.97C490.698 128.97 490.998 128.97 497.9 123.472V100.977H475.895V73.9829H544.912V168.961H508.903L506.702 162.962C505.402 159.563 504.202 156.964 503.902 156.964C503.602 156.964 500.101 159.663 488.898 168.961H446.387L409.878 138.468L409.678 37.2913L445.087 7.99805ZM564.917 7.99805H706.953V63.9852L672.544 63.4853L668.443 48.4887L629.933 47.9889V73.9829H667.943V100.977H629.933V128.97H668.443L672.544 113.474L706.953 112.974V168.961H564.917V133.969L570.218 132.469C573.019 131.67 576.92 130.67 582.021 129.47L581.421 47.5889L565.417 43.2899L564.917 7.99805ZM721.056 7.99805H881.097V73.9829H847.088L846.488 70.7836C846.188 68.984 845.188 62.5855 842.487 45.4894L825.083 44.9895L824.983 129.47L830.784 130.77C833.985 131.47 838.186 132.469 844.088 133.969V168.961H758.066V133.969L761.767 132.969C763.867 132.469 768.168 131.47 777.071 129.47V44.9895L759.566 45.4894L757.866 54.9872C756.966 60.186 755.965 66.6846 755.065 73.9829H721.056V7.99805ZM8.77661 251.942H90.5973L90.3972 287.234L74.3932 291.533L73.793 373.414L78.5942 374.714C81.1949 375.414 84.9959 376.413 90.8973 377.913V412.905H8.87664V377.913L14.078 376.513C16.9787 375.714 20.7796 374.614 25.8809 373.414L25.3808 291.533L9.37676 287.234L8.77661 251.942ZM116.804 251.942L186.321 252.042L208.827 292.633C221.23 314.927 231.933 333.923 232.533 334.823C233.533 336.123 233.733 331.924 233.333 291.633L217.329 287.334L217.229 251.942H291.848L291.348 287.334L275.344 291.633L274.844 412.905H227.832L202.125 369.515C187.922 345.62 176.019 326.225 175.619 326.525C175.119 326.725 174.819 337.522 174.819 373.914L178.119 374.414C179.82 374.714 183.721 375.614 191.823 377.913V412.905H116.804V377.913L121.105 376.913C123.406 376.313 127.307 375.314 134.308 373.414V291.633L130.807 290.733C128.907 290.233 124.906 289.233 116.804 286.934V251.942ZM299.85 251.942H381.571L381.371 287.434L376.169 289.433C373.269 290.533 370.868 292.033 370.868 292.733C370.868 293.432 374.069 304.43 377.97 317.227C381.871 330.024 386.372 344.921 387.972 350.419C389.673 356.118 391.373 360.017 391.773 359.417C392.273 358.917 396.274 345.62 400.776 329.924C405.277 314.328 409.578 299.331 411.878 291.933L400.876 286.934V251.942H469.893L469.393 287.334L454.389 291.933L438.985 340.222C430.483 366.716 421.781 394.009 415.879 412.905H351.863L351.363 410.705C351.063 409.506 342.761 382.212 315.354 291.733L300.35 287.234L299.85 251.942ZM520.406 252.042H589.423L623.032 280.435L622.432 384.412L587.923 412.905H521.906L486.897 383.912V280.435L520.406 252.042ZM542.912 365.016H566.918V316.027H542.912V365.016ZM642.837 252.042H727.958V287.034L724.157 287.934C722.157 288.534 717.756 289.533 708.453 291.633L707.953 373.014H746.463L747.763 366.216C748.463 362.517 749.464 357.818 750.964 352.019H784.973V413.005H642.937V378.013L647.138 376.913C649.538 376.313 653.439 375.314 660.441 373.414V291.633L643.437 287.334L642.837 252.042ZM781.872 252.042H863.592L863.392 287.334L858.191 289.433C855.29 290.633 852.89 292.133 852.89 292.833C852.89 293.532 857.191 308.329 862.492 325.825C867.694 343.321 872.195 358.218 872.595 359.017C872.995 360.317 873.295 360.217 874.095 358.517C874.595 357.418 879.096 342.021 893.4 291.933L882.897 287.034V252.042H951.915L951.415 287.434L936.411 291.933L897.401 413.105L833.885 413.005L831.584 405.307C830.384 401.008 822.082 373.814 797.376 292.033L782.372 287.234L781.872 252.042ZM966.919 252.042H1108.05V308.029H1091.05C1078.05 308.029 1074.05 307.729 1073.95 306.829C1073.95 306.13 1073.05 302.53 1070.04 292.033H1031.03V318.027H1070.04V345.021L1031.53 345.52L1031.03 373.014L1070.34 372.514L1074.55 357.018H1109.05V413.005H967.019V378.013L972.22 376.513C975.121 375.714 978.922 374.814 984.023 374.014L983.523 291.733L967.519 287.434L966.919 252.042ZM1128.96 252.042L1240.49 252.142L1281 285.534V378.513L1239.49 413.005H1128.96V378.013L1134.26 376.613C1137.06 375.814 1140.96 374.714 1146.06 373.514L1145.46 291.633L1129.46 287.334L1128.96 252.042ZM1202.08 365.016C1217.88 365.116 1221.18 364.616 1222.78 363.516C1224.98 362.117 1225.08 361.717 1225.08 340.522C1225.08 319.426 1224.98 319.027 1222.78 317.527C1221.18 316.527 1217.88 316.027 1211.28 316.027H1202.08V365.016Z" fill="#F7C807"></path><path fill-rule="evenodd" clip-rule="evenodd" d="M554.915 292.033C568.818 292.033 569.518 292.133 575.92 296.932V367.915L572.619 370.415C569.518 372.714 568.718 372.814 555.215 372.914C542.511 372.914 540.611 372.714 534.91 368.915L534.409 296.132L537.41 294.032C540.111 292.233 541.911 292.033 554.915 292.033V292.033ZM542.912 364.916H566.918V315.927H542.912V364.916ZM1194.08 291.933H1223.58L1232.99 299.431V365.416L1223.58 372.914H1194.08V291.933ZM1202.08 364.916C1217.88 364.916 1221.18 364.516 1222.88 363.416C1225.08 361.917 1225.08 361.617 1225.08 340.422C1225.08 319.227 1225.08 318.927 1222.78 317.427C1221.18 316.327 1217.88 315.927 1211.28 315.927H1202.08V364.916Z" fill="black"></path></svg> 