<?xml version="1.0" encoding="UTF-8"?> <svg xmlns="http://www.w3.org/2000/svg" width="193" height="52" viewBox="0 0 193 52" fill="none"><rect x="0.832311" y="0.474279" width="191.52" height="51.0514" rx="13.0319" fill="#1FC7D4"></rect><rect x="0.832311" y="0.474279" width="191.52" height="51.0514" rx="13.0319" stroke="black" stroke-width="0.898753"></rect><g clip-path="url(#clip0_5_680)"><path fill-rule="evenodd" clip-rule="evenodd" d="M20.7821 21.3657C20.5695 20.2704 21.42 19.2593 22.5257 19.2593C23.5039 19.2593 24.3119 20.0597 24.3119 21.0287V23.2194C24.5671 23.2194 24.8222 23.1773 25.0774 23.1773C25.3326 23.1773 25.5452 23.1773 25.8004 23.2194V21.0287C25.8004 20.0597 26.6084 19.2593 27.5865 19.2593C28.6923 19.2593 29.5428 20.2704 29.3727 21.3657L28.9049 23.9356C30.5635 24.6518 31.8393 25.9157 31.8393 27.4744V28.4434C31.8393 29.7494 30.9888 30.8448 29.7555 31.561C28.5222 32.3193 26.9061 32.7406 25.0774 32.7406C23.2487 32.7406 21.6327 32.3193 20.3994 31.561C19.2086 30.8448 18.358 29.7494 18.358 28.4434V27.4744C18.358 25.9157 19.5913 24.6518 21.2499 23.9356L20.7821 21.3657ZM28.267 24.2726L28.8199 21.2393C28.9474 20.481 28.3946 19.7648 27.5865 19.7648C26.9061 19.7648 26.3532 20.3125 26.3532 20.9866V23.7671C26.1831 23.725 25.9705 23.725 25.8004 23.725C25.5452 23.725 25.3326 23.6828 25.0774 23.6828C24.8222 23.6828 24.5671 23.6828 24.3119 23.725C24.1418 23.725 23.9292 23.7671 23.7591 23.7671V21.0287C23.7591 20.3546 23.2062 19.807 22.5257 19.807C21.7603 19.807 21.1649 20.5231 21.335 21.2815L21.8878 24.3148C20.1017 24.9888 18.9109 26.1684 18.9109 27.5166V28.4855C18.9109 30.5499 21.6752 32.235 25.0774 32.235C28.4796 32.235 31.2439 30.5499 31.2439 28.4855V27.5166C31.2865 26.1263 30.0957 24.9467 28.267 24.2726Z" fill="#633001"></path><path d="M31.2864 28.4436C31.2864 30.5079 28.5221 32.1931 25.1199 32.1931C21.7177 32.1931 18.9534 30.5079 18.9534 28.4436V27.4746H31.3289V28.4436H31.2864Z" fill="#FEDC90"></path><path fill-rule="evenodd" clip-rule="evenodd" d="M21.3349 21.2816C21.1648 20.5233 21.7602 19.8071 22.5257 19.8071C23.2061 19.8071 23.759 20.3548 23.759 21.0289V23.8094C24.1843 23.7673 24.6096 23.7251 25.0774 23.7251C25.5026 23.7251 25.9279 23.7673 26.3532 23.8094V21.0289C26.3532 20.3548 26.9061 19.8071 27.5865 19.8071C28.352 19.8071 28.9474 20.5233 28.8198 21.2816L28.2669 24.3149C30.0531 24.989 31.2864 26.1686 31.2864 27.5167C31.2864 29.5811 28.5221 31.2662 25.1199 31.2662C21.7177 31.2662 18.9534 29.5811 18.9534 27.5167C18.9534 26.1686 20.1441 24.989 21.9303 24.3149L21.3349 21.2816Z" fill="#D1884F"></path><path d="M23.3764 27.2218C23.3764 27.7695 23.0787 28.2329 22.6959 28.2329C22.3132 28.2329 22.0155 27.7695 22.0155 27.2218C22.0155 26.6741 22.3132 26.2107 22.6959 26.2107C23.0787 26.2107 23.3764 26.6741 23.3764 27.2218Z" fill="#633001"></path><path d="M28.0968 27.2218C28.0968 27.7695 27.7992 28.2329 27.4164 28.2329C27.0337 28.2329 26.736 27.7695 26.736 27.2218C26.736 26.6741 27.0337 26.2107 27.4164 26.2107C27.7992 26.2107 28.0968 26.6741 28.0968 27.2218Z" fill="#633001"></path></g><path d="M41.6956 29.9998V21.192H46.2253C47.1061 21.192 47.7981 21.4059 48.3014 21.8337C48.8047 22.2615 49.0564 22.8025 49.0564 23.4568C49.0564 24.086 48.8257 24.5809 48.3643 24.9416C48.1462 25.0926 47.9156 25.2058 47.6723 25.2813V25.3442C47.9659 25.4029 48.2469 25.5204 48.5153 25.6965C49.0857 26.074 49.3709 26.6486 49.3709 27.4203C49.3709 28.1753 49.0857 28.796 48.5153 29.2826C47.9533 29.7607 47.169 29.9998 46.1624 29.9998H41.6956ZM43.583 24.6522H45.9737C46.3344 24.6522 46.6112 24.5725 46.8041 24.4131C47.0054 24.2453 47.1061 24.0314 47.1061 23.7714C47.1061 23.5114 47.0054 23.3017 46.8041 23.1423C46.6112 22.9745 46.3344 22.8906 45.9737 22.8906H43.583V24.6522ZM43.583 28.3011H46.0366C46.4979 28.3011 46.8419 28.2088 47.0683 28.0243C47.3032 27.8398 47.4207 27.5965 47.4207 27.2945C47.4207 26.9925 47.3032 26.7493 47.0683 26.5647C46.8419 26.3802 46.4979 26.2879 46.0366 26.2879H43.583V28.3011ZM50.5029 27.4832V23.5827H52.2644V27.2316C52.2644 27.7013 52.3777 28.062 52.6042 28.3137C52.839 28.557 53.1662 28.6786 53.5856 28.6786C54.005 28.6786 54.3615 28.5192 54.6551 28.2005C54.9487 27.8817 55.0955 27.4749 55.0955 26.9799V23.5827H56.8571V29.9998H55.0955V29.119H55.0326C54.9319 29.3119 54.7768 29.4923 54.567 29.66C54.1141 30.0123 53.5982 30.1885 53.0194 30.1885C52.2225 30.1885 51.6018 29.9578 51.1572 29.4965C50.721 29.0351 50.5029 28.364 50.5029 27.4832ZM57.6779 23.5827H59.5023L60.7606 28.4899H61.2639L62.648 23.5827H64.4724L61.893 32.3904H60.0686L60.7606 29.9998H59.3765L57.6779 23.5827ZM69.3177 29.2071C68.6466 28.5444 68.3111 27.7391 68.3111 26.7912C68.3111 25.8433 68.6466 25.0422 69.3177 24.3879C69.9888 23.7253 70.8276 23.3939 71.8342 23.3939C72.8324 23.3939 73.6671 23.7253 74.3381 24.3879C75.0176 25.0422 75.3573 25.8433 75.3573 26.7912C75.3573 27.7391 75.0176 28.5444 74.3381 29.2071C73.6671 29.8613 72.8324 30.1885 71.8342 30.1885C70.8276 30.1885 69.9888 29.8613 69.3177 29.2071ZM70.6263 25.4323C70.2991 25.7846 70.1356 26.2376 70.1356 26.7912C70.1356 27.3448 70.2991 27.7978 70.6263 28.1501C70.9534 28.5024 71.3561 28.6786 71.8342 28.6786C72.3124 28.6786 72.715 28.5024 73.0421 28.1501C73.3693 27.7978 73.5329 27.3448 73.5329 26.7912C73.5329 26.2376 73.3693 25.7846 73.0421 25.4323C72.715 25.08 72.3124 24.9038 71.8342 24.9038C71.3561 24.9038 70.9534 25.08 70.6263 25.4323ZM76.3684 29.9998V23.5827H78.1299V24.4634H78.1928C78.3019 24.2705 78.4571 24.0944 78.6584 23.935C79.1197 23.5743 79.6356 23.3939 80.206 23.3939C81.0029 23.3939 81.6195 23.6246 82.0557 24.086C82.5002 24.5473 82.7225 25.2184 82.7225 26.0992V29.9998H80.961V26.3508C80.961 25.8811 80.8435 25.5246 80.6087 25.2813C80.3822 25.0297 80.0592 24.9038 79.6398 24.9038C79.2204 24.9038 78.8639 25.0632 78.5703 25.382C78.2767 25.7007 78.1299 26.1076 78.1299 26.6025V29.9998H76.3684ZM87.7005 29.9998V21.192H91.7898C92.8384 21.192 93.6856 21.4898 94.3315 22.0853C94.9858 22.6725 95.3129 23.4023 95.3129 24.2747C95.3129 25.1471 94.9858 25.8811 94.3315 26.4766C93.6856 27.0638 92.8384 27.3574 91.7898 27.3574H89.5879V29.9998H87.7005ZM89.5879 25.5959H91.7269C92.247 25.5959 92.6496 25.4742 92.9348 25.231C93.22 24.9877 93.3626 24.669 93.3626 24.2747C93.3626 23.8804 93.22 23.5617 92.9348 23.3184C92.6496 23.0752 92.247 22.9535 91.7269 22.9535H89.5879V25.5959ZM96.7291 29.2574C96.167 28.6283 95.886 27.8062 95.886 26.7912C95.886 25.7762 96.167 24.9584 96.7291 24.3376C97.2995 23.7085 98.0041 23.3939 98.8429 23.3939C99.4049 23.3939 99.9124 23.5617 100.365 23.8972C100.558 24.0566 100.722 24.2244 100.856 24.4005H100.919V23.5827H102.681V29.9998H100.919V29.1819H100.856C100.722 29.358 100.558 29.5258 100.365 29.6852C99.9124 30.0207 99.4049 30.1885 98.8429 30.1885C98.0041 30.1885 97.2995 29.8781 96.7291 29.2574ZM98.1509 25.4071C97.8573 25.7427 97.7105 26.204 97.7105 26.7912C97.7105 27.3784 97.8573 27.8398 98.1509 28.1753C98.4445 28.5108 98.822 28.6786 99.2833 28.6786C99.7698 28.6786 100.164 28.515 100.466 28.1879C100.768 27.8523 100.919 27.3868 100.919 26.7912C100.919 26.1956 100.768 25.7343 100.466 25.4071C100.164 25.0716 99.7698 24.9038 99.2833 24.9038C98.822 24.9038 98.4445 25.0716 98.1509 25.4071ZM104.065 29.9998V23.5827H105.826V24.4634H105.889C105.998 24.2705 106.153 24.0944 106.355 23.935C106.816 23.5743 107.332 23.3939 107.902 23.3939C108.699 23.3939 109.316 23.6246 109.752 24.086C110.197 24.5473 110.419 25.2184 110.419 26.0992V29.9998H108.657V26.3508C108.657 25.8811 108.54 25.5246 108.305 25.2813C108.079 25.0297 107.756 24.9038 107.336 24.9038C106.917 24.9038 106.56 25.0632 106.267 25.382C105.973 25.7007 105.826 26.1076 105.826 26.6025V29.9998H104.065ZM112.361 29.2071C111.698 28.5444 111.367 27.7391 111.367 26.7912C111.367 25.8433 111.698 25.0422 112.361 24.3879C113.032 23.7253 113.854 23.3939 114.827 23.3939C115.993 23.3939 116.882 23.8133 117.495 24.6522C117.771 25.0129 117.973 25.4323 118.099 25.9104H116.274C116.199 25.7259 116.098 25.5581 115.972 25.4071C115.653 25.0716 115.272 24.9038 114.827 24.9038C114.383 24.9038 113.997 25.08 113.67 25.4323C113.351 25.7846 113.191 26.2376 113.191 26.7912C113.191 27.3448 113.351 27.7978 113.67 28.1501C113.997 28.5024 114.383 28.6786 114.827 28.6786C115.272 28.6786 115.653 28.5108 115.972 28.1753C116.098 28.0243 116.199 27.8565 116.274 27.672H118.099C117.981 28.1585 117.788 28.5779 117.52 28.9302C116.907 29.7691 116.01 30.1885 114.827 30.1885C113.854 30.1885 113.032 29.8613 112.361 29.2071ZM119.633 29.2574C119.071 28.6283 118.79 27.8062 118.79 26.7912C118.79 25.7762 119.071 24.9584 119.633 24.3376C120.204 23.7085 120.908 23.3939 121.747 23.3939C122.309 23.3939 122.817 23.5617 123.27 23.8972C123.462 24.0566 123.626 24.2244 123.76 24.4005H123.823V23.5827H125.585V29.9998H123.823V29.1819H123.76C123.626 29.358 123.462 29.5258 123.27 29.6852C122.817 30.0207 122.309 30.1885 121.747 30.1885C120.908 30.1885 120.204 29.8781 119.633 29.2574ZM121.055 25.4071C120.761 25.7427 120.615 26.204 120.615 26.7912C120.615 27.3784 120.761 27.8398 121.055 28.1753C121.349 28.5108 121.726 28.6786 122.187 28.6786C122.674 28.6786 123.068 28.515 123.37 28.1879C123.672 27.8523 123.823 27.3868 123.823 26.7912C123.823 26.1956 123.672 25.7343 123.37 25.4071C123.068 25.0716 122.674 24.9038 122.187 24.9038C121.726 24.9038 121.349 25.0716 121.055 25.4071ZM126.969 29.9998V21.192H128.73V25.9733H129.485L131.184 23.5827H133.134L131.058 26.5396L133.323 29.9998H131.31L129.674 27.4832H128.73V29.9998H126.969ZM134.184 29.2071C133.521 28.5444 133.19 27.7391 133.19 26.7912C133.19 25.8433 133.521 25.0422 134.184 24.3879C134.855 23.7253 135.677 23.3939 136.65 23.3939C137.64 23.3939 138.454 23.7211 139.091 24.3754C139.729 25.0297 140.047 25.8349 140.047 26.7912V27.1687H135.014C135.081 27.5881 135.27 27.9446 135.58 28.2382C135.891 28.5318 136.247 28.6786 136.65 28.6786C137.095 28.6786 137.476 28.5528 137.795 28.3011C137.921 28.1921 138.022 28.0662 138.097 27.9236H139.984C139.842 28.3514 139.632 28.7289 139.355 29.0561C138.684 29.811 137.782 30.1885 136.65 30.1885C135.677 30.1885 134.855 29.8613 134.184 29.2071ZM135.077 26.0992H138.16C138.093 25.7636 137.921 25.4826 137.644 25.2561C137.376 25.0213 137.044 24.9038 136.65 24.9038C136.256 24.9038 135.92 25.0171 135.643 25.2436C135.367 25.47 135.178 25.7552 135.077 26.0992ZM140.734 27.2316H142.685C142.76 27.4832 142.882 27.7055 143.05 27.8985C143.419 28.3347 143.968 28.5528 144.698 28.5528C145.788 28.5528 146.334 28.2172 146.334 27.5462C146.334 27.3784 146.275 27.2274 146.157 27.0932C146.048 26.959 145.872 26.8415 145.629 26.7409C145.394 26.6402 145.163 26.5605 144.937 26.5018C144.719 26.4347 144.434 26.355 144.081 26.2627C144.031 26.2544 143.989 26.246 143.956 26.2376C143.93 26.2292 143.893 26.2208 143.842 26.2124C143.8 26.1956 143.763 26.1831 143.729 26.1747C141.984 25.7552 141.112 24.9122 141.112 23.6456C141.112 22.8906 141.418 22.2531 142.03 21.733C142.651 21.2046 143.477 20.9403 144.509 20.9403C145.851 20.9403 146.866 21.3933 147.554 22.2992C147.839 22.7019 148.041 23.1507 148.158 23.6456H146.208C146.157 23.4694 146.061 23.3017 145.918 23.1423C145.6 22.8067 145.13 22.639 144.509 22.639C144.031 22.639 143.67 22.7312 143.427 22.9158C143.184 23.0919 143.062 23.3142 143.062 23.5827C143.062 24.0692 143.616 24.4383 144.723 24.6899C145.008 24.757 145.184 24.799 145.252 24.8157C145.327 24.8325 145.499 24.8787 145.767 24.9542C146.044 25.0297 146.229 25.0926 146.321 25.1429C146.422 25.1848 146.585 25.2561 146.812 25.3568C147.047 25.4491 147.21 25.5371 147.303 25.621C147.403 25.7049 147.529 25.8182 147.68 25.9608C147.839 26.095 147.953 26.2334 148.02 26.376C148.087 26.5186 148.146 26.6864 148.196 26.8793C148.255 27.0638 148.284 27.2652 148.284 27.4832C148.284 28.2634 147.969 28.9219 147.34 29.4587C146.711 29.9872 145.83 30.2514 144.698 30.2514C143.205 30.2514 142.11 29.7481 141.414 28.7415C141.087 28.3053 140.86 27.802 140.734 27.2316ZM148.915 23.5827H150.74L151.62 28.2382H151.809L152.753 23.5827H155.018L155.961 28.2382H156.15L157.031 23.5827H158.855L157.471 29.9998H154.829L153.948 25.5959H153.822L152.941 29.9998H150.299L148.915 23.5827ZM160.268 29.2574C159.706 28.6283 159.425 27.8062 159.425 26.7912C159.425 25.7762 159.706 24.9584 160.268 24.3376C160.839 23.7085 161.543 23.3939 162.382 23.3939C162.944 23.3939 163.452 23.5617 163.905 23.8972C164.098 24.0566 164.261 24.2244 164.395 24.4005H164.458V23.5827H166.22V29.9998H164.458V29.1819H164.395C164.261 29.358 164.098 29.5258 163.905 29.6852C163.452 30.0207 162.944 30.1885 162.382 30.1885C161.543 30.1885 160.839 29.8781 160.268 29.2574ZM161.69 25.4071C161.397 25.7427 161.25 26.204 161.25 26.7912C161.25 27.3784 161.397 27.8398 161.69 28.1753C161.984 28.5108 162.361 28.6786 162.823 28.6786C163.309 28.6786 163.703 28.515 164.005 28.1879C164.307 27.8523 164.458 27.3868 164.458 26.7912C164.458 26.1956 164.307 25.7343 164.005 25.4071C163.703 25.0716 163.309 24.9038 162.823 24.9038C162.361 24.9038 161.984 25.0716 161.69 25.4071ZM167.604 32.3904V23.5827H169.366V24.4005H169.429C169.563 24.2244 169.726 24.0566 169.919 23.8972C170.372 23.5617 170.88 23.3939 171.442 23.3939C172.281 23.3939 172.981 23.7085 173.543 24.3376C174.113 24.9584 174.399 25.7762 174.399 26.7912C174.399 27.8062 174.113 28.6283 173.543 29.2574C172.981 29.8781 172.281 30.1885 171.442 30.1885C170.88 30.1885 170.372 30.0207 169.919 29.6852C169.726 29.5258 169.563 29.358 169.429 29.1819H169.366V32.3904H167.604ZM169.819 25.4071C169.517 25.7343 169.366 26.1956 169.366 26.7912C169.366 27.3868 169.517 27.8523 169.819 28.1879C170.121 28.515 170.515 28.6786 171.001 28.6786C171.463 28.6786 171.84 28.5108 172.134 28.1753C172.427 27.8398 172.574 27.3784 172.574 26.7912C172.574 26.204 172.427 25.7427 172.134 25.4071C171.84 25.0716 171.463 24.9038 171.001 24.9038C170.515 24.9038 170.121 25.0716 169.819 25.4071Z" fill="black"></path><defs><clipPath id="clip0_5_680"><rect width="13.4813" height="13.4813" fill="white" transform="translate(18.358 19.2593)"></rect></clipPath></defs></svg> 