<?xml version="1.0" encoding="UTF-8"?> <svg xmlns="http://www.w3.org/2000/svg" width="113" height="117" viewBox="0 0 113 117" fill="none"><path d="M80.8901 18.3125C54.4207 -1.14458 21.6269 -1.491 7.64078 17.5377C6.29137 19.3724 5.16692 21.3207 4.2633 23.3575C-4.23982 42.4686 6.32978 69.6351 30.246 87.2126C38.7845 93.4854 47.9802 97.7735 56.989 100.063C61.4429 101.194 65.8539 101.838 70.1144 101.994C83.9591 102.498 96.2493 97.8427 103.492 87.9874C104.478 86.6451 105.346 85.2444 106.093 83.7889C115.97 64.6194 105.488 36.3922 80.8901 18.3125ZM49.7728 60.6483C45.0603 57.1822 43.1048 51.7397 45.1519 48.1383C45.2624 47.9385 45.3874 47.7419 45.527 47.5559C48.1525 43.9815 54.3135 44.0457 59.2886 47.6999C64.2601 51.3578 66.1636 57.2178 63.5344 60.7923C62.8405 61.7369 61.9006 62.4249 60.8009 62.8615C57.7367 64.0835 53.4312 63.3366 49.7728 60.6483Z" fill="#F5AF41"></path><g opacity="0.3"><path d="M74.0688 95.2143C69.8083 95.0587 65.3973 94.4147 60.9434 93.2834C51.9346 90.9942 42.7389 86.7061 34.2004 80.4332C10.2842 62.8557 -0.285441 35.6893 8.21768 16.5782C8.24762 16.5107 8.27976 16.4442 8.3101 16.3771C8.23265 16.4751 8.1587 16.5768 8.08226 16.6759C7.15475 18.093 6.35299 19.5704 5.6754 21.0976C-2.82772 40.2087 7.74195 67.3752 31.6581 84.9527C40.1967 91.2255 49.3923 95.5136 58.4011 97.8028C62.855 98.9342 67.266 99.5782 71.5265 99.7338C85.07 100.228 97.1229 95.7798 104.421 86.3602C104.295 86.5514 104.167 86.7412 104.038 86.9307C104.8 85.8258 105.488 84.6851 106.093 83.5064C106.334 83.0389 106.559 82.5644 106.776 82.0865C99.4594 91.3395 87.4953 95.7038 74.0688 95.2143Z" fill="black"></path></g><g opacity="0.3"><path d="M66.8975 61.0031C70.4771 56.0712 68.1301 48.2634 61.6553 43.564C55.1805 38.8645 47.0298 39.0529 43.4502 43.9847C39.8706 48.9166 42.2176 56.7244 48.6924 61.4238C55.1672 66.1233 63.3179 65.9349 66.8975 61.0031Z" fill="black"></path></g><path d="M72.1425 103.37C71.9406 103.37 71.7399 103.369 71.5369 103.366C57.425 103.217 42.4801 97.8627 29.455 88.2894C16.43 78.716 6.85842 66.0507 2.50359 52.6268C-1.90214 39.0464 -0.459454 26.3039 6.56573 16.7457C13.5908 7.18783 25.3141 1.99769 39.5981 2.15796C53.7101 2.30722 68.655 7.6617 81.68 17.235C94.705 26.8084 104.277 39.4737 108.632 52.8977C113.037 66.478 111.594 79.2208 104.569 88.7787C97.6441 98.2009 86.1439 103.369 72.1425 103.37ZM38.9941 4.82662C25.8627 4.82662 15.1273 9.60871 8.71843 18.328C-4.80756 36.7307 5.20468 67.1494 31.0372 86.1367C56.8701 105.124 88.8906 105.599 102.416 87.1965C115.942 68.7938 105.93 38.3751 80.0976 19.3879C67.5199 10.143 53.1269 4.97283 39.5699 4.82967C39.3778 4.82747 39.1853 4.82662 38.9941 4.82662ZM57.6288 64.7471C54.8258 64.7471 51.7265 63.741 48.9811 61.7232C46.3523 59.7912 44.4156 57.2197 43.5277 54.4833C42.5893 51.5905 42.9163 48.8494 44.4488 46.7645C47.5081 42.6019 54.5196 42.5393 60.0785 46.6247C65.6373 50.7103 67.6705 57.4208 64.6109 61.5837C63.0624 63.6903 60.5013 64.7471 57.6288 64.7471ZM51.4063 46.2354C49.3881 46.2354 47.6401 46.9338 46.6015 48.3467C45.5923 49.7197 45.4032 51.6061 46.0691 53.6587C46.7856 55.8675 48.3817 57.967 50.5634 59.5705C54.9352 62.7839 60.2711 62.9767 62.4581 60.0014C64.6452 57.0258 62.8679 51.9907 58.4963 48.7773C56.2005 47.09 53.6383 46.2354 51.4063 46.2354Z" fill="black"></path><path d="M81.4718 16.9626C68.7112 7.58332 54.519 2.53852 41.5682 1.8454L41.5748 1.83981C8.14347 -2.5744 0.438216 23.702 6.67231 22.4625C7.71208 22.2556 8.60356 22.2109 9.37227 22.2755C9.29431 22.6428 9.21601 23.0096 9.14748 23.391C6.02032 40.8534 24.8323 44.1668 17.7023 55.3693C10.5721 66.5719 19.654 72.1454 26.9155 67.3235L26.966 67.2902C30.2006 65.1775 34.6121 66.459 36.2657 69.9506C37.084 71.6784 37.7326 73.7583 37.659 75.93C37.434 82.5639 36.2024 88.0535 45.221 87.8586C47.881 87.8011 49.0575 84.6141 48.3685 82.026C46.8097 76.1717 54.4454 74.7791 57.4106 78.6886C58.1171 79.6202 58.6294 80.6011 58.8259 81.5324C59.1343 84.3357 58.7108 87.5596 57.495 90.6008C54.5253 98.0305 50.454 114.139 62.4516 115.445C74.4489 116.751 63.3609 89.3691 72.4517 89.6637C81.5422 89.9579 82.4994 94.4795 90.9585 88.2814C99.4179 82.0834 103.87 77.936 107.471 79.8222C111.072 81.7088 111.112 67.4385 111.112 67.4385C110.965 50.2515 100.214 30.7385 81.4718 16.9626ZM81.7614 56.5785C76.3638 63.922 63.707 63.7881 53.491 56.2795C44.9102 49.9726 40.7841 40.4698 42.8806 33.2374C43.0278 32.8458 45.8309 25.6538 51.1584 31.7205C56.6332 37.955 57.6693 39.0375 64.3475 37.0518C71.0258 35.0659 66.9634 47.3072 73.7069 48.3583C80.4507 49.4093 83.9798 50.378 81.7614 56.5785Z" fill="#E67E91"></path><g opacity="0.3"><path d="M27.861 35.3375C27.9574 35.9195 28.2747 36.4292 28.7542 36.7726C29.1334 37.044 29.5781 37.186 30.035 37.186C30.1564 37.186 30.2786 37.1759 30.4006 37.1557C30.9827 37.0593 31.4923 36.7423 31.8358 36.2625C32.1793 35.7828 32.3153 35.1982 32.2191 34.6161L31.3204 29.1874C31.2239 28.6053 30.9069 28.0957 30.4271 27.7523C29.9474 27.4087 29.3629 27.2731 28.7807 27.369C28.7807 27.369 28.7807 27.369 28.7806 27.369C27.5793 27.568 26.7636 28.7074 26.9625 29.9087L27.861 35.3375Z" fill="black"></path><path d="M53.9051 25.0028C53.9215 25.0028 53.938 25.0027 53.9546 25.0022C54.5443 24.9893 55.0938 24.7475 55.5018 24.3214C56.3439 23.4416 56.3132 22.0408 55.4336 21.1985L51.4584 17.3936C51.0322 16.9859 50.475 16.7662 49.8829 16.7811C49.2932 16.794 48.7437 17.0358 48.3357 17.4619C47.4936 18.3417 47.5243 19.7426 48.4039 20.5848L52.3791 24.3897C52.7934 24.7861 53.3335 25.0028 53.9051 25.0028Z" fill="black"></path><path d="M80.5417 45.7939C80.7344 45.2363 80.6982 44.6372 80.4402 44.1067L78.0329 39.1585C77.5001 38.0634 76.1756 37.6062 75.0806 38.1387C73.9855 38.6715 73.528 39.9958 74.0608 41.0909L76.4681 46.0389C76.7262 46.5695 77.1754 46.9677 77.733 47.1604C77.9694 47.2419 78.213 47.2825 78.4558 47.2825C78.7861 47.2825 79.1147 47.2075 79.4203 47.0588C79.951 46.8008 80.3492 46.3516 80.5417 45.7939Z" fill="black"></path><path d="M41.6388 56.1343C40.424 56.0267 39.3498 56.9217 39.2398 58.1344L38.7429 63.6146C38.6896 64.2021 38.8682 64.7752 39.246 65.2282C39.6238 65.6814 40.1553 65.9604 40.7429 66.0136C40.811 66.0198 40.8788 66.0228 40.9463 66.0228C41.4615 66.0228 41.9561 65.8444 42.3568 65.5104C42.8098 65.1327 43.0888 64.6009 43.142 64.0134L43.6389 58.5333C43.6921 57.9457 43.5135 57.3727 43.1358 56.9196C42.758 56.4664 42.2264 56.1875 41.6388 56.1343Z" fill="black"></path><path d="M29.1557 48.2259L24.4971 51.1542C23.466 51.8022 23.1544 53.1684 23.8025 54.1994C24.2216 54.8663 24.9409 55.232 25.676 55.232C26.0773 55.232 26.4835 55.1228 26.8477 54.894L31.5066 51.9657C32.5376 51.3176 32.8491 49.9516 32.2012 48.9204C31.5532 47.8897 30.1872 47.5778 29.1557 48.2259Z" fill="black"></path><path d="M73.765 78.7102C73.1167 77.6788 71.7508 77.3676 70.7198 78.0156L66.0609 80.9438C65.0299 81.5919 64.7184 82.958 65.3665 83.9892C65.7855 84.6559 66.5051 85.0218 67.24 85.0218C67.6415 85.0218 68.0475 84.9126 68.4118 84.6837L73.0706 81.7553C74.1016 81.1073 74.4132 79.7413 73.7652 78.7102H73.765Z" fill="black"></path><path d="M83.1764 63.9647C82.9602 63.4159 82.5432 62.9839 82.0022 62.7487C81.4613 62.5133 80.861 62.5029 80.312 62.7193C79.7632 62.9354 79.3312 63.3523 79.0961 63.8934C78.8608 64.4344 78.8502 65.0346 79.0666 65.5834L81.083 70.7035C81.2992 71.2523 81.7162 71.6843 82.2572 71.9194C82.5396 72.0423 82.8383 72.1038 83.1373 72.1038C83.4109 72.1038 83.685 72.0522 83.9472 71.9489C84.4961 71.7327 84.9281 71.3158 85.1634 70.7747C85.3987 70.2338 85.4092 69.6335 85.1929 69.0847L83.1764 63.9647Z" fill="black"></path><path d="M66.6378 27.8585L71.9243 29.3856C72.1277 29.4443 72.3347 29.4734 72.5405 29.4734C72.9087 29.4734 73.273 29.3803 73.6043 29.1976C74.1208 28.9126 74.4954 28.4436 74.6593 27.8767C74.9971 26.7067 74.3201 25.4798 73.1504 25.1419L67.8638 23.6147C66.6943 23.2776 65.4672 23.9537 65.1291 25.1236H65.129C64.791 26.2936 65.4678 27.5204 66.6378 27.8585Z" fill="black"></path><path d="M93.0511 52.0789L87.7645 50.5516C86.595 50.2142 85.3677 50.8907 85.0298 52.0605C84.8659 52.6273 84.9327 53.2239 85.2176 53.7404C85.5027 54.2569 85.9718 54.6315 86.5385 54.7954L91.8251 56.3226C92.029 56.3815 92.2347 56.4095 92.437 56.4095C93.3956 56.4095 94.2808 55.7796 94.5599 54.8136C94.8977 53.6436 94.2208 52.4168 93.0511 52.0789Z" fill="black"></path><path d="M102.859 72.4918C102.458 72.0587 101.913 71.8076 101.323 71.7845C100.733 71.7629 100.171 71.9695 99.7377 72.37L95.6979 76.106C95.2647 76.5065 95.0134 77.0517 94.9905 77.6413C94.9675 78.2309 95.1753 78.794 95.576 79.2271C95.9765 79.6601 96.5218 79.9114 97.1112 79.9345C97.1407 79.9356 97.1701 79.9361 97.1995 79.9361C97.7567 79.9361 98.2856 79.7295 98.6969 79.349L102.737 75.6129C103.631 74.786 103.686 73.3859 102.859 72.4918Z" fill="black"></path><path d="M85.4599 42.3223C85.8461 42.6117 86.3055 42.7638 86.7797 42.7638C86.8851 42.7638 86.9913 42.7563 87.0975 42.7411L92.5445 41.9608C93.1285 41.8773 93.645 41.5712 93.9988 41.0991C94.3526 40.627 94.5014 40.0455 94.4177 39.4615C94.3342 38.8775 94.0281 38.361 93.556 38.0072C93.084 37.6536 92.5023 37.5049 91.9184 37.5883L86.4713 38.3686C85.2658 38.5413 84.4255 39.6626 84.5982 40.868C84.6817 41.4521 84.9878 41.9686 85.4599 42.3223Z" fill="black"></path><path d="M53.3934 65.1548L49.438 68.9801C48.5627 69.8269 48.5392 71.2277 49.3857 72.103C49.7959 72.5271 50.3466 72.7661 50.9365 72.7761C50.949 72.7762 50.9618 72.7763 50.9743 72.7763C51.5501 72.7763 52.0938 72.5566 52.5088 72.1552L56.4644 68.3299C56.8884 67.9197 57.1274 67.369 57.1372 66.7792C57.1469 66.1893 56.9266 65.631 56.5164 65.207C55.6701 64.3318 54.2692 64.3082 53.3934 65.1548Z" fill="black"></path><path d="M34.3117 13.8533C33.6133 12.856 32.2332 12.6127 31.2357 13.311C30.2381 14.0094 29.9949 15.3894 30.6934 16.387L33.8497 20.8945C34.2787 21.5075 34.9651 21.8356 35.662 21.8356C36.0994 21.8356 36.541 21.7062 36.9256 21.4369C37.9233 20.7384 38.1665 19.3584 37.468 18.3609L34.3117 13.8533Z" fill="black"></path></g><path d="M26.8727 8.9071C26.797 9.6648 26.448 10.3597 25.9821 10.9619C22.2018 15.8477 26.9071 26.9348 20.704 27.4723C14.4471 28.0145 14.88 13.926 19.0167 9.34748C24.241 3.56527 27.2209 5.42183 26.8727 8.9071Z" fill="#FFABBA"></path><path d="M96.7994 56.1458C96.7994 56.1458 97.1701 64.1385 88.7531 68.5274C80.336 72.9164 96.4735 75.6666 101.192 67.0472C105.911 58.4279 97.8033 51.2566 96.7994 56.1458Z" fill="#FFABBA"></path><g opacity="0.5"><path d="M111.678 67.1556C111.529 49.9688 100.78 30.4554 82.0361 16.6786C79.6981 14.9595 77.3093 13.3851 74.8916 11.9621C74.447 11.6996 74.001 11.4436 73.5543 11.1909C73.5547 11.1296 73.5563 11.0683 73.5545 11.0069C72.1992 10.2983 70.8319 9.63871 69.4572 9.02372C65.1696 6.90938 60.8229 5.23767 56.5031 4.01413C51.6346 2.62974 46.8035 1.81527 42.1318 1.56449L42.1388 1.55715C31.5555 0.159887 23.5515 1.84052 17.749 4.74781C22.8684 3.45263 29.0577 3.00656 36.4408 3.98119L36.4337 3.98492C42.2769 4.29648 48.3573 5.45009 54.4594 7.44314C54.8663 7.57556 55.2733 7.71193 55.6802 7.85187C55.0148 10.9219 57.3519 14.3864 61.458 16.0419C65.1334 17.5235 69.1179 17.1079 71.4802 15.2423C72.1374 15.6359 72.7928 16.0374 73.4451 16.4514C75.1701 17.5448 76.8716 18.7069 78.553 19.9413C98.3367 34.4853 109.687 55.0805 109.842 73.2219C109.842 73.2219 109.831 76.2085 109.486 79.346C111.649 77.2785 111.678 67.1556 111.678 67.1556Z" fill="white"></path></g><path d="M63.2512 116.825C62.9459 116.825 62.6312 116.808 62.3069 116.772C58.8603 116.397 56.321 114.889 54.7594 112.291C50.6513 105.454 54.8652 93.5809 56.2545 90.105C57.3427 87.3827 57.7861 84.4181 57.5056 81.7481C57.3488 81.0679 56.9488 80.2905 56.3462 79.4958C55.0485 77.7848 52.5099 77.4493 50.953 78.2107C49.6691 78.838 49.2217 80.0385 49.6593 81.6822C50.1885 83.6694 49.8106 85.9112 48.6967 87.3937C47.8464 88.5249 46.6225 89.1641 45.2499 89.1939C41.8648 89.2648 39.5069 88.569 38.0397 87.061C35.8912 84.852 36.0614 81.4006 36.2418 77.7464C36.2718 77.139 36.3025 76.5172 36.3239 75.8847C36.3805 74.2191 35.9545 72.4148 35.0583 70.5219C34.429 69.1931 33.2467 68.1993 31.8145 67.7954C30.404 67.3976 28.9028 67.6205 27.6968 68.4083L27.6608 68.4321C23.5996 71.1288 18.7783 71.0576 15.9296 68.2636C12.8387 65.232 13.0801 60.1434 16.5754 54.652C19.5888 49.9173 17.3675 47.0541 14.005 42.7196C10.5634 38.2832 6.29465 32.7808 7.75044 23.6424C7.48548 23.6736 7.21279 23.7169 6.93308 23.7727C5.7327 24.0116 4.67112 23.6149 4.02026 22.6853C2.73948 20.8555 3.35725 17.293 5.59384 13.6093C7.10013 11.1286 10.6757 6.49101 17.6996 3.30272C24.4523 0.237473 32.5442 -0.700382 41.7499 0.515254C41.7583 0.516384 41.7669 0.517458 41.7753 0.518871C55.4397 1.28075 69.8127 6.73512 82.263 15.8862C100.726 29.4563 112.292 49.2057 112.448 67.4272C112.448 67.5568 112.437 70.2786 112.122 73.2294C111.51 78.9833 110.318 80.3923 109.349 80.9772C108.584 81.4387 107.697 81.4483 106.851 81.0056C104.538 79.7926 101.064 82.3975 95.309 86.7112C94.1854 87.5534 93.0237 88.4242 91.7481 89.3588C85.605 93.8601 82.8718 93.1261 79.0888 92.1104C77.3122 91.6332 75.2985 91.0923 72.4086 90.9987C71.6337 90.9744 71.27 91.2437 71.0631 91.4486C69.636 92.864 69.7474 97.4682 69.8457 101.53C69.9788 107.034 70.1166 112.724 67.2194 115.387C66.1789 116.344 64.8471 116.825 63.2512 116.825ZM52.7839 75.1502C54.8449 75.1502 57.0389 75.9879 58.4749 77.8816C59.3444 79.0281 59.9022 80.1635 60.1329 81.2566C60.142 81.2994 60.1491 81.3427 60.1538 81.3863C60.4966 84.5023 59.9929 87.9507 58.7355 91.0965C56.2304 97.364 54.2856 106.315 57.0495 110.915C58.1734 112.785 59.9878 113.833 62.596 114.117C63.8337 114.251 64.7546 114.023 65.4114 113.42C67.4162 111.577 67.2879 106.274 67.1746 101.595C67.0525 96.5465 66.9371 91.7781 69.1816 89.552C70.0437 88.6969 71.1586 88.2843 72.495 88.3287C75.6933 88.4321 77.9602 89.0409 79.7817 89.5303C83.1848 90.4439 85.0595 90.9476 90.169 87.204C91.4328 86.278 92.5886 85.4115 93.7064 84.5735C100.281 79.6449 104.259 76.663 108.055 78.6201C108.951 77.755 109.761 72.5598 109.777 67.4347C109.627 50.0538 98.4786 31.1206 80.6806 18.039C68.6037 9.16249 54.6879 3.88523 41.497 3.17962C41.4174 3.17521 41.3395 3.1642 41.2638 3.14623C21.7171 0.61203 10.5841 8.83533 6.98692 16.665C5.70174 19.4622 6.02144 20.9915 6.22629 21.1746C6.22352 21.1691 6.29029 21.1765 6.41181 21.1522C7.50429 20.9348 8.5379 20.8651 9.48423 20.9442C9.86641 20.9765 10.2163 21.1713 10.445 21.4791C10.6735 21.7869 10.759 22.1781 10.6793 22.5533L10.6711 22.5911C10.5987 22.9317 10.526 23.2725 10.4627 23.6263C8.98319 31.8874 12.7727 36.7725 16.1161 41.0823C19.5804 45.5478 22.8525 49.7658 18.8293 56.0866C16.0619 60.4348 15.6772 64.2738 17.8004 66.3562C19.7086 68.2278 23.2311 68.1663 26.1766 66.2108L26.2378 66.1702C28.0881 64.962 30.3858 64.6167 32.5399 65.2241C34.7151 65.8375 36.5132 67.352 37.473 69.3786C38.5536 71.6605 39.0653 73.88 38.9942 75.9753C38.9723 76.6216 38.941 77.2574 38.9104 77.8781C38.753 81.0681 38.617 83.8227 39.9549 85.1981C40.8767 86.1456 42.5911 86.5784 45.1924 86.5227C45.751 86.5108 46.1988 86.2705 46.5609 85.7886C47.1912 84.95 47.3988 83.5761 47.0777 82.3697C46.3164 79.5103 47.352 76.9968 49.7801 75.8103C50.6588 75.3808 51.7031 75.1502 52.7839 75.1502ZM69.6422 63.3096C64.1819 63.3096 58.1004 61.3251 52.7 57.3559C43.8655 50.8625 39.3001 40.7915 41.5977 32.8655C41.6073 32.8324 41.618 32.7999 41.6301 32.7676C41.8911 32.073 43.3448 28.5797 46.3443 28.0318C48.262 27.6812 50.2189 28.626 52.1622 30.8389C57.4844 36.8999 58.0408 37.5326 63.967 35.7714C65.4003 35.3449 66.6273 35.4221 67.6135 36.0009C69.3521 37.021 69.86 39.2846 70.3511 41.4738C71.0757 44.7037 71.677 46.6898 73.9126 47.0382C78.3899 47.7361 81.6689 48.4149 83.0903 50.806C84.0083 52.3505 83.9857 54.3278 83.0193 57.0286C82.9757 57.1505 82.9146 57.2655 82.8379 57.3698C79.9273 61.3296 75.0945 63.3096 69.6422 63.3096ZM44.1488 33.6611C42.1927 40.525 46.3526 49.3748 54.2822 55.2032C63.8135 62.2084 75.549 62.5206 80.5691 55.9425C81.1774 54.1748 81.2507 52.9402 80.7936 52.1711C79.9719 50.7888 77.0049 50.2241 73.5012 49.6779C69.3069 49.0242 68.4036 44.9981 67.7442 42.0584C67.3779 40.4259 66.9993 38.738 66.2615 38.3052C65.9396 38.1162 65.4238 38.1256 64.7285 38.3323C57.1617 40.5821 55.6777 38.8912 50.1546 32.6017C49.2741 31.599 47.9802 30.446 46.8244 30.6601C45.4869 30.9043 44.4585 32.8655 44.1488 33.6611Z" fill="black"></path><g opacity="0.3"><path d="M82.2999 52.3763C82.2998 52.3755 82.2995 52.3746 82.2993 52.3738C82.2996 52.3746 82.2998 52.3755 82.2999 52.3763Z" fill="black"></path><path d="M76.0023 48.7446C75.9232 48.7298 75.8421 48.7153 75.7617 48.7007C75.8421 48.7153 75.9232 48.7298 76.0023 48.7446Z" fill="black"></path><path d="M75.4579 48.6459C75.3653 48.6296 75.27 48.6135 75.1758 48.5974C75.2701 48.6135 75.3652 48.6296 75.4579 48.6459Z" fill="black"></path><path d="M74.3111 48.4537C74.1126 48.4219 73.9112 48.3901 73.7068 48.3582C73.9113 48.3901 74.1125 48.4219 74.3111 48.4537Z" fill="black"></path><path d="M79.6102 49.707C79.5823 49.6956 79.5549 49.684 79.5266 49.6728C79.5549 49.684 79.5823 49.6956 79.6102 49.707Z" fill="black"></path><path d="M82.4033 53.8421C82.4043 53.8286 82.4052 53.8151 82.4061 53.8017C82.4052 53.8151 82.4043 53.8286 82.4033 53.8421Z" fill="black"></path><path d="M79.9569 49.8577C79.9362 49.8481 79.916 49.8383 79.895 49.8288C79.916 49.8382 79.9361 49.8481 79.9569 49.8577Z" fill="black"></path><path d="M77.9807 49.1778C77.9295 49.1645 77.8777 49.1512 77.8257 49.1381C77.8777 49.1513 77.9295 49.1645 77.9807 49.1778Z" fill="black"></path><path d="M78.4222 49.2995C78.3767 49.2862 78.3308 49.2733 78.2847 49.2603C78.3308 49.2733 78.3767 49.2863 78.4222 49.2995Z" fill="black"></path><path d="M78.8421 49.428C78.802 49.415 78.7617 49.4021 78.7209 49.3893C78.7617 49.4021 78.8019 49.415 78.8421 49.428Z" fill="black"></path><path d="M80.5629 50.1746C80.5623 50.1743 80.5618 50.174 80.5618 50.174L80.5629 50.1746Z" fill="black"></path><path d="M80.2755 50.0145C80.2637 50.0083 80.2523 50.0018 80.2405 49.9956C80.2524 50.0018 80.2637 50.0083 80.2755 50.0145Z" fill="black"></path><path d="M76.5295 48.8468C76.4571 48.8323 76.3831 48.8181 76.3096 48.8038C76.3831 48.8181 76.4571 48.8323 76.5295 48.8468Z" fill="black"></path><path d="M77.5177 49.0624C77.4603 49.0487 77.4018 49.0354 77.3435 49.022C77.4019 49.0354 77.4603 49.0487 77.5177 49.0624Z" fill="black"></path><path d="M49.7079 30.334C49.5797 30.2355 49.4537 30.1466 49.3291 30.0637C49.4538 30.1467 49.5797 30.2355 49.7079 30.334Z" fill="black"></path><path d="M82.2878 54.6999C82.2901 54.6878 82.2926 54.6755 82.2949 54.6635C82.2926 54.6755 82.2901 54.6879 82.2878 54.6999Z" fill="black"></path><path d="M82.4192 53.4082C82.4192 53.4203 82.4193 53.4323 82.4192 53.4445C82.4194 53.4323 82.4192 53.4203 82.4192 53.4082Z" fill="black"></path><path d="M47.9492 29.4149C47.872 29.3944 47.7957 29.3768 47.7202 29.3621C47.7957 29.3769 47.872 29.3943 47.9492 29.4149Z" fill="black"></path><path d="M47.2008 29.3024C47.1163 29.3 47.0326 29.3002 46.9504 29.3048C47.0326 29.3002 47.1162 29.3 47.2008 29.3024Z" fill="black"></path><path d="M82.1887 55.1588C82.1908 55.1502 82.1931 55.1414 82.1951 55.1328C82.1931 55.1414 82.1908 55.1502 82.1887 55.1588Z" fill="black"></path><path d="M49.2247 29.9956C49.1036 29.9184 48.9836 29.8461 48.866 29.7829C48.9836 29.8462 49.1036 29.9183 49.2247 29.9956Z" fill="black"></path><path d="M48.7859 29.7427C48.689 29.6929 48.5933 29.6479 48.4988 29.6072C48.5933 29.648 48.689 29.6929 48.7859 29.7427Z" fill="black"></path><path d="M48.3866 29.5594C48.2813 29.5174 48.1774 29.4811 48.075 29.4499C48.1774 29.4812 48.2813 29.5173 48.3866 29.5594Z" fill="black"></path><path d="M82.3596 54.2606C82.3614 54.2471 82.3633 54.2335 82.3651 54.2201C82.3633 54.2335 82.3614 54.2471 82.3596 54.2606Z" fill="black"></path><path d="M41.8419 71.5622C41.9155 69.3904 41.2668 67.3105 40.4485 65.5827C38.7949 62.0911 34.3834 60.8097 31.1489 62.9223C31.132 62.9334 31.1151 62.9445 31.0983 62.9557C23.8369 67.7775 14.7549 62.2041 21.8851 51.0015C29.0152 39.799 10.203 36.4856 13.3304 19.0232C13.3987 18.6418 13.4772 18.2749 13.5552 17.9077C12.7863 17.8431 11.8947 17.8879 10.8551 18.0946C8.05965 18.6504 8.07005 13.6731 11.9433 8.4115C4.11073 14.8233 3.09441 23.1739 6.67217 22.4625C7.71177 22.2558 8.60335 22.211 9.37223 22.2755C9.29427 22.6428 9.21574 23.0096 9.14744 23.3911C6.02005 40.8534 24.8322 44.1669 17.7021 55.3694C10.5719 66.572 19.6539 72.1454 26.9153 67.3235C26.9321 67.3124 26.949 67.3013 26.9659 67.2902C30.2004 65.1776 34.6119 66.459 36.2655 69.9506C37.0838 71.6784 37.7326 73.7583 37.6589 75.93C37.434 82.564 36.2023 88.0535 45.2209 87.8585C47.3918 87.8116 48.5734 85.6804 48.5604 83.4913C40.465 83.3281 41.6242 77.9812 41.8419 71.5622Z" fill="black"></path><path d="M47.2008 29.3024C47.2471 29.3037 47.2938 29.3067 47.3407 29.3102C47.4124 29.3155 47.4851 29.3237 47.5585 29.3344C47.6119 29.3421 47.6658 29.3515 47.7201 29.3621C47.7956 29.3769 47.8719 29.3945 47.9491 29.415C47.9909 29.4262 48.0326 29.4371 48.0749 29.45C48.1774 29.4812 48.2812 29.5176 48.3866 29.5595C48.4237 29.5742 48.4612 29.5911 48.4986 29.6073C48.5931 29.648 48.6888 29.693 48.7857 29.7428C48.8125 29.7566 48.8388 29.7685 48.8658 29.783C48.9835 29.8461 49.1034 29.9185 49.2245 29.9957C49.2593 30.0178 49.294 30.0404 49.329 30.0637C49.4537 30.1467 49.5796 30.2357 49.7078 30.3341C49.7295 30.3507 49.7516 30.3695 49.7734 30.3865C49.8926 30.4803 50.0136 30.5815 50.1359 30.6893C50.1625 30.7127 50.1888 30.7349 50.2155 30.759C50.3508 30.881 50.4881 31.0128 50.6271 31.1528C50.6572 31.1831 50.6874 31.2146 50.7177 31.2457C50.8628 31.3951 51.0091 31.5508 51.1581 31.7205C56.6331 37.955 57.6692 39.0375 64.3474 37.0517C71.0256 35.0659 66.963 47.307 73.7068 48.3582C73.9113 48.39 74.1126 48.4218 74.3111 48.4537C74.3864 48.4658 74.4594 48.478 74.5339 48.4901C74.6541 48.5097 74.7748 48.5293 74.8927 48.549C74.9884 48.565 75.0815 48.5812 75.1757 48.5973C75.2699 48.6135 75.3651 48.6296 75.4578 48.6459C75.5606 48.664 75.6608 48.6824 75.7616 48.7007C75.842 48.7154 75.9231 48.7299 76.0022 48.7446C76.1062 48.7641 76.2077 48.784 76.3095 48.8038C76.383 48.8181 76.4571 48.8323 76.5295 48.8468C76.634 48.8678 76.7363 48.8894 76.8384 48.9108C76.9036 48.9246 76.9692 48.9382 77.0335 48.9522C77.1384 48.975 77.2413 48.9985 77.3436 49.022C77.4019 49.0353 77.4603 49.0487 77.5178 49.0624C77.6221 49.0871 77.7243 49.1125 77.8257 49.1381C77.8776 49.1513 77.9295 49.1644 77.9806 49.1778C78.0837 49.2047 78.185 49.2323 78.2848 49.2603C78.331 49.2732 78.3769 49.2862 78.4223 49.2995C78.5236 49.3288 78.6231 49.3588 78.7209 49.3894C78.7617 49.4022 78.802 49.415 78.8421 49.428C78.9414 49.4601 79.0392 49.4929 79.1349 49.5266C79.1698 49.5388 79.2041 49.5514 79.2385 49.5638C79.3364 49.5993 79.4328 49.6355 79.5266 49.6728C79.5548 49.6841 79.5824 49.6956 79.6102 49.707C79.7072 49.7467 79.8026 49.7871 79.895 49.8288C79.916 49.8383 79.9362 49.8481 79.9569 49.8577C80.0538 49.9025 80.1488 49.9483 80.2403 49.9956C80.2522 50.0018 80.2636 50.0083 80.2754 50.0145C80.3738 50.0662 80.4697 50.1191 80.5617 50.174C80.5617 50.174 80.5618 50.1741 80.562 50.1742C81.4643 50.7127 82.0587 51.4133 82.2994 52.374C82.2995 52.3747 82.2998 52.3754 82.2999 52.3762C82.3256 52.4789 82.3467 52.5851 82.3643 52.694C82.3652 52.7 82.3665 52.706 82.3674 52.7121C82.3839 52.818 82.3961 52.9272 82.4048 53.039C82.4056 53.0487 82.4066 53.0583 82.4073 53.068C82.4152 53.1784 82.419 53.292 82.4192 53.4083C82.4192 53.4205 82.4194 53.4324 82.4192 53.4446C82.4187 53.5606 82.4143 53.6798 82.4062 53.8018C82.4053 53.8152 82.4043 53.8287 82.4034 53.8422C82.3944 53.9651 82.3816 54.091 82.365 54.2202C82.3632 54.2336 82.3613 54.2472 82.3595 54.2607C82.3419 54.3917 82.3205 54.5259 82.2949 54.6636C82.2926 54.6756 82.2901 54.688 82.2878 54.7C82.261 54.8409 82.2304 54.9849 82.1953 55.1329C82.1932 55.1415 82.1909 55.1503 82.1888 55.1589C82.1521 55.3119 82.1112 55.4684 82.0654 55.6293C82.0654 55.6296 82.0653 55.6299 82.0652 55.6303C83.5823 54.7686 84.9004 53.6313 85.9444 52.2108C88.1628 46.0102 84.6338 45.0415 77.8899 43.9904C71.1461 42.9393 75.2087 30.6982 68.5305 32.684C61.8523 34.6697 60.8162 33.5873 55.3412 27.3528C50.0137 21.286 47.2106 28.4782 47.0636 28.8697C47.0219 29.0134 46.987 29.1595 46.9502 29.3049C46.9503 29.3049 46.9505 29.3049 46.9506 29.3049C47.0326 29.3002 47.1163 29.3 47.2008 29.3024Z" fill="black"></path><path d="M82.4062 53.8017C82.4144 53.6796 82.4188 53.5604 82.4193 53.4445C82.4187 53.5605 82.4144 53.6796 82.4062 53.8017Z" fill="black"></path><path d="M82.4048 53.0389C82.3961 52.9271 82.3839 52.8178 82.3674 52.712C82.3839 52.8178 82.3961 52.927 82.4048 53.0389Z" fill="black"></path><path d="M82.365 54.22C82.3817 54.0909 82.3944 53.9649 82.4034 53.8421C82.3944 53.965 82.3817 54.0908 82.365 54.22Z" fill="black"></path><path d="M82.3642 52.6939C82.3466 52.5851 82.3255 52.4789 82.2998 52.3761C82.3255 52.4789 82.3466 52.5851 82.3642 52.6939Z" fill="black"></path><path d="M79.8949 49.8288C79.8026 49.787 79.7071 49.7466 79.6101 49.707C79.7072 49.7466 79.8026 49.787 79.8949 49.8288Z" fill="black"></path><path d="M80.5618 50.1739C80.4697 50.119 80.3738 50.0661 80.2754 50.0144C80.3737 50.0662 80.4698 50.119 80.5618 50.1739Z" fill="black"></path><path d="M80.2405 49.9956C80.1489 49.9482 80.0539 49.9025 79.957 49.8577C80.0539 49.9025 80.149 49.9481 80.2405 49.9956Z" fill="black"></path><path d="M82.0654 55.6292C82.1112 55.4683 82.1521 55.3118 82.1888 55.1588C82.152 55.3119 82.1112 55.4683 82.0654 55.6292Z" fill="black"></path><path d="M82.2949 54.6635C82.3206 54.5258 82.3419 54.3916 82.3596 54.2606C82.3419 54.3917 82.3206 54.5258 82.2949 54.6635Z" fill="black"></path><path d="M82.1953 55.1329C82.2305 54.9849 82.261 54.8408 82.2878 54.7C82.261 54.8408 82.2305 54.9849 82.1953 55.1329Z" fill="black"></path><path d="M48.4987 29.6072C48.4613 29.591 48.4237 29.5741 48.3867 29.5594C48.4237 29.5741 48.4613 29.5911 48.4987 29.6072Z" fill="black"></path><path d="M47.7202 29.3621C47.6659 29.3515 47.612 29.3421 47.5586 29.3343C47.612 29.342 47.6659 29.3515 47.7202 29.3621Z" fill="black"></path><path d="M48.0751 29.4499C48.0327 29.437 47.9911 29.426 47.9492 29.4149C47.991 29.426 48.0328 29.437 48.0751 29.4499Z" fill="black"></path><path d="M49.3291 30.0637C49.2941 30.0404 49.2594 30.0178 49.2246 29.9956C49.2593 30.0177 49.2942 30.0404 49.3291 30.0637Z" fill="black"></path><path d="M48.866 29.7828C48.839 29.7683 48.8127 29.7565 48.7859 29.7427C48.8127 29.7565 48.839 29.7684 48.866 29.7828Z" fill="black"></path><path d="M80.562 50.1741C81.464 50.713 82.059 51.413 82.2994 52.3739C82.0588 51.4133 81.4644 50.7126 80.562 50.1741Z" fill="black"></path><path d="M47.3409 29.3102C47.2939 29.3067 47.2472 29.3037 47.2009 29.3024C47.2471 29.3037 47.2939 29.3067 47.3409 29.3102Z" fill="black"></path><path d="M82.4072 53.068C82.4151 53.1784 82.4189 53.2919 82.4191 53.4083C82.4189 53.2919 82.4151 53.1783 82.4072 53.068Z" fill="black"></path><path d="M77.8257 49.1381C77.7244 49.1125 77.6221 49.0871 77.5178 49.0624C77.6221 49.0872 77.7244 49.1125 77.8257 49.1381Z" fill="black"></path><path d="M50.2156 30.759C50.1889 30.7349 50.1626 30.7127 50.136 30.6893C50.1626 30.7127 50.1889 30.7349 50.2156 30.759Z" fill="black"></path><path d="M78.7209 49.3894C78.6232 49.3588 78.5237 49.3288 78.4224 49.2994C78.5236 49.3288 78.6232 49.3588 78.7209 49.3894Z" fill="black"></path><path d="M79.1349 49.5265C79.0392 49.4929 78.9414 49.4601 78.842 49.428C78.9414 49.4602 79.0393 49.4929 79.1349 49.5265Z" fill="black"></path><path d="M76.8385 48.9109C76.7363 48.8894 76.6341 48.8678 76.5295 48.8469C76.6341 48.8679 76.7363 48.8894 76.8385 48.9109Z" fill="black"></path><path d="M75.1757 48.5973C75.0816 48.5812 74.9885 48.5649 74.8928 48.549C74.9885 48.565 75.0816 48.5812 75.1757 48.5973Z" fill="black"></path><path d="M74.534 48.4902C74.4595 48.478 74.3866 48.4658 74.3113 48.4537C74.3866 48.4658 74.4596 48.478 74.534 48.4902Z" fill="black"></path><path d="M75.7618 48.7007C75.661 48.6824 75.5608 48.6639 75.458 48.6458C75.5608 48.6639 75.661 48.6824 75.7618 48.7007Z" fill="black"></path><path d="M95.1415 83.9136C86.9806 89.8932 87.0885 85.9443 77.5642 85.3432L77.5654 85.3421C77.5452 85.3407 77.423 85.3338 77.3817 85.3314C59.4503 84.1671 64.9915 98.0892 65.1777 107.147C65.3645 116.236 57.2317 113.253 57.2317 113.253C57.2317 113.253 61.4451 116.68 65.8481 114.771C70.2512 112.863 68.5019 101.213 69.3461 94.7332C70.1903 88.2534 72.8782 89.684 72.8782 89.684C81.5692 90.1037 82.6354 94.3799 90.9586 88.2815C99.4178 82.0833 103.87 77.936 107.471 79.8223C109.139 80.6962 110.043 78.1022 110.533 75.0664C107.112 74.4299 102.746 78.3416 95.1415 83.9136Z" fill="black"></path></g><path d="M29.4427 26.5426C28.5628 26.6882 27.9676 27.5196 28.1133 28.3995L29.0119 33.8283C29.1575 34.7082 29.9889 35.3034 30.8689 35.1578C31.7488 35.0121 32.344 34.1808 32.1983 33.3008L31.2997 27.872C31.154 26.9921 30.3227 26.3969 29.4427 26.5426Z" fill="#0DF4FF"></path><path d="M30.6039 35.7732C29.5434 35.7732 28.605 35.005 28.4261 33.9253L27.5275 28.4963C27.4312 27.9143 27.5672 27.3298 27.9106 26.85C28.254 26.3703 28.7637 26.0531 29.3457 25.9568C30.548 25.7579 31.6865 26.5736 31.8855 27.7747L32.7841 33.204C32.8803 33.786 32.7443 34.3705 32.4009 34.8503C32.0575 35.3297 31.5478 35.6469 30.9658 35.7432C30.8443 35.7633 30.7232 35.7732 30.6039 35.7732ZM29.707 27.1143C29.6519 27.1143 29.596 27.119 29.5397 27.1281C29.2706 27.1728 29.0349 27.3196 28.8761 27.5413C28.7174 27.7631 28.6545 28.0334 28.699 28.3027L29.5976 33.7314C29.6895 34.2864 30.2156 34.6618 30.7719 34.5719C31.041 34.5272 31.2767 34.3804 31.4355 34.159C31.5942 33.9372 31.6571 33.6669 31.6126 33.3976L30.714 27.9686C30.6314 27.4697 30.1973 27.1143 29.707 27.1143Z" fill="black"></path><path d="M49.3297 16.4602C48.7129 17.1045 48.7353 18.1267 49.3796 18.7434L53.3547 22.5483C53.999 23.1651 55.0213 23.1427 55.638 22.4984C56.2547 21.8541 56.2324 20.8319 55.5881 20.2152L51.6129 16.4102C50.9686 15.7935 49.9463 15.8159 49.3297 16.4602Z" fill="#0DF4FF"></path><path d="M54.4708 23.5892C53.9216 23.5892 53.3715 23.3862 52.9443 22.9774L48.969 19.1723C48.0895 18.3302 48.0589 16.9294 48.9008 16.0497C49.3088 15.6235 49.8582 15.3816 50.448 15.3686C51.0335 15.3634 51.5974 15.5733 52.0237 15.9813L55.9987 19.7861C56.4249 20.1941 56.6667 20.7436 56.6796 21.3334C56.6924 21.9231 56.4749 22.4828 56.0669 22.9088C55.6338 23.3614 55.0527 23.5892 54.4708 23.5892ZM49.7586 16.8706C49.3693 17.2775 49.3834 17.9252 49.7902 18.3144L53.7653 22.1195C54.1718 22.5088 54.8198 22.4944 55.2091 22.0878C55.3978 21.8908 55.4984 21.6321 55.4924 21.3595C55.4864 21.0867 55.3745 20.8327 55.1774 20.644L51.2025 16.8392C51.0055 16.6505 50.7404 16.5457 50.4741 16.5558C50.2013 16.5617 49.9471 16.6737 49.7586 16.8706Z" fill="black"></path><path d="M75.9056 37.2603C75.1035 37.6505 74.7698 38.6169 75.16 39.4189L77.5673 44.367C77.9575 45.169 78.924 45.5028 79.726 45.1126C80.528 44.7224 80.8618 43.756 80.4716 42.954L78.0642 38.0059C77.674 37.2039 76.7076 36.8701 75.9056 37.2603Z" fill="#0DF4FF"></path><path d="M79.023 45.8687C78.2037 45.8687 77.4153 45.4117 77.0333 44.6268L74.6258 39.6787C74.3678 39.1482 74.3316 38.5488 74.5243 37.9913C74.717 37.4335 75.1153 36.9845 75.6458 36.7262C76.1763 36.4683 76.7753 36.4316 77.333 36.6247C77.8907 36.8172 78.3398 37.2156 78.5979 37.7463L81.0054 42.694C81.5381 43.7891 81.0806 45.1137 79.9858 45.6464C79.6754 45.7973 79.3467 45.8687 79.023 45.8687ZM76.6113 37.6906C76.4586 37.6906 76.3068 37.7254 76.1654 37.7941C76.1654 37.7941 76.1653 37.7941 76.1653 37.7944C75.9199 37.9135 75.7358 38.1212 75.6469 38.3789C75.5578 38.6369 75.5744 38.9138 75.6937 39.159L78.1012 44.1072C78.3475 44.614 78.9601 44.8253 79.4663 44.5787C79.9725 44.3323 80.184 43.7199 79.9377 43.2135L77.5302 38.2659C77.4109 38.0203 77.2032 37.8363 76.9454 37.7472C76.8361 37.7094 76.7234 37.6906 76.6113 37.6906Z" fill="black"></path><path d="M42.1501 55.3132C41.2618 55.2326 40.4765 55.8874 40.396 56.7756L39.899 62.2558C39.8185 63.1441 40.4732 63.9294 41.3615 64.0099C42.2498 64.0905 43.0351 63.4357 43.1156 62.5475L43.6126 57.0674C43.6931 56.179 43.0384 55.3937 42.1501 55.3132Z" fill="#0DF4FF"></path><path d="M41.5089 64.6104C41.4424 64.6104 41.3754 64.6074 41.3078 64.6013C40.7203 64.5478 40.1887 64.2689 39.8109 63.816C39.4332 63.3628 39.2545 62.7899 39.3078 62.2023L39.8048 56.722C39.9148 55.5091 40.9915 54.6137 42.2039 54.7219C42.7914 54.7754 43.323 55.0543 43.7008 55.5072C44.0786 55.9604 44.2572 56.5333 44.2039 57.1209L43.707 62.6009C43.603 63.7465 42.6374 64.6104 41.5089 64.6104ZM42.0024 55.9002C41.7642 55.9002 41.5355 55.9827 41.3503 56.1371C41.1408 56.3118 41.012 56.5576 40.9873 56.829L40.4903 62.3093C40.4657 62.581 40.5483 62.8461 40.723 63.0554C40.8977 63.2651 41.1434 63.3939 41.4151 63.4185C41.9742 63.4731 42.4736 63.0547 42.5243 62.4938L43.0213 57.0138C43.046 56.7421 42.9634 56.477 42.7886 56.2677C42.6139 56.058 42.3682 55.9292 42.0965 55.9046C42.065 55.9016 42.0337 55.9002 42.0024 55.9002Z" fill="black"></path><path d="M32.2634 47.8241C31.7887 47.069 30.7919 46.8416 30.0368 47.3163L25.378 50.2446C24.6229 50.7192 24.3955 51.7161 24.8702 52.4712C25.3448 53.2262 26.3417 53.4536 27.0968 52.979L31.7556 50.0507C32.5107 49.576 32.7381 48.5792 32.2634 47.8241Z" fill="#FFD00D"></path><path d="M26.2411 53.8198C25.5061 53.8198 24.7866 53.454 24.3676 52.787C24.0536 52.2875 23.953 51.6958 24.0842 51.1206C24.2154 50.5452 24.5626 50.0556 25.0622 49.742L29.7209 46.8135C30.7524 46.1656 32.1181 46.4776 32.7659 47.5081C33.414 48.539 33.1025 49.905 32.0715 50.5532L27.4128 53.4816C27.0486 53.7106 26.6424 53.8198 26.2411 53.8198ZM30.8945 47.6626C30.7089 47.6626 30.5211 47.7131 30.3527 47.8187L25.694 50.7472C25.463 50.8922 25.3024 51.1187 25.2417 51.3846C25.1812 51.6506 25.2277 51.9242 25.3729 52.1554C25.6723 52.6318 26.3039 52.7757 26.781 52.4764L31.4395 49.548C31.9162 49.2481 32.0603 48.6168 31.7607 48.1398C31.567 47.8317 31.2343 47.6626 30.8945 47.6626Z" fill="black"></path><path d="M73.8274 77.6137C73.3527 76.8586 72.3559 76.6312 71.6008 77.1058L66.942 80.0341C66.1869 80.5088 65.9595 81.5056 66.4341 82.2607C66.9087 83.0158 67.9056 83.2432 68.6607 82.7685L73.3195 79.8402C74.0746 79.3657 74.302 78.3689 73.8274 77.6137Z" fill="#0DF4FF"></path><path d="M67.8056 83.6107C67.6409 83.6107 67.475 83.5922 67.3104 83.5547C66.7351 83.4237 66.2455 83.0761 65.9316 82.5766C65.6176 82.0773 65.517 81.4855 65.6481 80.9102C65.7794 80.335 66.1267 79.8454 66.6263 79.5318L71.2848 76.6033C71.7842 76.2889 72.3758 76.1882 72.9514 76.3197C73.5265 76.451 74.0162 76.7984 74.3301 77.2979C74.9781 78.3287 74.6666 79.6947 73.6356 80.343L68.9768 83.2711C68.6203 83.4954 68.2166 83.6107 67.8056 83.6107ZM72.4582 77.4515C72.2682 77.4515 72.0816 77.505 71.9168 77.6085L67.2582 80.5369C67.0271 80.682 66.8666 80.9085 66.8059 81.1744C66.7452 81.4403 66.7919 81.7137 66.9369 81.9446C67.0822 82.1757 67.3085 82.3363 67.5744 82.397C67.84 82.4579 68.1138 82.4113 68.3449 82.2659L73.0037 79.3378C73.4804 79.0379 73.6245 78.4066 73.3249 77.9296C73.1797 77.6987 72.9533 77.5381 72.6873 77.4775C72.6111 77.4601 72.5344 77.4515 72.4582 77.4515Z" fill="black"></path><path d="M81.0948 61.8592C80.265 62.1861 79.8572 63.1237 80.1841 63.9535L82.2006 69.0733C82.5274 69.9032 83.4651 70.311 84.2949 69.9841C85.1248 69.6573 85.5325 68.7196 85.2057 67.8897L83.1892 62.7699C82.8623 61.9401 81.9247 61.5323 81.0948 61.8592Z" fill="#FFD00D"></path><path d="M83.7055 70.6902C82.8243 70.6902 81.99 70.1592 81.6479 69.2911L79.6315 64.171C79.1852 63.0381 79.7439 61.7532 80.877 61.3066C81.426 61.0904 82.0263 61.1011 82.5672 61.3361C83.1081 61.5714 83.5252 62.0034 83.7414 62.5523L85.7578 67.6721C85.9741 68.221 85.9636 68.8213 85.7283 69.3622C85.4931 69.9031 85.0612 70.3202 84.5124 70.5365C84.2476 70.6408 83.9742 70.6902 83.7055 70.6902ZM81.3123 62.4117C81.0585 62.5116 80.8588 62.7044 80.7499 62.9545C80.6412 63.2045 80.6363 63.482 80.7362 63.7357L82.7527 68.8558C82.9589 69.3796 83.5535 69.6381 84.077 69.4315C84.331 69.3316 84.5305 69.1388 84.6394 68.8886C84.7482 68.6387 84.753 68.3612 84.653 68.1074L82.6366 62.9876C82.5366 62.7336 82.3438 62.5339 82.0936 62.4252C81.8438 62.3163 81.566 62.3113 81.3123 62.4117Z" fill="black"></path><path d="M66.2646 23.8761C66.017 24.733 66.5109 25.6282 67.3678 25.8758L72.6543 27.403C73.5111 27.6505 74.4064 27.1566 74.654 26.2997C74.9015 25.4429 74.4076 24.5476 73.5507 24.3001L68.2642 22.7729C67.4073 22.5253 66.5121 23.0192 66.2646 23.8761Z" fill="#FFD00D"></path><path d="M73.1015 28.0603C72.8991 28.0603 72.6935 28.0321 72.4896 27.9734L67.203 26.4463C66.0331 26.1081 65.3563 24.8811 65.6941 23.7115C66.0322 22.5417 67.259 21.8658 68.4288 22.2024L73.7155 23.7297C74.2822 23.8936 74.7513 24.2679 75.0364 24.7846C75.3213 25.301 75.3881 25.8976 75.2244 26.4645C74.9452 27.4305 74.06 28.0603 73.1015 28.0603ZM66.835 24.0408C66.6788 24.5818 66.9919 25.1489 67.5328 25.3053L72.8192 26.8324C73.3597 26.9896 73.9274 26.6755 74.0837 26.1351C74.1592 25.8728 74.1285 25.5969 73.9966 25.3583C73.8649 25.1194 73.6481 24.9462 73.386 24.8706L68.0994 23.3432C67.5586 23.1868 66.9911 23.4999 66.835 24.0408Z" fill="black"></path><path d="M86.1652 50.8131C85.9176 51.6699 86.4116 52.5652 87.2685 52.8127L92.5549 54.3399C93.4118 54.5875 94.307 54.0936 94.5546 53.2367C94.8021 52.3798 94.3082 51.4846 93.4513 51.237L88.1648 49.7098C87.308 49.4623 86.4127 49.9562 86.1652 50.8131Z" fill="#0DF4FF"></path><path d="M93.0021 54.9972C92.7996 54.9972 92.5943 54.969 92.3903 54.9103L87.1036 53.3832C85.9337 53.045 85.257 51.818 85.5947 50.6484C85.9329 49.4785 87.1599 48.8027 88.3295 49.1392L93.6161 50.6663C94.7861 51.0045 95.4629 52.2315 95.1249 53.4011C94.8459 54.3671 93.9607 54.9972 93.0021 54.9972ZM86.7356 50.9778C86.5794 51.5187 86.8924 52.0859 87.4334 52.2423L92.7197 53.7694C93.261 53.9263 93.828 53.6124 93.9841 53.0717C94.1405 52.5308 93.8274 51.9637 93.2864 51.8072L87.9999 50.2801C87.46 50.124 86.8919 50.4368 86.7356 50.9778Z" fill="black"></path><path d="M96.5768 77.4116C97.1823 78.0664 98.204 78.1063 98.8588 77.5008L102.899 73.7647C103.554 73.1592 103.593 72.1375 102.988 71.4827C102.382 70.8278 101.361 70.7879 100.706 71.3935L96.666 75.1295C96.0111 75.7352 95.9712 76.7569 96.5768 77.4116Z" fill="#FFD52B"></path><path d="M97.7634 78.5227C97.1687 78.5227 96.5756 78.2846 96.141 77.8146C95.3141 76.9209 95.3689 75.5207 96.2629 74.6937L100.303 70.9578C100.736 70.557 101.298 70.3488 101.889 70.3722C102.478 70.3954 103.023 70.6464 103.424 71.0797C104.251 71.9737 104.196 73.3737 103.302 74.2007L99.2621 77.9368C98.838 78.329 98.3001 78.5227 97.7634 78.5227ZM101.801 71.5581C101.544 71.5581 101.299 71.6535 101.109 71.8295L97.0692 75.5654C96.6558 75.9477 96.6305 76.5951 97.0126 77.0086C97.3952 77.4221 98.0425 77.4475 98.4559 77.0651L102.496 73.329C102.909 72.9467 102.934 72.2993 102.552 71.8858C102.367 71.6855 102.115 71.5694 101.842 71.5586C101.829 71.5584 101.815 71.5581 101.801 71.5581Z" fill="black"></path><path d="M85.7509 39.3715C85.8774 40.2544 86.6956 40.8675 87.5785 40.7411L93.0255 39.9608C93.9084 39.8343 94.5216 39.0162 94.3951 38.1333C94.2686 37.2504 93.4504 36.6372 92.5675 36.7637L87.1205 37.544C86.2376 37.6704 85.6245 38.4886 85.7509 39.3715Z" fill="#FFD52B"></path><path d="M87.3445 41.3514C86.8705 41.3514 86.4111 41.1994 86.0249 40.9098C85.5528 40.5561 85.2467 40.0395 85.1631 39.4555C84.9904 38.2503 85.8306 37.129 87.0361 36.9561L92.4833 36.1759C93.067 36.0932 93.6488 36.2407 94.1209 36.595C94.593 36.9486 94.8992 37.4653 94.9828 38.0492C95.1553 39.2544 94.3151 40.3758 93.1098 40.5487L87.6626 41.3288C87.5564 41.344 87.45 41.3514 87.3445 41.3514ZM92.7988 37.3409C92.7501 37.3409 92.701 37.3444 92.6517 37.3516L87.2045 38.1317C86.6472 38.2114 86.2587 38.73 86.3385 39.2872C86.3772 39.5573 86.5187 39.7962 86.7369 39.9597C86.9553 40.1233 87.2244 40.1923 87.4941 40.1531L92.9413 39.373C93.4985 39.2933 93.8871 38.7747 93.8074 38.2175C93.7686 37.9474 93.6271 37.7085 93.4089 37.545C93.2303 37.4112 93.0179 37.3409 92.7988 37.3409Z" fill="black"></path><path d="M50.3779 70.2779C50.9979 70.919 52.0203 70.9361 52.6614 70.3161L56.6169 66.4908C57.258 65.8708 57.2751 64.8484 56.6551 64.2073C56.035 63.5661 55.0127 63.5491 54.3716 64.1691L50.4161 67.9944C49.775 68.6144 49.7578 69.6367 50.3779 70.2779Z" fill="#FFD52B"></path><path d="M51.5396 71.364C51.5269 71.364 51.5144 71.3638 51.5017 71.3638C50.9119 71.3538 50.3612 71.115 49.951 70.6907H49.9509C49.1044 69.8152 49.1279 68.4141 50.0033 67.5678L53.9587 63.7423C54.3827 63.3324 54.9369 63.1021 55.531 63.1217C56.121 63.1314 56.6716 63.3705 57.0819 63.7948C57.9283 64.67 57.9049 66.0711 57.0296 66.9176L53.0739 70.7428C52.659 71.1442 52.1155 71.364 51.5396 71.364ZM50.8047 69.8654C51.1961 70.2698 51.8438 70.2808 52.2485 69.8894L56.2042 66.0642C56.6088 65.6727 56.6196 65.0248 56.2283 64.6201C56.0385 64.4239 55.7839 64.3133 55.5112 64.3089C55.2352 64.2971 54.9803 64.4057 54.7844 64.5958L50.8288 68.4213C50.4239 68.8127 50.4132 69.4604 50.8047 69.8654Z" fill="black"></path><path d="M37.1501 19.5382C37.8807 19.0265 38.0582 18.0197 37.5467 17.289L34.3905 12.7815C33.8789 12.051 32.872 11.8734 32.1414 12.385C31.4108 12.8966 31.2333 13.9035 31.7448 14.6341L34.901 19.1416C35.4126 19.8721 36.4195 20.0497 37.1501 19.5382Z" fill="#FFD52B"></path><path d="M36.2284 20.4244C36.0996 20.4244 35.9698 20.4134 35.8403 20.3904C35.2592 20.2878 34.753 19.9654 34.4146 19.4824L31.2584 14.9744C30.9201 14.4914 30.7901 13.9052 30.8925 13.3243C30.995 12.7434 31.3175 12.2369 31.8008 11.8987C32.2839 11.5606 32.8703 11.4301 33.451 11.5327C34.0321 11.6353 34.5383 11.9578 34.8768 12.4408L38.0329 16.9487C38.3713 17.4317 38.5013 18.0179 38.3988 18.5988C38.2963 19.1798 37.9739 19.6862 37.4906 20.0244C37.115 20.2873 36.6775 20.4244 36.2284 20.4244ZM33.0656 12.6863C32.8578 12.6863 32.6555 12.7498 32.482 12.8714C32.2584 13.0278 32.1093 13.262 32.062 13.5304C32.0146 13.7991 32.0747 14.0702 32.2311 14.2934L35.3872 18.8013C35.5436 19.0245 35.7778 19.1737 36.0464 19.2209C36.3152 19.2691 36.586 19.2082 36.8094 19.0518C36.8095 19.0518 36.8095 19.0518 36.8095 19.0518C37.033 18.8954 37.1821 18.6612 37.2294 18.3928C37.2769 18.1241 37.2167 17.853 37.0603 17.6298L33.9042 13.1219C33.7477 12.8987 33.5136 12.7495 33.2451 12.7023C33.185 12.6916 33.125 12.6863 33.0656 12.6863Z" fill="black"></path></svg> 