<?xml version="1.0" encoding="UTF-8"?> <svg xmlns="http://www.w3.org/2000/svg" width="163" height="534" viewBox="0 0 163 534" fill="none"><g clip-path="url(#clip0_5_721)"><path fill-rule="evenodd" clip-rule="evenodd" d="M89.4337 398.796C86.0177 414.361 79.1241 428.11 68.7522 440.046C52.7314 455.346 34.6817 458.234 14.604 448.713C13.0264 447.875 11.5819 446.865 10.271 445.684C10.4166 456.779 10.1137 467.87 9.36251 478.956C9.13566 480.446 8.69265 481.859 8.03399 483.193C6.99235 484.071 5.95075 484.948 4.90911 485.826C3.24893 494.393 0.765813 502.72 -2.54113 510.806C-3.12243 514.783 -3.54345 518.773 -3.80561 522.781C-5.40486 522.645 -7.00463 522.508 -8.60391 522.372C-7.89723 513.215 -5.85266 504.369 -2.47021 495.829C-1.54695 493.406 -0.92816 490.88 -0.614934 488.254C-22.3354 494.259 -44.4792 497.926 -67.0458 499.255C-103.552 501.015 -139.741 498.408 -175.61 491.432C-197.689 487.029 -218.636 479.52 -238.453 468.907C-238.839 480.163 -238.676 491.454 -237.963 502.782C-239.722 502.631 -241.481 502.481 -243.241 502.331C-243.176 490.239 -243.271 478.147 -243.526 466.057C-245.786 464.344 -247.621 462.254 -249.032 459.787C-248.307 442.784 -245.127 426.3 -239.492 410.335C-263.102 423.614 -283.571 419.932 -300.898 399.29C-310.527 384.829 -316.173 368.88 -317.836 351.444C-318.992 338.081 -319.058 324.703 -318.033 311.31C-323.446 301.981 -328.091 292.239 -331.971 282.087C-338.248 262.856 -334.387 245.947 -320.388 231.36C-316.118 227.387 -311.552 223.91 -306.689 220.93C-306.154 220.948 -305.661 220.829 -305.208 220.573C-302.767 196.696 -300.478 172.725 -298.341 148.66C-297.583 146.927 -296.281 145.83 -294.435 145.369C-268.017 147.303 -241.627 149.557 -215.263 152.131C-213.815 153.235 -212.637 154.544 -211.732 156.057C-214.15 184.367 -216.568 212.677 -218.986 240.987C-220.148 243.671 -222.211 245.187 -225.174 245.534C-234.95 244.94 -244.713 244.187 -254.464 243.274C-253.942 251.831 -251.986 260.053 -248.596 267.941C-245.835 280.477 -248.032 292.05 -255.187 302.662C-253.619 309.709 -251.714 316.638 -249.471 323.45C-233.195 300.384 -212.555 282.25 -187.549 269.047C-180.255 265.838 -172.778 263.174 -165.117 261.055C-162.427 252.657 -157.36 246.162 -149.919 241.57C-157.446 237.948 -159.314 232.471 -155.524 225.141C-154.294 224.03 -152.999 223.013 -151.639 222.09C-152.618 218.741 -152.971 215.327 -152.698 211.849C-161.637 210.938 -170.13 208.521 -178.178 204.598C-181.788 201.548 -182.52 197.86 -180.375 193.535C-177.743 191.021 -175.112 188.507 -172.481 185.993C-171.223 184.279 -170.026 182.528 -168.89 180.741C-172.659 174.639 -174.265 167.977 -173.708 160.755C-181.756 156.832 -186.035 150.344 -186.546 141.292C-186.936 136.452 -186.846 131.626 -186.276 126.815C-184.636 121.203 -180.911 118.138 -175.099 117.62C-174.601 113.847 -173.647 110.223 -172.237 106.748C-170.971 104.864 -169.315 103.394 -167.269 102.339C-166.101 86.0753 -160.512 71.5694 -150.502 58.821C-147.118 55.0053 -143.365 51.6202 -139.243 48.6661C-136.261 46.8249 -133.212 45.0715 -130.094 43.4059C-100.786 30.9591 -72.6216 33.2035 -45.6029 50.139C-24.8708 65.6267 -14.3223 86.4249 -13.9572 112.533C-14.3103 124.171 -15.8534 135.639 -18.5874 146.938C-11.9161 147.606 -7.12378 150.916 -4.21045 156.866C-1.42916 170.846 -5.18657 182.769 -15.4822 192.636C-20.4741 196.603 -26.1174 198.538 -32.4112 198.44C-34.6666 208.35 -36.247 218.365 -37.1524 228.485C-29.9274 231.867 -25.66 237.548 -24.3498 245.528C-23.6135 250.743 -22.6844 255.897 -21.5622 260.991C-8.06793 268.232 4.76621 276.417 16.9403 285.546C24.2216 291.545 30.3063 298.59 35.1934 306.68C36.8535 302.188 38.6023 297.746 40.44 293.353C37.775 291.977 35.1656 290.465 32.6107 288.818C12.9561 274.071 4.88448 254.452 8.39649 229.959C13.5763 207.199 27.1849 192.17 49.2223 184.871C74.1755 179.492 94.7507 186.646 110.947 206.334C122.142 224.49 123.509 243.376 115.049 262.993C117.639 265.716 119.879 268.727 121.77 272.025C129.955 289.24 128.852 305.901 118.467 322.009C112.003 331.613 104.493 340.316 95.9371 348.118C95.2627 365.199 93.0949 382.091 89.4337 398.796Z" fill="#050302"></path><path fill-rule="evenodd" clip-rule="evenodd" d="M42.5966 285.079C40.578 284.347 38.7338 283.304 37.0641 281.949C31.4858 276.383 25.9182 270.832 20.3614 265.297C17.4539 256.897 15.2852 248.334 13.8556 239.608C13.7814 236.702 14.0273 233.823 14.5933 230.971C17.9354 222.891 21.6709 214.994 25.8002 207.279C28.9797 204.006 32.1592 200.733 35.3387 197.46C35.6093 197.025 35.73 196.552 35.7016 196.041C37.9265 194.466 40.282 193.298 42.7676 192.536C40.4254 198.37 36.2316 202.2 30.1861 204.028C28.7041 205.128 27.3884 206.385 26.239 207.799C25.0919 211.751 23.7907 215.668 22.3355 219.549C15.2242 225.887 13.4491 233.468 17.0095 242.294C19.2268 245.279 21.0463 248.496 22.4686 251.944C22.3551 255.156 22.2422 258.369 22.1288 261.581C22.1464 265.811 24.0666 268.795 27.8893 270.532C30.0549 271.229 32.267 271.74 34.5249 272.065C35.7373 272.595 36.7156 273.404 37.4594 274.491C38.4217 276.749 39.1901 279.07 39.7646 281.454C40.4603 282.895 41.4045 284.103 42.5966 285.079Z" fill="#CA8F12"></path><path fill-rule="evenodd" clip-rule="evenodd" d="M35.7016 196.041C35.73 196.552 35.6093 197.025 35.3387 197.46C32.1592 200.733 28.9797 204.006 25.8002 207.279C21.6709 214.994 17.9354 222.891 14.5933 230.971C14.0273 233.823 13.7814 236.702 13.8556 239.608C15.2852 248.335 17.4539 256.897 20.3614 265.297C25.9182 270.832 31.4858 276.383 37.0641 281.949C38.7338 283.304 40.578 284.347 42.5966 285.079C45.3351 286.155 48.1731 286.881 51.1106 287.257C51.0461 288.691 51.25 290.078 51.7219 291.417C43.2409 290.359 35.7958 286.985 29.3868 281.293C10.1811 261.838 6.35436 239.681 17.906 214.821C22.2761 207.059 28.2082 200.799 35.7016 196.041Z" fill="#9D6E15"></path><path fill-rule="evenodd" clip-rule="evenodd" d="M103.115 261.248C102.766 261.155 102.439 261.208 102.135 261.406C105.636 262.37 108.712 264.082 111.363 266.545C113.811 269.361 116.145 272.219 118.364 275.117C121.159 279.634 122.749 284.603 123.132 290.025C123.324 299.461 121.119 308.295 116.519 316.526C108.537 330.126 98.3545 341.823 85.9717 351.617C85.7193 352.127 85.9319 352.468 86.6094 352.638C88.3968 352.021 90.078 351.198 91.6537 350.169C90.7064 358.227 90.0233 366.224 89.6045 374.161C87.6943 390.04 83.5703 405.316 77.2321 419.987C71.2628 433.327 61.5184 442.726 47.9991 448.182C44.8151 449.221 41.5546 449.668 38.2181 449.521C26.2229 447.528 17.6781 440.998 12.5831 429.932C10.1269 421.793 10.4899 413.769 13.6726 405.858C15.4517 401.988 17.2327 398.112 19.0156 394.231C27.9527 378.519 36.8636 362.847 45.7479 347.215C47.6777 348.495 49.7158 349.153 51.8627 349.187C51.6277 346.903 51.1789 344.609 50.5172 342.306C49.5662 331.8 53.8275 324.35 63.301 319.956C64.7523 319.839 66.1986 319.882 67.64 320.085C68.225 320.779 68.8651 320.834 69.5593 320.249C70.4933 320.444 71.387 320.359 72.2394 319.994C72.737 317.943 72.9146 315.863 72.7721 313.757C71.4139 309.174 69.5297 304.825 67.1201 300.707C64.5143 297.262 61.9085 293.818 59.3028 290.373C58.0676 287.394 57.7672 284.307 58.402 281.113C59.6556 280.079 61.1361 279.722 62.8435 280.042C64.2811 280.108 65.533 280.537 66.6002 281.33C78.0007 289.227 85.8571 300.048 90.169 313.792C92.5346 316.115 93.7087 315.571 93.6917 312.16C93.5271 312.899 93.2326 313.518 92.808 314.018C93.1528 310.683 92.7864 307.43 91.7084 304.257C89.9388 292.38 83.6644 283.789 72.8849 278.483C72.6379 278.749 72.5305 279.062 72.563 279.422C70.8622 277.203 71.1927 275.218 73.5551 273.465C77.513 271.899 81.3722 271.987 85.1325 273.729C91.8612 277.196 97.4629 282.346 101.938 289.181C103.725 292.75 105.292 296.107 106.636 299.249C107.76 301.866 108.247 304.647 108.099 307.591C108.665 309.327 109.611 309.569 110.937 308.316C111.449 305.769 111.587 303.203 111.352 300.618C111.412 293.163 109.346 286.22 105.156 279.789C102.304 276.533 99.3505 273.38 96.2976 270.333C95.0259 268.494 94.1501 266.486 93.6705 264.308C94.3001 262.511 95.5361 261.247 97.3776 260.517C99.4209 260.299 101.333 260.543 103.115 261.248Z" fill="#FEC51D"></path><path fill-rule="evenodd" clip-rule="evenodd" d="M78.3979 262.037C77.6695 261.98 77.0823 262.252 76.6365 262.853C75.3497 264.751 74.2926 266.755 73.4647 268.866C70.1713 270.806 68.1522 273.695 67.4079 277.532C60.3445 274.396 55.1151 276.205 51.7195 282.958C51.2 283.319 50.6264 283.431 49.9991 283.295C48.762 283.082 48.7825 282.842 50.0605 282.575C46.1932 281.31 44.9655 278.708 46.3773 274.769C47.6155 274.193 48.3438 273.208 48.563 271.814C48.4135 269.02 47.499 266.525 45.8189 264.33C44.6034 263.854 43.397 263.832 42.1997 264.262C41.6498 266.694 41.6848 269.113 42.3047 271.521C42.318 271.734 42.2246 271.887 42.0238 271.98C38.637 268.36 34.5963 265.679 29.9026 263.937C27.5674 260.974 26.4881 257.579 26.6642 253.752C26.7229 251.179 26.7813 248.606 26.8401 246.034C25.112 243.63 23.3839 241.228 21.6559 238.824C20.1183 236.562 19.6831 234.108 20.3513 231.463C21.9068 228.926 23.1788 226.296 24.1669 223.572C26.2901 219.962 27.5112 216.038 27.8305 211.802C28.2788 210.656 28.8543 209.577 29.5569 208.566C33.7174 206.139 37.8019 203.588 41.8105 200.913C43.3742 198.054 44.7532 195.111 45.948 192.083C47.1735 190.308 48.8088 189.079 50.8547 188.393C71.4629 184.303 89.2088 189.685 104.092 204.54C117.343 221.434 119.958 239.863 111.936 259.827C109.284 258.521 106.473 257.475 103.504 256.69C95.6512 255.146 91.0322 258.296 89.6474 266.14C89.6826 267.85 89.6193 269.536 89.457 271.198C87.3551 269.964 85.0766 269.286 82.6224 269.165C82.8422 267.73 83.1249 266.304 83.4711 264.887C83.7257 261.929 82.4023 260.446 79.501 260.44C78.8327 260.777 78.4653 261.31 78.3979 262.037Z" fill="#E67E91"></path><path fill-rule="evenodd" clip-rule="evenodd" d="M38.391 249.437C40.8486 249.212 42.7065 250.096 43.9645 252.088C42.1064 254.145 39.7509 255.313 36.8986 255.593C34.6648 254.85 34.068 253.349 35.1082 251.09C36.1457 250.334 37.2402 249.783 38.391 249.437Z" fill="#0F0D12"></path><path fill-rule="evenodd" clip-rule="evenodd" d="M39.9824 253.439C39.0698 253.956 38.0828 254.194 37.0215 254.153C37.9762 252.431 39.3106 251.901 41.0241 252.562C40.6396 252.859 40.2927 253.151 39.9824 253.439Z" fill="#D9EAF1"></path><path fill-rule="evenodd" clip-rule="evenodd" d="M39.9824 253.44C40.2927 253.151 40.6396 252.859 41.0241 252.562C39.3106 251.901 37.9762 252.431 37.0215 254.153C34.6287 252.318 35.0507 251.146 38.2885 250.637C39.9642 250.348 41.4633 250.718 42.7854 251.746C43.0426 252.226 42.9288 252.619 42.4431 252.925C41.67 253.346 40.8496 253.518 39.9824 253.44Z" fill="#5383AE"></path><path fill-rule="evenodd" clip-rule="evenodd" d="M96.4333 243.278C99.8337 244.222 102.656 246.074 104.9 248.834C105.227 250.083 104.898 251.102 103.914 251.892C100.709 251.955 97.8985 250.909 95.4822 248.755C93.0561 246.415 93.3735 244.589 96.4333 243.278Z" fill="#0F0B0E"></path><path fill-rule="evenodd" clip-rule="evenodd" d="M98.6686 245.402C100.334 246.206 101.945 247.149 103.502 248.232C104.41 249.363 104.247 250.316 103.016 251.09C102.137 250.386 101.218 249.824 100.26 249.405C100.958 249.591 101.612 249.486 102.22 249.089C102.154 248.922 102.088 248.755 102.021 248.588C100.53 247.891 99.4123 246.829 98.6686 245.402Z" fill="#3E84AF"></path><path fill-rule="evenodd" clip-rule="evenodd" d="M98.1888 245.361C98.3486 245.375 98.5088 245.389 98.6686 245.402C99.4124 246.829 100.53 247.891 102.021 248.589C102.088 248.755 102.154 248.922 102.22 249.089C101.612 249.486 100.959 249.591 100.26 249.405C99.777 249.447 99.4711 249.259 99.3414 248.843C98.656 247.677 97.7783 246.636 96.7083 245.718C97.1405 245.327 97.6339 245.208 98.1888 245.361Z" fill="#BEE7ED"></path><path fill-rule="evenodd" clip-rule="evenodd" d="M98.1887 245.361C97.6339 245.208 97.1404 245.327 96.7083 245.718C97.7783 246.635 98.656 247.677 99.3413 248.843C97.5448 248.124 96.2009 246.882 95.3097 245.115C96.3877 244.582 97.3473 244.664 98.1887 245.361Z" fill="#41A0C8"></path><path fill-rule="evenodd" clip-rule="evenodd" d="M36.2207 235.235C37.4009 236.322 37.3121 237.362 35.9543 238.354C32.2778 238.261 29.2613 236.795 26.9049 233.956C26.7443 231.123 28.0463 230.026 30.811 230.665C33.1512 231.663 34.9543 233.186 36.2207 235.235Z" fill="#160807"></path><path fill-rule="evenodd" clip-rule="evenodd" d="M36.2207 235.235C36.166 235.875 36.1114 236.515 36.0567 237.154C33.1568 236.979 30.673 235.881 28.6049 233.86C27.9564 232.608 28.3379 231.915 29.7489 231.782C31.793 233.203 33.9504 234.353 36.2207 235.235Z" fill="#DB3839"></path><path fill-rule="evenodd" clip-rule="evenodd" d="M29.667 232.742C31.2117 233.183 32.4231 234.092 33.3007 235.469C33.1273 235.615 32.9533 235.762 32.7799 235.908C31.9571 235.152 31.0453 234.51 30.0444 233.983C29.711 233.63 29.5849 233.216 29.667 232.742Z" fill="#F7E0E4"></path><path fill-rule="evenodd" clip-rule="evenodd" d="M105.48 239.217C105.494 239.058 105.507 238.897 105.521 238.737C105.314 236.827 105.238 234.888 105.293 232.918C105.132 232.636 104.906 232.455 104.614 232.377C104.655 231.897 104.696 231.417 104.737 230.937C106.163 230.489 107.523 230.605 108.816 231.286C109.45 234.73 108.338 237.374 105.48 239.217Z" fill="#5776A3"></path><path fill-rule="evenodd" clip-rule="evenodd" d="M104.614 232.377C104.906 232.455 105.132 232.635 105.293 232.918C105.237 234.888 105.313 236.827 105.521 238.737C104.881 238.683 104.241 238.628 103.602 238.573C103.984 236.516 104.322 234.45 104.614 232.377Z" fill="#0F0B11"></path><path fill-rule="evenodd" clip-rule="evenodd" d="M105.48 239.217C108.338 237.374 109.45 234.73 108.816 231.285C107.523 230.605 106.163 230.489 104.737 230.937C106.44 229.2 108.119 229.343 109.776 231.367C110.281 234.467 109.556 237.305 107.598 239.881C106.621 240.482 105.915 240.261 105.48 239.217Z" fill="#0E080B"></path><path d="M73.1513 255.102L73.1458 255.104C68.6247 256.369 64.5639 256.414 60.9163 255.324C57.2985 254.244 53.9762 252.015 50.9565 248.543C47.9704 243.795 47.2312 238.734 48.7346 233.252C49.7442 230.455 51.0895 227.862 52.771 225.468C56.7535 221.862 60.6727 220.109 64.5437 219.975C68.4127 219.841 72.4716 221.317 76.7514 224.634C79.0641 227.564 81.6142 230.247 84.4018 232.681C86.1441 235.796 86.7709 239.113 86.288 242.682C84.1673 249.155 79.8363 253.259 73.1513 255.102Z" fill="#212E2D" stroke="black" stroke-width="3"></path><path fill-rule="evenodd" clip-rule="evenodd" d="M77.5441 249.398C79.0821 249.21 79.8838 248.312 79.9492 246.703C81.5631 236.675 77.9327 229.195 69.0574 224.265C65.6847 223.53 62.3122 223.403 58.94 223.884C59.3681 224.055 59.6672 224.322 59.8382 224.686C58.1403 225.172 56.4927 225.596 54.8965 225.955C57.037 224.152 59.413 222.744 62.0239 221.731C64.7704 221.643 67.4892 221.875 70.181 222.427C74.91 225.222 79.0417 228.717 82.5772 232.911C86.4405 240.583 84.6418 246.552 77.1812 250.817C76.9998 250.281 77.1209 249.808 77.5441 249.398Z" fill="#C98E13"></path><path fill-rule="evenodd" clip-rule="evenodd" d="M77.544 249.398C81.2463 239.178 78.3762 231.28 68.9344 225.704C65.9908 224.568 62.9589 224.229 59.8382 224.686C59.6672 224.322 59.3681 224.055 58.94 223.884C62.3122 223.403 65.6846 223.53 69.0574 224.265C77.9326 229.195 81.563 236.675 79.9492 246.703C79.8838 248.312 79.0821 249.21 77.544 249.398Z" fill="#A47215"></path><path fill-rule="evenodd" clip-rule="evenodd" d="M87.7554 243.02C88.3291 238.991 87.6035 235.223 85.5791 231.718C82.7424 229.262 80.1553 226.544 77.8173 223.563C68.7756 216.478 60.0499 216.78 51.6401 224.469C55.85 216.998 62.2218 214.078 70.7547 215.71C75.0011 216.765 78.8765 218.546 82.3817 221.053C87.4963 227.65 89.2876 234.973 87.7554 243.02Z" fill="#B1597B"></path><path fill-rule="evenodd" clip-rule="evenodd" d="M39.2705 210.846C41.3827 211.144 42.6464 212.38 43.0621 214.553C43.537 217.137 43.4781 219.71 42.8862 222.271C41.0174 223.4 39.2583 223.25 37.6081 221.82C37.7173 218.884 37.883 215.998 38.1059 213.163C38.3725 212.316 38.7609 211.543 39.2705 210.846Z" fill="#120B0E"></path><path fill-rule="evenodd" clip-rule="evenodd" d="M39.1475 212.285C40.2269 212.222 41.0796 212.617 41.7046 213.47C42.6071 216.152 42.6216 218.811 41.7482 221.449C40.6194 221.593 39.4931 221.577 38.3689 221.402C39.2289 218.411 39.4885 215.373 39.1475 212.285Z" fill="#5073A1"></path><path fill-rule="evenodd" clip-rule="evenodd" d="M39.8612 215.246C40.4578 215.334 40.8302 215.688 40.9788 216.308C41.2813 217.339 41.1192 218.292 40.493 219.167C39.9746 217.908 39.7643 216.601 39.8612 215.246Z" fill="#E6F4F8"></path><path fill-rule="evenodd" clip-rule="evenodd" d="M98.3834 209.128C100.166 208.884 101.231 209.619 101.578 211.334C100.221 213.887 98.4232 216.07 96.1857 217.882C94.7508 218.463 93.2977 218.5 91.8263 217.993C90.728 216.795 90.7503 215.589 91.8937 214.374C94.1346 212.68 96.298 210.931 98.3834 209.128Z" fill="#0E080B"></path><path fill-rule="evenodd" clip-rule="evenodd" d="M98.9742 213.528C98.0787 214.58 97.0371 215.457 95.8494 216.161C95.7481 214.422 96.6572 213.211 98.5764 212.528C98.9405 212.78 99.073 213.113 98.9742 213.528Z" fill="#DBECF1"></path><path fill-rule="evenodd" clip-rule="evenodd" d="M98.9743 213.528C99.073 213.113 98.9406 212.78 98.5764 212.528C96.6572 213.211 95.7481 214.421 95.8494 216.161C94.8325 217.366 93.5118 217.737 91.8878 217.273C93.2313 214.428 95.3487 212.273 98.24 210.807C99.1848 210.514 99.971 210.742 100.598 211.492C100.099 212.248 99.5578 212.927 98.9743 213.528Z" fill="#4E75A4"></path><path fill-rule="evenodd" clip-rule="evenodd" d="M73.7192 203.638C75.4169 203.709 76.7221 204.464 77.6338 205.906C78.7299 207.689 79.6991 209.545 80.5418 211.471C80.8526 212.347 80.7042 213.14 80.097 213.849C78.5088 214.342 76.9896 214.212 75.5386 213.46C74.6063 211.473 73.4769 209.604 72.1508 207.854C71.7835 206.083 72.3061 204.677 73.7192 203.638Z" fill="#180D08"></path><path fill-rule="evenodd" clip-rule="evenodd" d="M75.5445 210.561C76.0902 210.244 76.2113 209.771 75.9074 209.142C75.4686 208.621 75.0297 208.1 74.5909 207.579C74.3901 207.672 74.2967 207.826 74.31 208.038C73.6667 207.76 73.3877 207.253 73.4733 206.517C74.1322 204.925 75.1123 204.767 76.4137 206.043C77.7726 208.1 78.8742 210.289 79.7196 212.609C77.2943 214.283 75.9027 213.6 75.5445 210.561Z" fill="#D1840C"></path><path fill-rule="evenodd" clip-rule="evenodd" d="M75.5445 210.561C74.9349 209.832 74.5234 208.991 74.31 208.038C74.2967 207.826 74.3901 207.672 74.5909 207.579C75.0297 208.1 75.4685 208.621 75.9074 209.142C76.2113 209.771 76.0902 210.244 75.5445 210.561Z" fill="#F0E7DE"></path><path fill-rule="evenodd" clip-rule="evenodd" d="M96.0782 202.164C96.5891 202.136 97.0622 202.257 97.4972 202.527C99.6915 205.131 101.886 207.735 104.08 210.34C103.573 210.619 103.093 210.578 102.64 210.217C100.244 208.284 98.0956 206.086 96.1952 203.624C96.0023 203.15 95.9636 202.663 96.0782 202.164Z" fill="#F9E1E3"></path><path fill-rule="evenodd" clip-rule="evenodd" d="M54.6609 194.76C55.7985 194.779 56.9112 194.954 57.9992 195.287C58.5385 195.769 58.8909 196.363 59.0553 197.069C59.5068 199.236 59.7225 201.429 59.7016 203.649C59.4379 206.573 57.9164 207.41 55.1373 206.159C54.7717 205.725 54.4057 205.291 54.0402 204.857C53.8882 201.424 54.095 198.058 54.6609 194.76Z" fill="#110E12"></path><path fill-rule="evenodd" clip-rule="evenodd" d="M56.8961 196.885C57.2254 197.115 57.438 197.455 57.5338 197.906C57.5825 200.16 57.4714 202.406 57.2 204.644C56.6362 204.019 56.3844 203.192 56.4452 202.163C56.2008 200.282 56.3511 198.523 56.8961 196.885Z" fill="#CAE8EF"></path><path fill-rule="evenodd" clip-rule="evenodd" d="M56.8962 196.884C56.3512 198.522 56.2009 200.282 56.4453 202.163C56.3845 203.192 56.6363 204.018 57.2001 204.644C56.5245 205.785 55.8048 205.724 55.0409 204.459C55.0185 201.716 55.0108 198.977 55.0178 196.241C55.796 196.178 56.422 196.393 56.8962 196.884Z" fill="#4083B1"></path><path fill-rule="evenodd" clip-rule="evenodd" d="M66.5046 191.905C70.2255 192.073 73.8839 192.627 77.4793 193.568C78.0084 193.733 78.4677 194.014 78.8573 194.41C78.1767 194.835 78.1357 195.315 78.7343 195.85C78.1607 195.962 77.5875 196.074 77.0139 196.186C73.8142 195.191 70.5897 194.271 67.3413 193.427C66.8391 193.014 66.5601 192.507 66.5046 191.905Z" fill="#F8DADD"></path><path fill-rule="evenodd" clip-rule="evenodd" d="M103.115 261.248C106.451 262.11 109.374 263.729 111.884 266.106C114.543 268.816 116.703 271.819 118.364 275.117C116.145 272.219 113.811 269.361 111.363 266.545C108.712 264.082 105.636 262.37 102.135 261.406C102.439 261.208 102.766 261.155 103.115 261.248Z" fill="#F9E024"></path><path fill-rule="evenodd" clip-rule="evenodd" d="M79.8783 261.681C82.7861 263.315 83.2413 265.529 81.2444 268.322C80.0976 268.547 78.9777 268.451 77.8856 268.035C78.4161 265.876 79.0803 263.758 79.8783 261.681Z" fill="#D03942"></path><path fill-rule="evenodd" clip-rule="evenodd" d="M79.5914 265.039C80.4008 265.794 80.6389 266.781 80.3052 268C79.8253 267.959 79.3455 267.918 78.8657 267.877C78.9585 266.887 79.2002 265.941 79.5914 265.039Z" fill="#FADEE2"></path><path fill-rule="evenodd" clip-rule="evenodd" d="M78.3978 262.037C77.5785 264.188 76.9075 266.386 76.3846 268.632C75.4113 268.71 74.4379 268.788 73.4646 268.866C74.2925 266.755 75.3497 264.751 76.6364 262.854C77.0822 262.252 77.6695 261.98 78.3978 262.037Z" fill="#955172"></path><path fill-rule="evenodd" clip-rule="evenodd" d="M60.3983 263.4C64.0272 264.231 67.0095 266.097 69.3451 268.997C69.5756 271.918 68.2873 272.855 65.48 271.809C63.4141 270.798 61.4169 269.661 59.4881 268.397C58.2654 266.387 58.5687 264.721 60.3983 263.4Z" fill="#110D11"></path><path fill-rule="evenodd" clip-rule="evenodd" d="M62.6334 265.524C63.5451 266.071 64.4638 266.633 65.3894 267.21C64.1277 267.727 63.0288 267.392 62.0921 266.203C62.3746 266.042 62.5548 265.816 62.6334 265.524Z" fill="#E8F4F7"></path><path fill-rule="evenodd" clip-rule="evenodd" d="M62.6334 265.524C62.5549 265.816 62.3746 266.042 62.0921 266.203C63.0288 267.392 64.1277 267.727 65.3895 267.21C66.7783 267.801 67.656 268.843 68.0225 270.334C67.7868 270.904 67.3598 271.19 66.741 271.192C64.3291 270.179 62.1053 268.861 60.0703 267.239C59.6845 266.289 59.6067 265.316 59.8364 264.319C60.9969 264.301 61.9292 264.703 62.6334 265.524Z" fill="#4D73A2"></path><path fill-rule="evenodd" clip-rule="evenodd" d="M46.3772 274.769C45.3979 274.764 44.4451 274.602 43.5187 274.283C43.0635 273.338 42.6588 272.417 42.3046 271.521C41.6847 269.113 41.6497 266.694 42.1996 264.262C43.3969 263.832 44.6033 263.854 45.8188 264.33C47.4989 266.525 48.4134 269.02 48.5629 271.814C48.3438 273.209 47.6154 274.193 46.3772 274.769Z" fill="#140809"></path><path fill-rule="evenodd" clip-rule="evenodd" d="M45.1836 271.767C45.5001 271.593 45.6872 271.286 45.7454 270.848C45.2432 269.587 45.0324 268.279 45.1136 266.928C44.3168 266.756 43.8096 267.035 43.5921 267.764C43.0527 267.578 42.7668 267.151 42.7349 266.483C43.328 264.304 44.4019 263.993 45.9563 265.55C46.4174 267.355 46.8271 269.162 47.1849 270.971C46.9532 272.92 46.2862 273.186 45.1836 271.767Z" fill="#D25865"></path><path fill-rule="evenodd" clip-rule="evenodd" d="M24.1668 223.572C23.1787 226.296 21.9067 228.926 20.3512 231.463C19.683 234.108 20.1182 236.562 21.6558 238.824C23.3838 241.228 25.1119 243.631 26.84 246.034C26.7812 248.606 26.7229 251.18 26.6641 253.752C26.488 257.579 27.5674 260.974 29.9025 263.937C34.5962 265.679 38.6369 268.36 42.0238 271.981C42.2246 271.888 42.3179 271.734 42.3047 271.521C42.6588 272.417 43.0635 273.338 43.5187 274.283C44.4452 274.602 45.398 274.764 46.3772 274.769C44.9654 278.708 46.1931 281.31 50.0605 282.575C48.7824 282.843 48.7619 283.083 49.999 283.295C47.019 283.864 44.6081 282.852 42.7665 280.261C41.4451 272.332 36.7416 267.984 28.656 267.214C26.281 266.012 25.0788 264.057 25.0487 261.347C26.7797 254.056 25.2329 247.641 20.4093 242.101C16.2547 234.743 17.5072 228.567 24.1668 223.572Z" fill="#B35B7C"></path><path fill-rule="evenodd" clip-rule="evenodd" d="M45.1837 271.767C44.5597 270.488 44.0293 269.154 43.5922 267.764C43.8097 267.035 44.3168 266.756 45.1137 266.928C45.0325 268.279 45.2433 269.586 45.7455 270.848C45.6873 271.286 45.5002 271.592 45.1837 271.767Z" fill="#F5E4E5"></path><path fill-rule="evenodd" clip-rule="evenodd" d="M93.6705 264.309C94.15 266.486 95.0259 268.494 96.2976 270.333C99.3505 273.381 102.304 276.533 105.156 279.789C109.346 286.22 111.412 293.163 111.352 300.619C108.699 290.161 103.238 281.478 94.9691 274.569C94.0819 272.337 93.4732 270.03 93.1437 267.647C92.8658 266.396 93.0415 265.283 93.6705 264.309Z" fill="#C38F0C"></path><path fill-rule="evenodd" clip-rule="evenodd" d="M85.1326 273.729C96.2779 278.853 103.446 287.36 106.636 299.249C105.292 296.107 103.725 292.751 101.938 289.181C97.4629 282.347 91.8612 277.196 85.1326 273.729Z" fill="#F4D820"></path><path fill-rule="evenodd" clip-rule="evenodd" d="M91.7084 304.257C86.9663 294.752 80.5843 286.474 72.563 279.422C72.5305 279.062 72.6379 278.749 72.8849 278.483C83.6644 283.788 89.9388 292.38 91.7084 304.257Z" fill="#C28F0C"></path><path fill-rule="evenodd" clip-rule="evenodd" d="M66.6001 281.33C75.6955 286.749 82.5455 294.262 87.1499 303.868C88.7408 307.091 90.0668 310.427 91.1286 313.874C91.6956 314.547 92.2551 314.595 92.808 314.018C93.2325 313.518 93.5271 312.899 93.6917 312.16C93.7087 315.571 92.5346 316.115 90.1689 313.792C85.8571 300.048 78.0007 289.227 66.6001 281.33Z" fill="#F1D41F"></path><path fill-rule="evenodd" clip-rule="evenodd" d="M58.402 281.113C57.7671 284.307 58.0676 287.393 59.3027 290.373C61.9085 293.818 64.5143 297.262 67.12 300.707C69.5296 304.825 71.4138 309.174 72.7721 313.757C72.9145 315.863 72.7369 317.943 72.2393 319.994C71.3869 320.359 70.4933 320.444 69.5592 320.249C70.1486 319.217 70.3238 318.105 70.086 316.91C69.3258 313.831 68.292 310.843 66.9851 307.946C64.0591 303.062 60.749 298.429 57.0555 294.048C55.2319 290.806 54.7189 287.379 55.517 283.766C56.1841 282.525 57.1456 281.641 58.402 281.113Z" fill="#C3900B"></path><path fill-rule="evenodd" clip-rule="evenodd" d="M91.6536 350.169C91.5088 358.134 90.8258 366.131 89.6044 374.161C90.0232 366.224 90.7063 358.227 91.6536 350.169Z" fill="#FCE423"></path><path fill-rule="evenodd" clip-rule="evenodd" d="M67.6399 320.085C66.1986 319.882 64.7522 319.839 63.301 319.956C53.8275 324.35 49.5662 331.8 50.5171 342.306C51.1788 344.609 51.6277 346.903 51.8627 349.187C49.7158 349.153 47.6777 348.495 45.7479 347.215C36.8636 362.847 27.9527 378.519 19.0156 394.231C17.2327 398.112 15.4516 401.988 13.6725 405.858C10.4899 413.769 10.1269 421.793 12.5831 429.932C17.678 440.998 26.2229 447.528 38.2181 449.521C28.7426 450.022 20.1025 447.432 12.2987 441.749C3.87205 435.448 -2.62368 427.563 -7.18901 418.093C-10.9292 410.162 -13.605 401.877 -15.2163 393.241C-15.4407 392.094 -15.3451 390.974 -14.9294 389.882C-12.3106 385.302 -8.98992 381.316 -4.96652 377.925C1.57941 374.046 8.52475 371.015 15.8686 368.829C13.3099 373.157 10.8347 377.618 8.44226 382.212C7.61243 384.277 6.87488 386.308 6.23008 388.306C5.87219 385.915 6.23005 383.609 7.30416 381.389C5.47863 378.99 3.47286 378.899 1.28579 381.117C-2.08607 385.799 -1.54806 389.872 2.90028 393.338C4.11709 391.836 4.98712 390.138 5.51033 388.245C5.4566 389.321 5.64184 389.981 6.06615 390.225C6.50726 390.482 6.88014 390.836 7.18376 391.287C14.3569 380.247 21.4321 369.09 28.4091 357.817C31.2544 352.476 33.9719 347.069 36.5611 341.597C37.0887 340.304 37.4447 338.965 37.6292 337.58C37.0593 333.913 36.4871 330.24 35.9122 326.558C35.8791 323.172 36.1659 319.813 36.7729 316.482C38.2815 311.239 40.0121 306.071 41.9639 300.975C42.6302 298.8 43.0613 296.581 43.2574 294.319C46.7052 295.172 50.1896 295.873 53.7113 296.42C56.9323 301.036 60.2492 305.589 63.6613 310.078C57.7614 313.195 52.6607 317.27 48.3588 322.305C45.053 326.949 44.2229 331.953 45.8683 337.317C46.8233 329.423 50.7559 322.992 57.666 318.025C60.1503 316.451 62.6929 314.976 65.2937 313.601C66.4606 315.626 67.2426 317.788 67.6399 320.085Z" fill="#C3900C"></path><path fill-rule="evenodd" clip-rule="evenodd" d="M23.3298 357.867C22.5129 359.616 21.5632 361.307 20.4799 362.94C17.3186 363.571 14.191 364.352 11.0967 365.28C5.56298 367.363 0.206061 369.725 -4.97507 372.366C-5.7212 371.64 -6.46645 370.932 -7.21029 370.241C1.99157 363.878 12.1714 359.754 23.3298 357.867Z" fill="#F9CC1E"></path><path fill-rule="evenodd" clip-rule="evenodd" d="M6.23009 388.306C6.17546 388.946 6.12079 389.586 6.06616 390.225C5.64186 389.981 5.45662 389.321 5.51035 388.245C4.98714 390.138 4.11711 391.836 2.9003 393.338C-1.54804 389.872 -2.08605 385.799 1.28581 381.117C3.47288 378.899 5.47865 378.99 7.30418 381.39C6.23007 383.61 5.87221 385.915 6.23009 388.306Z" fill="#FDC71D"></path><path fill-rule="evenodd" clip-rule="evenodd" d="M-26.6969 258.861C-34.6144 276.075 -46.1489 290.395 -61.2995 301.822C-69.4012 293.336 -79.2417 287.823 -90.8201 285.284C-93.6401 284.681 -94.3617 285.586 -92.9853 287.999C-101.529 290.737 -109.508 294.566 -116.925 299.488C-117.195 299.923 -117.316 300.396 -117.288 300.907C-114.418 299.998 -111.59 298.951 -108.803 297.765C-108.03 298.513 -107.297 298.414 -106.602 297.469C-90.7309 299.751 -75.4898 304.275 -60.8786 311.041C-60.3706 310.922 -60.1033 310.623 -60.0768 310.143C-59.1153 311.114 -58.009 311.37 -56.759 310.91C-46.91 303.342 -38.7991 294.206 -32.4268 283.505C-28.8368 277.289 -25.4779 270.97 -22.3495 264.549C-15.2942 269.2 -8.09774 273.601 -0.760534 277.751C8.89879 283.993 17.6152 291.344 25.3893 299.801C28.222 303.69 30.8601 307.702 33.3031 311.836C32.1457 317 31.5346 322.264 31.4708 327.629C32.0837 331.256 32.9896 334.796 34.1884 338.253C31.1387 345.098 27.5189 351.636 23.3299 357.867C12.1715 359.754 1.9916 363.879 -7.21025 370.242C-7.53029 370.214 -7.84987 370.187 -8.16992 370.16C-8.84374 370.426 -9.4037 370.379 -9.84932 370.016C-11.3766 367.147 -12.9035 364.278 -14.4307 361.408C-18.0567 352.937 -21.4386 344.432 -24.5763 335.892C-24.5995 334.279 -24.6231 332.665 -24.6463 331.053C-25.2736 330.917 -25.8473 331.029 -26.3667 331.389C-27.1872 333.198 -27.831 335.076 -28.298 337.024C-29.3688 343.042 -30.1278 349.1 -30.575 355.196C-31.5483 362.041 -32.4626 368.972 -33.3175 375.987C-33.8579 383.819 -33.1469 391.532 -31.1856 399.127C-29.8654 400.953 -28.4028 402.689 -26.7971 404.335C-25.6005 408.824 -24.8636 413.398 -24.5858 418.057C-22.1633 429.911 -17.0193 440.421 -9.15363 449.583C-4.70451 453.567 0.1606 456.963 5.44276 459.772C5.38914 466.528 5.05529 473.266 4.44122 479.986C1.73704 482.028 -1.21894 483.629 -4.42711 484.787C-39.7542 493.994 -75.6484 497.373 -112.109 494.923C-133.544 494.018 -154.741 491.322 -175.701 486.833C-174.716 486.604 -173.722 486.286 -172.719 485.88C-172.866 485.706 -173.012 485.532 -173.158 485.359C-172.758 485.244 -172.417 485.031 -172.137 484.721C-172.236 483.986 -172.182 483.346 -171.973 482.802C-171.598 482.982 -171.299 483.25 -171.075 483.603C-171.619 484.614 -171.715 485.734 -171.362 486.962C-170.11 487.391 -168.83 487.501 -167.523 487.29C-168.595 486.971 -169.514 486.409 -170.279 485.605C-169.595 485.358 -168.928 485.093 -168.278 484.809C-168.402 484.206 -168.594 483.626 -168.854 483.068C-169.476 484.19 -169.702 484.01 -169.533 482.527C-170.333 482.458 -171.132 482.39 -171.932 482.322C-171.847 480.832 -171.593 480.692 -171.172 481.903C-170.883 481.303 -170.749 480.67 -170.768 480.005C-171.433 480.024 -172.066 479.889 -172.667 479.601C-171.178 479 -170.95 478.214 -171.982 477.243C-169.099 477.673 -168.857 476.727 -171.256 474.405C-170.707 474.331 -170.206 474.132 -169.755 473.808C-170.112 473.318 -170.151 472.831 -169.872 472.348C-169.388 472.723 -168.849 473.011 -168.254 473.211C-168.588 473.343 -168.921 473.476 -169.255 473.609C-168.206 474.149 -167.301 474.871 -166.54 475.774C-166.087 476.135 -165.607 476.176 -165.1 475.897C-165.819 475.238 -166.571 474.61 -167.356 474.013C-166.519 473.02 -165.959 473.068 -165.677 474.156C-165.222 473.261 -165.4 472.52 -166.212 471.935C-165.935 471.331 -165.874 470.611 -166.027 469.776C-166.801 469.642 -167.388 469.915 -167.789 470.592C-167.982 470.118 -168.02 469.631 -167.906 469.132C-168.533 468.997 -169.107 469.109 -169.626 469.469C-171.396 467.634 -173.084 465.717 -174.693 463.719C-173.836 462.855 -172.942 462.771 -172.013 463.465C-171.652 462.715 -171.118 462.116 -170.41 461.669C-170.655 462.732 -170.664 463.778 -170.436 464.808C-171.743 465.019 -171.771 465.338 -170.518 465.768C-171.199 466.193 -171.24 466.673 -170.641 467.207C-169.706 467.054 -168.719 466.816 -167.68 466.493C-168.705 466.114 -168.736 465.548 -167.777 464.793C-167.105 467.091 -165.773 467.527 -163.78 466.101C-164.191 465.133 -164.189 464.166 -163.774 463.202C-163.509 463.869 -163.189 463.896 -162.815 463.284C-162.566 462.642 -162.271 462.023 -161.931 461.426C-162.048 460.838 -162.288 460.818 -162.651 461.365C-162.729 460.391 -162.807 459.418 -162.885 458.445C-163.56 459.551 -164.441 460.443 -165.53 461.119C-165.712 460.38 -165.424 459.841 -164.666 459.501C-164.954 458.96 -165.146 458.38 -165.243 457.76C-165.777 458.359 -166.312 458.958 -166.846 459.556C-167.641 458.531 -167.945 457.378 -167.759 456.095C-167.26 456.21 -166.774 456.171 -166.299 455.978C-167.29 455.466 -168.11 455.638 -168.76 456.493C-168.257 457.215 -168.464 457.761 -169.383 458.131C-169.023 458.604 -168.57 458.965 -168.025 459.214C-168.902 459.292 -169.09 459.599 -168.587 460.133C-169.47 460.063 -170.384 460.388 -171.329 461.107C-171.695 460.129 -172.013 459.135 -172.282 458.125C-171.949 457.993 -171.615 457.86 -171.282 457.727C-172.197 456.994 -173.143 456.753 -174.12 457.002C-173.896 457.355 -173.597 457.623 -173.221 457.803C-173.553 458.138 -173.827 458.517 -174.044 458.942C-174.19 458.768 -174.336 458.594 -174.483 458.421C-174.882 459.147 -174.777 459.801 -174.167 460.381C-173.851 459.234 -173.444 459.188 -172.947 460.244C-173.431 461.022 -174.118 461.527 -175.009 461.759C-175.532 462.839 -175.707 463.951 -175.536 465.097C-176.089 463.033 -177.181 462.617 -178.813 463.851C-178.959 463.677 -179.106 463.503 -179.252 463.33C-179.549 464.776 -179.883 464.909 -180.252 463.728C-180.627 464.34 -181.001 464.953 -181.376 465.565C-182.059 465.143 -182.105 464.736 -181.513 464.345C-182.111 464.331 -182.584 464.211 -182.932 463.982C-181.736 463.565 -180.568 463.101 -179.43 462.59C-179.737 462.403 -180.043 462.215 -180.349 462.028C-179.082 460.706 -178.013 459.508 -177.142 458.435C-177.332 457.932 -177.364 457.365 -177.239 456.735C-177.936 457.249 -178.551 457.841 -179.082 458.511C-179.686 457.049 -180.698 456.641 -182.119 457.285C-182.33 455.978 -182.649 455.951 -183.078 457.203C-183.231 456.624 -183.51 456.117 -183.915 455.682C-184.462 456.307 -184.923 456.993 -185.299 457.739C-186.194 457.959 -186.341 457.785 -185.738 457.218C-186.278 456.93 -186.643 456.496 -186.835 455.916C-187.375 456.204 -187.956 456.396 -188.576 456.492C-188.06 456.978 -188.174 457.371 -188.918 457.671C-188.966 456.196 -189.272 456.008 -189.837 457.109C-190.055 456.365 -190.4 455.691 -190.873 455.088C-191.553 455.925 -191.628 456.805 -191.098 457.727C-191.498 457.841 -191.839 458.054 -192.119 458.364C-191.406 458.441 -190.787 458.736 -190.261 459.248C-191.035 459.67 -191.855 459.841 -192.722 459.763C-192.756 458.809 -192.521 457.943 -192.017 457.165C-194.897 457.089 -195.148 456.262 -192.772 454.684C-193.51 454.408 -194.116 453.954 -194.588 453.32C-195.099 454.056 -195.568 454.821 -195.993 455.617C-196.126 454.439 -195.87 453.333 -195.226 452.299C-194.835 452.89 -194.428 452.844 -194.006 452.162C-194.618 451.787 -195.259 451.732 -195.925 451.998C-195.921 452.617 -196.209 453.157 -196.789 453.616C-197.077 452.43 -197.483 452.476 -198.009 453.753C-198.356 454.046 -198.676 454.018 -198.968 453.671C-197.87 452.082 -196.342 451.165 -194.384 450.921C-194.752 448.725 -193.941 446.78 -191.952 445.087C-193.216 445.173 -194.238 445.811 -195.015 447C-195.5 446.541 -195.538 446.054 -195.132 445.54C-194.598 444.942 -194.063 444.343 -193.529 443.744C-193.383 443.917 -193.236 444.091 -193.09 444.265C-192.811 443.782 -192.85 443.295 -193.207 442.805C-192.615 441.634 -192.055 441.681 -191.528 442.948C-190.674 442.45 -190.706 441.884 -191.624 441.248C-191.038 440.702 -190.991 440.142 -191.481 439.569C-191.212 439.119 -190.858 438.747 -190.418 438.451C-189.654 438.476 -189.008 438.451 -188.479 438.375C-190.892 437.451 -190.705 437.145 -187.917 437.457C-187.972 438.096 -188.026 438.736 -188.081 439.376C-191.079 439.439 -191.2 439.912 -188.444 440.795C-187.471 439.794 -187.135 438.695 -187.437 437.498C-187.176 436.7 -186.868 435.921 -186.512 435.16C-185.686 435.173 -184.813 435.328 -183.894 435.625C-184.254 435.152 -184.706 434.792 -185.251 434.543C-184.72 434.081 -184.592 433.528 -184.868 432.884C-185.041 433.03 -185.215 433.177 -185.389 433.323C-186.351 432.946 -186.71 432.432 -186.465 431.781C-187.067 432.346 -187.122 432.986 -186.629 433.7C-187.403 434.233 -187.95 434.025 -188.268 433.077C-188.833 434.178 -189.139 433.99 -189.186 432.515C-189.534 432.808 -189.881 433.1 -190.228 433.393C-190.953 432.907 -191.632 432.366 -192.264 431.769C-192.912 431.999 -193.353 432.444 -193.587 433.106C-194.456 432.24 -194.314 431.527 -193.163 430.967C-192.639 430.774 -192.166 430.895 -191.744 431.33C-190.84 430.569 -189.826 430.011 -188.701 429.656C-188.94 429.254 -189.34 429.22 -189.9 429.554C-190.494 428.587 -191.319 427.872 -192.375 427.409C-191.708 427.144 -191.041 426.879 -190.374 426.614C-189.789 426.217 -189.754 425.816 -190.272 425.414C-189.938 425.282 -189.605 425.149 -189.271 425.016C-190.138 424.598 -190.878 424.777 -191.492 425.551C-192.901 425.277 -194.206 424.521 -195.406 423.284C-195.58 423.43 -195.754 423.577 -195.927 423.723C-195.413 424.291 -194.807 424.745 -194.11 425.086C-194.604 425.205 -195.097 425.324 -195.591 425.443C-195.174 426.061 -194.715 426.341 -194.213 426.286C-195.05 427.278 -195.609 427.23 -195.892 426.142C-197.508 427.458 -197.96 427.097 -197.25 425.06C-197.103 425.233 -196.957 425.407 -196.811 425.58C-196.371 424.424 -196.435 423.29 -197.004 422.181C-197.835 423.79 -198.809 423.868 -199.924 422.415C-201.514 423.209 -201.509 424.095 -199.909 425.074C-203.729 426.083 -203.838 427.363 -200.237 428.913C-202.158 428.71 -203.803 428.167 -205.173 427.283C-205.645 428.246 -206.28 429.079 -207.078 429.779C-206.633 430.324 -206.6 430.89 -206.981 431.478C-207.406 430.798 -207.832 430.117 -208.257 429.436C-208.457 430.031 -208.745 430.57 -209.12 431.054C-208.974 431.228 -208.827 431.402 -208.681 431.575C-209.443 431.664 -210.037 432.015 -210.463 432.631C-211.153 431.75 -210.858 431.13 -209.579 430.773C-210.003 430.655 -210.469 430.455 -210.978 430.17C-210.471 429.891 -209.963 429.613 -209.456 429.334C-211.732 428.32 -212.453 429.225 -211.622 432.049C-212.176 431.896 -212.67 432.014 -213.102 432.406C-212.482 434.037 -212.219 435.671 -212.312 437.306C-211.765 436.976 -211.212 437.104 -210.653 437.69C-210.984 438.024 -211.259 438.404 -211.476 438.828C-212.833 437.745 -214.191 436.663 -215.548 435.58C-216.604 436.077 -216.558 436.484 -215.411 436.8C-216.567 436.839 -216.928 437.291 -216.493 438.158C-216.827 438.29 -217.16 438.423 -217.494 438.556C-216.616 439.597 -215.738 440.639 -214.861 441.68C-215.354 441.799 -215.848 441.918 -216.341 442.037C-216.85 443.031 -217.564 443.856 -218.486 444.512C-218.618 444.179 -218.751 443.845 -218.884 443.512C-219.766 444.673 -220.486 444.611 -221.043 443.327C-221.506 444.635 -222.447 445.28 -223.867 445.261C-223.473 446.288 -223.921 446.813 -225.21 446.838C-225.443 446.737 -225.676 446.637 -225.909 446.537C-224.683 446.084 -224.628 445.444 -225.745 444.617C-224.682 444.142 -224.301 443.45 -224.601 442.54C-223.98 441.464 -223.341 441.519 -222.682 442.704C-221.675 442.508 -220.795 442.583 -220.042 442.929C-219.137 442.606 -218.223 442.281 -217.301 441.955C-217.954 441.263 -218.713 440.715 -219.577 440.311C-218.91 440.045 -218.243 439.781 -217.576 439.515C-217.845 439.13 -218.051 438.709 -218.193 438.254C-218.728 439.059 -219.302 439.172 -219.914 438.591C-219.454 437.851 -218.787 437.586 -217.912 437.795C-217.94 437.153 -217.732 436.607 -217.289 436.156C-217.595 435.969 -217.901 435.782 -218.208 435.595C-217.44 435.096 -216.673 434.598 -215.905 434.1C-215.35 435.504 -214.49 435.819 -213.327 435.045C-214.726 434.737 -215.705 433.928 -216.262 432.619C-216.435 432.765 -216.609 432.912 -216.783 433.058C-216.881 432.449 -216.6 431.99 -215.94 431.68C-216.086 431.507 -216.233 431.333 -216.379 431.159C-217.121 431.522 -217.575 432.127 -217.742 432.976C-218.193 432.533 -218.739 432.325 -219.381 432.353C-219.432 434.033 -219.082 435.593 -218.331 437.034C-218.805 437.227 -219.292 437.266 -219.791 437.151C-219.525 435.736 -219.642 434.276 -220.141 432.771C-220.587 432.252 -220.945 431.738 -221.218 431.229C-221.111 430.916 -221.004 430.603 -220.896 430.29C-220.712 431.162 -220.326 431.356 -219.738 430.872C-220.1 430.13 -220.706 429.676 -221.555 429.509C-220.775 429.443 -220.035 429.265 -219.334 428.973C-219.177 429.94 -219.179 430.907 -219.34 431.873C-218.184 432.156 -217.836 431.863 -218.298 430.995C-218.018 430.685 -217.677 430.472 -217.277 430.357C-218.41 430.015 -218.682 429.428 -218.093 428.596C-217.468 429.762 -216.815 429.657 -216.133 428.28C-216.621 427.009 -217.181 426.961 -217.812 428.137C-217.954 427.682 -218.16 427.261 -218.43 426.876C-217.226 426.903 -216.1 426.918 -215.05 426.923C-214.501 427.344 -214.535 427.743 -215.153 428.122C-214.417 428.339 -213.891 428.786 -213.576 429.465C-211.93 427.063 -212.52 425.481 -215.346 424.722C-214.177 423.916 -214.268 423.103 -215.621 422.282C-215.04 422.09 -214.606 421.725 -214.319 421.185C-213.585 421.749 -213.553 422.315 -214.222 422.885C-212.726 423.294 -212.607 423.788 -213.865 424.366C-213.646 424.626 -213.426 424.886 -213.207 425.147C-211.952 424.485 -211.093 424.8 -210.629 426.092C-210.859 426.561 -211.199 426.774 -211.651 426.73C-211.038 427.574 -210.273 428.043 -209.354 428.134C-210.033 426.931 -210.403 425.61 -210.465 424.173C-209.571 422.913 -208.816 421.608 -208.198 420.258C-207.718 420.299 -207.238 420.34 -206.758 420.381C-206.717 419.901 -206.676 419.421 -206.635 418.941C-205.937 419.128 -205.284 419.023 -204.675 418.625C-204.997 418.013 -205.396 417.979 -205.875 418.523C-206.007 418.189 -206.14 417.856 -206.272 417.522C-206.698 418.138 -207.292 418.49 -208.054 418.579C-207.226 418.908 -207.101 419.322 -207.677 419.819C-208.635 418.968 -209.353 417.94 -209.83 416.735C-210.96 417.752 -211.868 418.963 -212.557 420.369C-213.093 419.738 -213.653 419.69 -214.237 420.225C-216.413 418.128 -216.157 417.022 -213.47 416.908C-213.403 417.074 -213.337 417.241 -213.271 417.408C-215.357 417.444 -215.651 418.063 -214.155 419.266C-213.968 418.959 -213.78 418.654 -213.593 418.347C-213.45 419.063 -213.07 419.337 -212.455 419.169C-212.958 418.447 -212.75 417.901 -211.832 417.531C-211.949 416.943 -212.188 416.922 -212.551 417.469C-212.867 416.745 -212.732 416.112 -212.147 415.571C-210.595 416.346 -210.415 416.12 -211.606 414.892C-212.03 414.675 -212.41 414.401 -212.744 414.07C-213.283 415.399 -214.11 415.651 -215.225 414.824C-216.476 415.328 -217.531 416.366 -218.391 417.937C-218.702 416.975 -218.86 415.995 -218.865 414.997C-218.056 415.143 -217.25 415.132 -216.445 414.962C-216.562 414.24 -216.26 413.541 -215.541 412.864C-215.395 413.038 -215.249 413.211 -215.102 413.385C-214.891 412.379 -214.343 411.621 -213.458 411.109C-212.571 412.314 -211.691 412.389 -210.819 411.334C-211.178 410.875 -211.645 410.674 -212.217 410.731C-212.032 409.269 -211.298 409.171 -210.017 410.436C-210.403 409.134 -211.388 408.405 -212.972 408.25C-212.931 407.77 -212.89 407.291 -212.849 406.811C-213.815 406.65 -214.782 406.648 -215.749 406.805C-215.163 407.668 -214.45 407.809 -213.61 407.229C-212.496 409.418 -213.171 410.73 -215.638 411.164C-215.435 411.382 -215.296 411.635 -215.219 411.925C-216.48 411.988 -217.867 412.191 -219.38 412.536C-220.202 412.412 -220.261 412.166 -219.558 411.796C-218.908 411.314 -218.341 411.281 -217.858 411.7C-217.31 411.293 -216.709 410.861 -216.056 410.403C-216.508 410.37 -216.808 410.103 -216.954 409.602C-216.577 409.072 -216.45 408.52 -216.571 407.943C-216.954 408.37 -217.361 408.415 -217.791 408.08C-217.265 407.17 -216.63 406.338 -215.886 405.585C-215.435 406.028 -214.889 406.235 -214.248 406.208C-214.305 405.635 -214.104 405.169 -213.645 404.809C-213.512 405.143 -213.38 405.476 -213.247 405.81C-212.532 405.14 -212.31 404.434 -212.583 403.692C-211.597 403.582 -210.909 403.077 -210.52 402.176C-210.869 402.033 -211.255 401.838 -211.679 401.594C-211.874 400.452 -211.541 400.319 -210.678 401.196C-210.427 400.458 -209.667 400.04 -208.396 399.941C-208.263 400.275 -208.13 400.608 -207.998 400.942C-207.398 400.514 -206.797 400.082 -206.196 399.646C-205.457 400.984 -204.804 400.878 -204.235 399.33C-203.973 399.906 -203.614 400.42 -203.159 400.872C-203.796 401.481 -204.337 402.16 -204.783 402.908C-204.781 403.527 -204.495 403.954 -203.925 404.19C-203.337 404.073 -203.317 403.833 -203.864 403.47C-202.712 403.73 -202.374 404.484 -202.849 405.732C-203.488 405.677 -204.128 405.622 -204.768 405.568C-205.306 405.052 -205.505 404.552 -205.365 404.067C-205.765 404.181 -206.106 404.394 -206.386 404.704C-207.02 406.301 -207.17 408.06 -206.837 409.983C-207.122 410.81 -207.355 410.709 -207.536 409.681C-207.581 411.704 -208.225 413.582 -209.467 415.316C-210.126 414.535 -210.784 413.754 -211.442 412.973C-211.813 412.608 -212.14 412.661 -212.422 413.13C-211.247 414.435 -209.983 415.671 -208.631 416.838C-208.174 415.266 -207.718 413.693 -207.261 412.121C-207.115 412.295 -206.968 412.469 -206.822 412.642C-206.471 412.136 -206.183 411.597 -205.959 411.024C-206.71 407.519 -206.029 407.094 -203.917 409.749C-204.398 410.006 -204.79 409.892 -205.096 409.406C-205.006 410.108 -205.14 410.74 -205.5 411.305C-205 411.937 -204.575 412.618 -204.224 413.347C-203.934 413.271 -203.681 413.131 -203.463 412.929C-203.342 413.506 -203.47 414.059 -203.847 414.588C-203.508 415.254 -203.076 415.855 -202.551 416.39C-201.953 415.487 -202.037 414.594 -202.805 413.71C-201.933 413.865 -201.059 414.02 -200.187 414.176C-199.839 413.883 -199.812 413.563 -200.105 413.216C-200.87 412.979 -201.75 412.904 -202.744 412.99C-202.772 412.48 -202.651 412.007 -202.381 411.571C-202.002 412.189 -201.602 412.223 -201.181 411.674C-203.599 410.596 -203.545 409.956 -201.017 409.755C-200.724 408.958 -200.663 408.238 -200.833 407.595C-199.649 407.479 -199.535 407.085 -200.491 406.416C-201.454 407.221 -202.527 407.533 -203.712 407.349C-203.06 406.666 -202.292 406.168 -201.409 405.855C-201.208 405.388 -201.007 404.922 -200.806 404.456C-200.196 406.094 -199.085 407.236 -197.474 407.882C-197.968 408.001 -198.461 408.12 -198.955 408.239C-198.281 408.95 -197.703 409.724 -197.22 410.562C-196.732 409.517 -196.246 409.479 -195.76 410.445C-197.022 411.296 -197.351 412.315 -196.746 413.503C-196.21 412.044 -195.637 411.932 -195.025 413.166C-193.857 412.155 -193.484 412.509 -193.908 414.228C-195.031 413.825 -196.23 413.723 -197.507 413.921C-197.642 414.548 -197.53 415.122 -197.17 415.642C-198.035 415.662 -198.709 416.007 -199.192 416.677C-198.843 416.906 -198.37 417.026 -197.773 417.04C-198.41 417.89 -198.232 418.63 -197.238 419.261C-196.441 418.905 -195.68 418.487 -194.955 418.006C-195.362 417.337 -195.228 416.703 -194.552 416.107C-193.827 417.185 -193.029 418.22 -192.158 419.211C-193.099 419.523 -193.793 420.108 -194.242 420.967C-194.296 421.998 -194.138 422.978 -193.768 423.907C-193.57 422.445 -192.834 421.38 -191.562 420.712C-191.15 419.968 -191.168 419.242 -191.617 418.532C-190.431 418.257 -189.665 418.725 -189.32 419.937C-189.246 419.37 -189.032 418.744 -188.677 418.059C-188.352 418.68 -188.167 419.34 -188.121 420.039C-187.587 419.537 -187.281 419.724 -187.202 420.601C-186.836 420.218 -186.409 419.933 -185.921 419.744C-186.049 420.52 -185.624 421.201 -184.645 421.786C-185.105 422.708 -185.678 422.82 -186.366 422.123C-186.459 422.276 -186.553 422.429 -186.646 422.582C-186.257 422.978 -185.798 423.259 -185.268 423.425C-186.509 423.642 -186.543 424.042 -185.371 424.624C-184.876 424.092 -184.662 423.466 -184.727 422.746C-182.201 422.881 -181.803 423.882 -183.533 425.748C-182.962 426.602 -183.03 427.402 -183.738 428.147C-183.293 428.588 -182.847 429.029 -182.401 429.47C-185.663 430.146 -185.878 430.772 -183.045 431.348C-183.786 432.314 -183.647 432.567 -182.627 432.109C-182.37 432.988 -182.038 433.822 -181.632 434.61C-181.467 434.081 -181.186 433.622 -180.789 433.232C-179.979 432.828 -178.939 432.917 -177.671 433.499C-177.285 433.229 -176.864 433.023 -176.409 432.881C-177.465 432.709 -178.398 432.307 -179.206 431.676C-178.859 431.383 -178.512 431.091 -178.165 430.798C-178.892 429.932 -179.818 429.45 -180.941 429.353C-180.913 429.863 -181.034 430.336 -181.304 430.772C-181.401 430.151 -181.593 429.571 -181.881 429.031C-181.13 428.621 -180.442 428.116 -179.818 427.515C-180.044 427.335 -180.27 427.154 -180.497 426.974C-181.095 427.792 -181.849 428.131 -182.758 427.989C-182.572 426.399 -182.349 424.727 -182.088 422.971C-182.73 422.453 -183.415 421.991 -184.145 421.587C-183.884 421.368 -183.624 421.148 -183.364 420.929C-182.312 421.825 -181.261 422.72 -180.21 423.615C-179.895 422.756 -179.287 422.244 -178.387 422.079C-178.693 421.892 -178.999 421.704 -179.306 421.517C-178.93 421.034 -178.642 420.494 -178.442 419.899C-177.729 419.616 -177.003 419.598 -176.263 419.844C-176.552 419.213 -176.904 418.619 -177.319 418.062C-178.15 418.743 -178.938 419.482 -179.683 420.277C-180.91 419.436 -180.776 418.803 -179.279 418.378C-179.066 417.075 -178.564 415.909 -177.772 414.882C-177.918 414.708 -178.065 414.534 -178.211 414.361C-176.823 414.022 -175.635 413.318 -174.647 412.249C-176.57 412.217 -176.529 411.737 -174.524 410.809C-174.951 410.426 -174.997 410.019 -174.662 409.589C-173.468 410.025 -172.483 410.753 -171.707 411.775C-172.331 411.579 -172.991 411.764 -173.688 412.331C-172.742 413.543 -171.885 414.824 -171.116 416.175C-171.895 417.038 -172.722 417.289 -173.597 416.93C-173.725 415.606 -174.189 414.438 -174.99 413.428C-175.21 414.584 -175.066 415.724 -174.557 416.848C-175.145 417.331 -175.531 417.137 -175.715 416.266C-175.986 416.701 -176.107 417.174 -176.078 417.685C-175.505 417.628 -175.039 417.829 -174.68 418.287C-176.304 420.639 -176.091 420.979 -174.042 419.309C-173.844 420.529 -173.444 420.564 -172.842 419.411C-172.283 419.626 -172.303 419.866 -172.904 420.131C-172.375 420.296 -171.915 420.577 -171.526 420.973C-171.777 421.438 -172.097 421.411 -172.485 420.892C-172.955 422.4 -173.404 423.892 -173.834 425.368C-173.187 426.184 -172.442 426.892 -171.599 427.492C-172.512 427.519 -173.339 427.77 -174.08 428.247C-173.336 428.658 -172.61 428.64 -171.901 428.191C-171.106 428.825 -170.695 429.666 -170.666 430.714C-170.403 430.032 -169.983 429.826 -169.405 430.096C-170.065 430.762 -170.126 431.482 -169.589 432.255C-168.909 431.83 -168.228 431.405 -167.547 430.98C-167.971 430.862 -168.437 430.661 -168.946 430.377C-167.844 427.933 -167.052 428.082 -166.567 430.822C-167.036 431.535 -166.758 432.042 -165.73 432.343C-166.436 432.508 -167.03 432.86 -167.512 433.4C-167.645 433.066 -167.778 432.733 -167.91 432.399C-168.938 432.967 -170.012 433.278 -171.131 433.332C-170.945 435.454 -170.392 435.582 -169.472 433.715C-169.3 434.729 -169.615 435.589 -170.418 436.293C-169.83 436.674 -169.263 436.642 -168.718 436.197C-168.526 436.777 -168.16 437.211 -167.621 437.499C-168.564 438.273 -169.412 438.765 -170.163 438.973C-169.987 439.822 -169.735 440.649 -169.408 441.454C-168.216 441.16 -168.163 441.487 -169.25 442.434C-170.315 441.699 -171.381 440.963 -172.445 440.228C-172.646 440.694 -172.847 441.16 -173.048 441.627C-173.194 441.453 -173.341 441.279 -173.487 441.106C-174.752 442.287 -175.305 442.159 -175.146 440.723C-173.905 440.505 -173.871 440.105 -175.043 439.523C-175.518 440.091 -176.046 440.61 -176.626 441.079C-175.908 442.358 -174.889 442.687 -173.569 442.066C-173.849 445.454 -172.492 446.537 -169.496 445.313C-169.132 445.415 -168.825 445.602 -168.578 445.875C-168.469 445.105 -168.821 444.511 -169.634 444.093C-168.967 443.828 -168.299 443.563 -167.633 443.298C-168.631 442.733 -168.503 442.18 -167.249 441.639C-166.873 441.601 -166.539 441.468 -166.249 441.241C-166.066 441.881 -166.041 442.528 -166.173 443.181C-165.248 443.392 -164.501 443.133 -163.931 442.405C-163.696 443.483 -163.15 443.691 -162.293 443.029C-159.681 445.693 -160.042 446.145 -163.376 444.386C-163.73 445.071 -163.945 445.697 -164.019 446.264C-164.714 446.097 -165.42 445.876 -166.138 445.6C-167.06 446.294 -168.134 446.606 -169.359 446.533C-168.83 446.699 -168.37 446.98 -167.981 447.376C-167.535 447.847 -167.562 448.167 -168.063 448.336C-169.354 446.337 -170.64 446.307 -171.922 448.248C-171.652 448.633 -171.447 449.054 -171.305 449.509C-169.958 449.207 -169.843 448.814 -170.962 448.33C-170.081 447.64 -169.461 447.935 -169.104 449.213C-168.293 448.775 -167.92 449.129 -167.987 450.276C-167.447 449.226 -166.725 448.321 -165.822 447.561C-164.368 448.066 -164.336 448.633 -165.725 449.26C-165.113 449.635 -164.5 450.009 -163.888 450.384C-164.488 450.649 -164.509 450.889 -163.949 451.104C-162.795 449.952 -161.44 449.181 -159.885 448.793C-160.41 447.866 -160.976 447.899 -161.585 448.889C-161.894 448.311 -162.294 448.277 -162.785 448.787C-163.344 448.572 -163.324 448.332 -162.723 448.067C-162.249 447.874 -161.762 447.835 -161.263 447.95C-161.104 446.624 -160.382 445.719 -159.098 445.235C-158.239 445.844 -157.314 446.326 -156.322 446.68C-156.232 448.361 -155.692 448.649 -154.704 447.543C-153.919 448.198 -153.507 449.039 -153.469 450.066C-152.986 449.526 -152.393 449.174 -151.687 449.009C-152.718 447.958 -153.949 447.289 -155.382 447.002C-155.341 446.522 -155.3 446.043 -155.259 445.563C-157.079 445.164 -157.038 444.684 -155.136 444.123C-156.869 443.838 -157.187 442.845 -156.09 441.142C-154.789 442.664 -154.285 444.318 -154.581 446.104C-153.643 446.424 -152.884 446.972 -152.304 447.748C-152.079 446.83 -151.611 446.064 -150.9 445.452C-151.532 445.282 -152.311 444.974 -153.238 444.527C-152.111 443.691 -152.196 442.797 -153.492 441.847C-152.702 441.529 -151.882 441.357 -151.031 441.332C-151.466 441.062 -151.94 440.941 -152.45 440.969C-152.297 440.414 -152.416 439.921 -152.807 439.489C-153.345 440.017 -153.946 440.449 -154.61 440.785C-154.705 439.946 -154.877 439.126 -155.124 438.324C-154.639 438.464 -154.139 438.265 -153.624 437.727C-155.011 437.203 -155.13 436.709 -153.98 436.247C-155.127 435.931 -155.173 435.524 -154.118 435.027C-153.665 435.388 -153.213 435.748 -152.76 436.11C-152.857 436.978 -152.845 437.784 -152.725 438.529C-152.329 438.14 -152.048 437.68 -151.883 437.151C-151.663 437.412 -151.444 437.672 -151.224 437.932C-151.884 438.598 -151.945 439.318 -151.409 440.092C-150.821 439.975 -150.8 439.735 -151.347 439.372C-150.309 439.049 -149.322 438.811 -148.386 438.658C-148.947 439.28 -149.628 439.705 -150.429 439.934C-149.994 440.204 -149.521 440.325 -149.01 440.297C-149.064 440.936 -149.119 441.576 -149.174 442.216C-148.134 442.243 -147.195 442.565 -146.356 443.181C-147.09 443.511 -147.284 443.897 -146.938 444.34C-146.196 443.978 -145.742 443.372 -145.575 442.523C-145.382 442.998 -145.343 443.485 -145.458 443.983C-143.704 444.169 -143.343 443.716 -144.375 442.626C-143.681 442.041 -143.626 441.401 -144.211 440.706C-143.011 440.217 -141.898 440.393 -140.873 441.233C-141.554 441.658 -141.595 442.138 -140.996 442.673C-141.489 442.791 -141.983 442.911 -142.476 443.03C-139.464 443.592 -138.817 443.567 -140.537 442.954C-140.6 442.084 -140.372 441.298 -139.852 440.595C-139.217 440.064 -138.657 440.112 -138.172 440.739C-137.767 440.225 -137.805 439.738 -138.289 439.279C-139.376 439.362 -140.296 439.767 -141.051 440.493C-141.695 439.413 -142.561 439.178 -143.65 439.788C-144.271 439.207 -144.456 438.547 -144.205 437.807C-144.059 437.98 -143.913 438.154 -143.767 438.328C-143.395 437.402 -142.902 437.283 -142.286 437.971C-142.026 437.751 -141.765 437.532 -141.505 437.313C-142.105 437.024 -142.738 436.89 -143.404 436.909C-143.012 435.11 -143.385 434.757 -144.521 435.847C-145.083 436.654 -145.231 437.447 -144.966 438.225C-145.65 438.978 -146.205 439.817 -146.631 440.741C-147.658 440.957 -147.797 440.703 -147.049 439.981C-147.342 439.633 -147.634 439.286 -147.927 438.939C-147.547 438.191 -147.239 437.411 -147.002 436.601C-146.929 437.151 -146.73 437.651 -146.406 438.102C-145.818 437.985 -145.797 437.745 -146.344 437.383C-145.986 436.332 -145.424 435.413 -144.659 434.627C-144.993 433.793 -144.747 433.733 -143.918 434.448C-143.701 434.024 -143.427 433.644 -143.096 433.31C-143.924 432.981 -144.05 432.567 -143.474 432.069C-142.805 432.579 -142.38 433.26 -142.198 434.112C-142.879 434.537 -142.92 435.017 -142.321 435.551C-140.99 437.143 -140.009 436.985 -139.381 435.077C-138.736 434.802 -138.183 434.93 -137.722 435.461C-137.541 435.086 -137.274 434.786 -136.92 434.562C-136.788 434.896 -136.655 435.229 -136.522 435.563C-135.753 434.384 -135.366 434.578 -135.363 436.145C-134.949 435.123 -134.375 435.011 -133.643 435.809C-132.939 434.52 -132.109 433.302 -131.156 432.155C-131.411 433.261 -131.667 434.367 -131.923 435.473C-131.053 434.74 -130.572 433.815 -130.477 432.696C-129.904 432.639 -129.438 432.84 -129.079 433.299C-129.412 433.431 -129.746 433.564 -130.079 433.697C-129.355 434.144 -128.576 434.453 -127.742 434.621C-128.304 435.244 -128.445 435.957 -128.166 436.76C-127.193 436.908 -126.133 436.757 -124.986 436.307C-124.305 435.882 -124.264 435.402 -124.863 434.867C-124.282 434.675 -123.848 434.31 -123.561 433.77C-123.415 433.944 -123.268 434.118 -123.122 434.291C-122.873 433.649 -122.578 433.03 -122.238 432.433C-122.384 432.26 -122.531 432.086 -122.677 431.912C-124.476 432.606 -126.29 433.096 -128.119 433.381C-127.982 432.043 -128.546 431.109 -129.813 430.578C-128.799 429.091 -127.423 428.081 -125.687 427.547C-126.712 427.084 -126.664 426.524 -125.544 425.868C-125.655 426.733 -125.15 427.421 -124.029 427.93C-123.521 427.651 -123.014 427.373 -122.507 427.094C-122.531 427.858 -122.506 428.504 -122.431 429.033C-121.718 428.986 -120.985 428.888 -120.231 428.738C-120.164 428.905 -120.098 429.072 -120.032 429.238C-121.3 429.747 -122.5 429.645 -123.631 428.931C-123.224 429.678 -123.046 430.418 -123.095 431.152C-122.803 431.499 -122.483 431.526 -122.136 431.234C-122.563 430.85 -122.608 430.444 -122.273 430.014C-121.507 430.25 -120.628 430.325 -119.634 430.239C-119.561 429.491 -119.34 428.785 -118.97 428.121C-119.181 427.643 -119.467 427.216 -119.827 426.839C-119.146 426.414 -119.105 425.934 -119.704 425.4C-119.179 425.032 -118.738 424.586 -118.382 424.063C-118.233 424.524 -117.941 424.871 -117.504 425.104C-116.789 424.627 -116.175 424.035 -115.661 423.328C-115.499 423.921 -115.387 424.495 -115.324 425.049C-116.509 425.337 -116.463 425.743 -115.187 426.269C-114.491 425.539 -114.183 424.76 -114.262 423.931C-112.436 426.136 -113.025 427.375 -116.029 427.647C-116.074 427.209 -116.193 426.716 -116.386 426.166C-116.936 427 -117.638 427.666 -118.49 428.162C-118.024 428.362 -117.558 428.564 -117.092 428.764C-117.02 429.563 -116.681 430.317 -116.076 431.026C-116.995 430.986 -117.941 430.744 -118.914 430.3C-119.562 431.413 -120.389 431.665 -121.395 431.055C-121.77 431.667 -121.825 432.308 -121.559 432.974C-120.16 432.301 -119.228 432.703 -118.762 434.18C-118.475 433.641 -118.041 433.275 -117.46 433.083C-118.023 432.408 -117.895 431.855 -117.077 431.424C-116.568 432.631 -116.423 433.771 -116.644 434.844C-117.232 435.328 -117.619 435.134 -117.803 434.262C-118.09 434.801 -118.524 435.167 -119.105 435.359C-118.406 435.66 -117.706 435.962 -117.007 436.263C-116.646 435.247 -115.705 434.602 -114.184 434.329C-115.037 433.557 -115.769 432.689 -116.378 431.725C-115.762 431.558 -115.383 431.832 -115.24 432.548C-115.066 432.401 -114.892 432.255 -114.719 432.109C-113.825 433.522 -112.627 434.591 -111.126 435.316C-110.838 434.715 -110.703 434.082 -110.722 433.417C-109.477 433.631 -108.629 433.139 -108.18 431.942C-108.486 431.755 -108.792 431.568 -109.098 431.38C-108.295 431.101 -107.582 431.242 -106.96 431.805C-106.238 430.9 -105.516 429.995 -104.794 429.09C-104.575 429.35 -104.356 429.611 -104.136 429.871C-105.197 430.224 -105.571 430.836 -105.26 431.708C-107.058 431.913 -107.439 432.605 -106.404 433.786C-106.737 433.918 -107.071 434.051 -107.404 434.183C-107.181 434.537 -106.881 434.804 -106.506 434.985C-107.785 435.248 -108.978 435.065 -110.084 434.438C-110.23 435.359 -110.065 436.26 -109.59 437.138C-110.208 437.517 -110.242 437.917 -109.693 438.338C-109.29 437.515 -108.822 436.749 -108.288 436.041C-107.464 436.715 -107.592 437.268 -108.671 437.7C-108.525 437.874 -108.379 438.048 -108.233 438.221C-107.287 438.309 -106.314 438.231 -105.313 437.987C-104.966 437.387 -104.757 436.841 -104.689 436.349C-103.568 437.217 -103.63 437.937 -104.874 438.508C-104.671 438.725 -104.532 438.979 -104.455 439.269C-103.899 439.529 -103.352 439.736 -102.817 439.892C-102.464 438.909 -102.218 438.85 -102.077 439.713C-102.621 440.478 -103.169 441.236 -103.721 441.99C-103.421 442.734 -103.028 442.848 -102.542 442.332C-102.036 443.122 -101.944 443.935 -102.267 444.772C-103.796 442.734 -104.196 442.7 -103.467 444.67C-103.591 444.942 -103.772 445.169 -104.008 445.348C-103.46 445.566 -102.894 445.534 -102.308 445.252C-101.708 445.592 -101.349 446.106 -101.232 446.794C-102.227 446.734 -103.353 446.719 -104.611 446.747C-104.284 447.591 -103.811 447.712 -103.192 447.11C-102.736 447.984 -102.245 448.832 -101.717 449.652C-101.445 448.81 -100.91 448.211 -100.114 447.856C-99.6443 448.639 -98.9519 449.02 -98.0366 449C-98.1513 449.499 -98.1126 449.985 -97.9197 450.46C-97.2986 450.658 -96.5857 450.799 -95.7809 450.884C-96.3119 451.346 -96.4399 451.899 -96.1643 452.543C-95.3899 452.338 -94.7776 452.713 -94.3269 453.667C-94.245 452.707 -94.163 451.748 -94.081 450.788C-93.9349 450.961 -93.7883 451.135 -93.6422 451.309C-93.4362 450.442 -92.9746 449.757 -92.2582 449.252C-93.5834 448.736 -94.3883 447.781 -94.6719 446.388C-94.9878 447.535 -95.3948 447.581 -95.8919 446.525C-95.0511 446.114 -94.2107 445.702 -93.3698 445.29C-93.853 445.011 -94.3396 445.05 -94.8298 445.407C-95.2946 445.156 -95.2673 444.836 -94.7478 444.448C-96.2054 443.988 -96.3247 443.494 -95.1047 442.967C-93.7544 443.563 -93.3934 443.111 -94.0221 441.61C-93.4187 441.137 -92.7449 440.792 -92.0003 440.574C-92.8282 440.245 -92.9538 439.831 -92.3777 439.334C-92.1051 439.458 -91.8789 439.639 -91.6989 439.875C-90.9219 439.214 -90.0082 438.89 -88.9574 438.901C-90.5386 438.49 -90.6506 437.917 -89.2938 437.18C-89.9115 436.479 -89.7176 436.092 -88.7115 436.022C-89.9502 435.433 -89.9093 434.953 -88.5886 434.582C-89.0548 434.381 -89.5209 434.18 -89.9871 433.979C-88.5406 432.702 -88.7787 431.715 -90.7008 431.018C-90.4404 430.799 -90.18 430.58 -89.9196 430.36C-89.4688 430.803 -88.9225 431.011 -88.2812 430.983C-88.1455 430.356 -88.2574 429.783 -88.6176 429.263C-88.2839 429.131 -87.9506 428.998 -87.6169 428.865C-88.2292 428.491 -88.842 428.116 -89.4543 427.742C-88.7516 427.176 -88.1047 427.151 -87.5145 427.666C-87.1535 427.213 -86.7929 426.761 -86.4319 426.308C-85.6571 427.706 -86.0791 428.878 -87.6989 429.825C-86.8878 429.988 -86.088 430.057 -85.2998 430.03C-85.6608 430.482 -86.0213 430.935 -86.3824 431.387C-85.6822 431.977 -85.0972 432.672 -84.627 433.471C-85.9613 434.001 -86.016 434.641 -84.7909 435.39C-85.6162 435.67 -85.9039 436.209 -85.6541 437.008C-85.4282 436.157 -85.0945 436.024 -84.6535 436.61C-84.2876 435.603 -83.9589 434.584 -83.6673 433.553C-84.1947 433.061 -84.533 432.308 -84.6825 431.291C-83.6754 431.214 -82.743 431.616 -81.8855 432.496C-81.137 432.165 -80.3831 431.827 -79.6238 431.481C-79.7699 431.308 -79.9165 431.134 -80.0626 430.96C-79.4513 430.52 -78.9236 430.001 -78.4797 429.404C-78.5967 428.816 -78.8366 428.795 -79.1994 429.343C-79.2555 428.454 -79.5942 427.7 -80.2146 427.081C-79.8835 426.747 -79.6094 426.367 -79.3924 425.943C-79.2462 426.116 -79.0997 426.29 -78.9535 426.464C-78.1479 424.184 -77.5812 424.153 -77.2536 426.367C-77.4303 426.993 -77.7914 427.445 -78.3362 427.725C-77.3977 427.743 -76.525 427.898 -75.7177 428.19C-75.4392 427.317 -75.1241 426.458 -74.7725 425.612C-75.2005 425.066 -75.74 424.779 -76.3904 424.749C-76.6476 424.268 -76.5338 423.876 -76.0481 423.57C-76.6796 422.606 -77.2372 421.591 -77.7215 420.527C-77.0171 419.733 -76.1626 419.161 -75.1584 418.813C-75.5182 418.34 -75.9708 417.979 -76.5159 417.73C-75.8188 417.043 -75.9308 416.47 -76.8523 416.01C-77.111 416.962 -77.5267 418.054 -78.0989 419.287C-78.2102 418.129 -78.7547 416.955 -79.7313 415.764C-79.5163 415.204 -79.2764 415.225 -79.0116 415.825C-78.4059 414.851 -78.0039 413.919 -77.806 413.028C-77.8537 415.21 -77.0952 415.758 -75.5298 414.673C-75.3477 415.313 -75.3222 415.96 -75.4538 416.613C-74.4818 417.54 -73.3965 418.035 -72.1975 418.099C-72.5978 418.214 -72.9383 418.426 -73.2186 418.737C-72.8699 418.881 -72.4838 419.075 -72.06 419.319C-71.843 418.895 -71.5689 418.515 -71.2378 418.181C-71.5074 417.795 -71.7132 417.375 -71.8551 416.92C-72.0285 417.066 -72.2025 417.213 -72.3759 417.359C-72.4723 416.739 -72.6644 416.158 -72.9522 415.618C-73.7093 415.512 -74.3421 415.378 -74.851 415.214C-74.2293 414.89 -73.5692 414.704 -72.8702 414.658C-74.6153 414.005 -74.4351 413.779 -72.3289 413.979C-72.3296 413.194 -71.9617 412.662 -71.2258 412.382C-72.5101 411.386 -72.369 410.673 -70.8015 410.243C-69.9197 410.122 -69.0607 410.437 -68.2239 411.188C-68.6976 412.179 -68.4527 413.086 -67.4897 413.909C-67.323 413.843 -67.156 413.777 -66.9893 413.71C-68.0221 412.277 -67.794 411.491 -66.3046 411.352C-66.5889 410.199 -67.208 409.904 -68.1624 410.469C-68.696 409.925 -69.3019 409.47 -69.9793 409.105C-69.4483 408.643 -69.3204 408.09 -69.596 407.446C-69.7694 407.592 -69.9433 407.739 -70.1168 407.885C-70.2611 407.039 -70.6339 406.685 -71.2344 406.823C-70.7833 406.498 -70.2829 406.3 -69.7334 406.226C-70.003 405.841 -70.2088 405.42 -70.3507 404.965C-70.5316 405.34 -70.7988 405.64 -71.1524 405.863C-71.5883 405.172 -72.2006 404.797 -72.9898 404.74C-72.854 404.112 -72.966 403.539 -73.3261 403.019C-72.9509 402.536 -72.6631 401.996 -72.463 401.401C-72.2367 402.759 -71.5511 403.22 -70.4062 402.785C-70.5796 402.932 -70.7536 403.078 -70.927 403.224C-70.068 403.539 -69.5558 404.147 -69.391 405.047C-68.8395 404.153 -68.2044 403.32 -67.4862 402.551C-68.1833 402.247 -68.7637 402.439 -69.2271 403.128C-69.0191 402.452 -69.0441 401.806 -69.3031 401.188C-69.6626 400.729 -70.1288 400.528 -70.7016 400.585C-70.956 402.472 -71.196 402.452 -71.4213 400.524C-71.6387 400.726 -71.8923 400.866 -72.1821 400.942C-72.6073 400.261 -73.0324 399.58 -73.4576 398.9C-74.1282 399.785 -74.9622 400.116 -75.9592 399.894C-74.4052 399.553 -74.1907 398.927 -75.3155 398.016C-74.9245 396.857 -74.2025 395.952 -73.1503 395.301C-73.5803 394.966 -73.9868 395.012 -74.3703 395.438C-74.6275 394.958 -74.5137 394.565 -74.0279 394.259C-73.3982 394.385 -72.8315 394.353 -72.3281 394.163C-71.7251 395.032 -70.873 395.427 -69.7709 395.348C-69.8402 397.251 -69.6003 397.271 -69.0512 395.409C-68.2528 396.616 -67.2204 396.785 -65.9528 395.916C-66.3457 395.033 -66.8852 394.745 -67.5707 395.053C-67.8279 394.572 -67.7141 394.179 -67.2284 393.874C-68.5798 393.257 -69.8918 392.581 -71.1635 391.846C-71.4562 391.498 -71.4289 391.179 -71.0815 390.886C-70.776 391.372 -70.3831 391.486 -69.9024 391.228C-70.1115 390.298 -70.1966 389.404 -70.1569 388.548C-70.7036 389.528 -71.3455 390.44 -72.0822 391.284C-72.2146 390.95 -72.3476 390.617 -72.48 390.283C-72.8977 391.15 -72.7193 391.89 -71.9447 392.504C-72.2451 392.925 -72.5988 393.298 -73.0068 393.622C-73.7589 392.993 -74.5105 392.366 -75.2625 391.737C-74.0415 391.187 -73.3336 390.441 -73.1383 389.502C-73.5625 389.285 -73.9422 389.011 -74.2764 388.68C-75.7948 388.932 -75.9227 389.485 -74.6598 390.339C-75.0936 390.704 -75.5279 391.07 -75.9618 391.436C-77.1832 390.921 -78.3026 390.826 -79.3206 391.149C-79.0471 392.293 -79.5224 393.138 -80.7456 393.686C-80.2794 393.886 -79.8132 394.088 -79.3471 394.288C-80.645 395.4 -80.5808 396.533 -79.1541 397.688C-80.2691 398.944 -81.3016 398.775 -82.2525 397.182C-82.8839 397.472 -83.4775 397.824 -84.0344 398.238C-83.728 398.425 -83.4221 398.613 -83.1157 398.8C-83.8646 399.267 -84.3263 399.952 -84.4997 400.857C-84.9756 401.601 -85.4691 401.72 -85.9802 401.214C-87.5273 402.408 -87.495 402.974 -85.8837 402.913C-86.4308 402.551 -86.4103 402.311 -85.8222 402.194C-84.9365 402.921 -84.911 403.567 -85.7462 404.133C-87.5895 403.504 -89.3099 403.84 -90.9074 405.143C-90.4106 405.478 -89.837 405.366 -89.187 404.806C-88.9676 405.067 -88.7482 405.327 -88.5287 405.587C-89.6603 405.888 -90.8076 406.113 -91.9695 406.26C-91.5033 406.461 -91.0372 406.662 -90.571 406.863C-90.7445 407.009 -90.9184 407.156 -91.0918 407.302C-89.8258 407.571 -88.5602 407.84 -87.2942 408.11C-87.0696 408.576 -86.7842 409.003 -86.437 409.391C-86.2732 408.882 -86.1389 408.249 -86.0331 407.492C-85.6496 407.065 -85.2431 407.02 -84.8131 407.355C-85.341 408.341 -85.5094 409.374 -85.3194 410.453C-86.0061 410.82 -86.7395 410.919 -87.5196 410.749C-87.388 410.096 -87.4134 409.449 -87.5956 408.809C-88.07 409.689 -88.6436 409.801 -89.316 409.145C-89.1917 408.873 -89.0109 408.646 -88.7746 408.466C-89.6517 408.113 -90.5385 408.118 -91.4342 408.481C-91.8687 408.192 -92.2415 407.837 -92.5518 407.419C-92.6957 407.768 -92.8901 408.154 -93.1341 408.577C-91.5498 409.392 -91.4651 410.286 -92.8797 411.258C-93.1902 410.977 -93.4028 410.637 -93.5175 410.236C-94.0519 410.835 -94.5318 410.794 -94.957 410.113C-95.019 409.114 -94.937 408.154 -94.7111 407.234C-95.4461 408.394 -96.0061 408.346 -96.3905 407.091C-94.9985 405.869 -93.9823 404.344 -93.3416 402.518C-92.4427 403.188 -91.2637 403.53 -89.8043 403.545C-90.131 402.701 -90.604 402.58 -91.2233 403.182C-91.8083 402.488 -91.7536 401.848 -91.0594 401.263C-89.9995 402.084 -89.6662 401.951 -90.0587 400.865C-89.5746 400.086 -88.8872 399.581 -87.996 399.35C-88.1421 399.176 -88.2887 399.002 -88.4348 398.829C-87.6554 398.764 -86.9152 398.585 -86.2141 398.294C-85.816 399.178 -85.5642 400.005 -85.4594 400.775C-85.2424 400.35 -84.9683 399.971 -84.6372 399.637C-85.7858 398.496 -85.738 397.936 -84.4937 397.957C-85.0624 395.442 -84.7155 395.149 -83.4521 397.079C-82.9633 396.891 -82.5363 396.605 -82.1706 396.222C-82.0244 396.396 -81.8778 396.57 -81.7317 396.743C-81.2089 396.179 -80.9945 395.553 -81.088 394.865C-83.3564 396.134 -83.7288 395.78 -82.2056 393.803C-82.7084 393.08 -82.5008 392.534 -81.5823 392.164C-81.6379 390.297 -82.308 388.709 -83.5921 387.401C-84.259 387.666 -84.9264 387.931 -85.5934 388.197C-85.9847 387.764 -86.1035 387.271 -85.9503 386.716C-87.116 386.546 -87.4702 386.918 -87.0124 387.834C-87.9498 389.172 -89.2245 389.949 -90.8365 390.165C-91.0559 389.905 -91.2754 389.645 -91.4948 389.384C-91.0688 388.46 -90.5138 387.621 -89.8299 386.868C-90.201 385.956 -89.8263 385.344 -88.7063 385.031C-88.2229 385.619 -88.4169 386.005 -89.2886 386.189C-88.624 387.921 -88.1374 387.883 -87.8286 386.072C-86.5316 385.974 -85.2319 385.843 -83.9285 385.681C-85.8165 383.661 -85.566 381.669 -83.1763 379.703C-82.6644 380.857 -81.8185 381.332 -80.6397 381.128C-80.7369 380.133 -80.6481 379.093 -80.3733 378.009C-79.1157 379.459 -78.5426 379.346 -78.6529 377.673C-76.8678 379.89 -75.1789 381.806 -73.5857 383.422C-72.9506 382.891 -72.3907 382.939 -71.9063 383.566C-71.6357 383.131 -71.515 382.658 -71.5434 382.147C-70.5607 382.321 -69.6215 382.643 -68.7259 383.112C-68.9075 384.197 -69.0031 385.317 -69.0128 386.471C-69.193 386.697 -69.3738 386.924 -69.5541 387.15C-69.837 384.956 -70.4634 384.742 -71.4324 386.506C-70.4927 387.292 -69.5076 388.02 -68.4774 388.692C-68.3509 386.243 -67.0079 384.666 -64.4484 383.961C-65.0487 383.673 -65.682 383.538 -66.3472 383.557C-66.3663 382.892 -66.2315 382.259 -65.9434 381.658C-64.8633 382.135 -63.803 381.984 -62.763 381.205C-63.1232 380.686 -63.2352 380.112 -63.0994 379.485C-62.1129 379.32 -61.1465 379.323 -60.1999 379.491C-60.8419 379.882 -61.5157 380.227 -62.2217 380.526C-62.1029 381.02 -61.8102 381.367 -61.344 381.568C-60.4152 380.347 -59.2138 379.483 -57.7393 378.976C-56.8451 379.841 -56.2875 380.856 -56.0659 382.019C-56.8746 381.872 -57.6812 381.884 -58.4855 382.054C-57.5368 382.383 -56.8649 383.004 -56.4697 383.917C-54.8296 382.568 -54.7867 381.122 -56.3408 379.579C-55.6553 379.096 -55.3607 378.477 -55.4571 377.721C-56.1663 378.17 -56.8929 378.188 -57.6368 377.776C-57.3031 377.644 -56.9699 377.511 -56.6362 377.378C-57.196 376.649 -57.6945 375.881 -58.1312 375.076C-58.5059 375.688 -58.8254 375.661 -59.0908 374.994C-58.9945 374.126 -59.0059 373.319 -59.1259 372.574C-59.6277 371.936 -60.1872 371.888 -60.8053 372.431C-61.1158 372.15 -61.3284 371.81 -61.443 371.409C-59.4637 370.113 -57.721 368.57 -56.2144 366.781C-56.7332 365.634 -57.4511 364.606 -58.3677 363.697C-57.5691 363.447 -57.0297 363.735 -56.7497 364.56C-56.151 363.622 -55.5095 362.71 -54.8244 361.825C-55.6834 361.548 -56.643 361.466 -57.7034 361.579C-57.7423 360.427 -57.6535 359.387 -57.437 358.46C-58.2649 358.131 -58.3905 357.717 -57.8144 357.219C-57.0408 358.145 -56.1358 358.866 -55.0993 359.385C-54.2689 360.996 -53.078 362.146 -51.5271 362.831C-49.4575 361.236 -47.3879 359.641 -45.3183 358.045C-45.9298 357.379 -46.3482 356.618 -46.5734 355.763C-47.5902 353.934 -48.726 352.145 -49.9817 350.397C-49.9407 349.917 -49.8997 349.437 -49.8588 348.957C-50.3718 347.93 -51.0574 347.469 -51.9155 347.573C-52.2311 346.848 -52.0963 346.216 -51.5117 345.675C-51.4674 346.112 -51.3486 346.605 -51.1548 347.155C-50.4671 347.037 -49.9531 346.678 -49.6129 346.078C-49.8899 345.044 -50.3748 344.117 -51.0669 343.296C-52.0788 343.589 -53.0249 343.347 -53.9049 342.57C-54.2094 343.267 -54.0174 343.848 -53.3286 344.311C-53.589 344.53 -53.8494 344.75 -54.1098 344.969C-56.0027 342.436 -57.998 340.332 -60.0957 338.658C-62.5343 335.412 -65.1674 332.287 -67.9949 329.283C-74.1544 333.583 -80.1756 338.063 -86.0595 342.724C-86.5359 342.433 -86.6428 342.746 -86.3814 343.663C-86.0158 344.097 -85.6498 344.531 -85.2842 344.965C-85.9139 344.84 -86.4807 344.871 -86.9841 345.061C-87.564 344.285 -88.3229 343.737 -89.2603 343.417C-90.7129 345.586 -92.9104 347.734 -95.8525 349.862C-95.7594 350.063 -95.606 350.156 -95.3931 350.143C-95.5939 350.609 -95.9413 350.902 -96.4347 351.021C-96.7984 350.588 -97.2118 350.713 -97.6753 351.398C-98.0363 351.851 -98.0773 352.331 -97.7983 352.838C-95.8967 355.094 -93.9948 357.352 -92.0932 359.608C-90.3574 358.146 -88.621 356.682 -86.8851 355.22C-86.3161 356.571 -85.3838 356.973 -84.0881 356.425C-83.6187 357.166 -83.1134 357.853 -82.5726 358.488C-84.7099 360.435 -86.8068 362.35 -88.8634 364.234C-88.4677 365.503 -87.7566 366.611 -86.7306 367.558C-87.054 368.113 -87.4218 368.645 -87.8337 369.155C-89.1271 369.206 -90.42 369.257 -91.7133 369.307C-92.3102 368.967 -92.9293 368.673 -93.5712 368.424C-93.0869 366.919 -93.4798 366.805 -94.7503 368.081C-94.6956 367.442 -94.641 366.802 -94.5863 366.162C-95.4285 366.708 -96.0568 367.46 -96.4706 368.418C-96.7951 367.967 -96.994 367.466 -97.0674 366.917C-97.9376 367.762 -98.1793 368.708 -97.7932 369.755C-98.2486 369.303 -98.6073 368.789 -98.8698 368.213C-97.4549 366.937 -97.3729 365.978 -98.6239 365.334C-97.9998 364.733 -97.3119 364.228 -96.5611 363.818C-97.0782 363.416 -97.0441 363.016 -96.4587 362.619C-95.2937 362.346 -94.1396 362.041 -92.9974 361.706C-93.5369 361.418 -93.9024 360.984 -94.0945 360.404C-94.3187 360.833 -94.6661 361.126 -95.1362 361.282C-95.8134 360.491 -96.6456 359.856 -97.6318 359.377C-97.9108 358.87 -98.1894 358.363 -98.4685 357.855C-97.9375 357.394 -97.8096 356.841 -98.0851 356.197C-98.3342 356.742 -98.6948 357.194 -99.1677 357.554C-100.019 357.19 -100.871 356.795 -101.725 356.369C-100.081 354.258 -100.625 353.083 -103.357 352.846C-103.226 352.194 -103.251 351.547 -103.433 350.906C-103.976 350.94 -104.55 351.052 -105.154 351.243C-105.713 351.028 -105.693 350.788 -105.092 350.523C-105.385 350.176 -105.704 350.148 -106.052 350.441C-106.206 351.316 -106.608 352.248 -107.257 353.238C-106.47 353.433 -105.73 353.255 -105.037 352.703C-105.423 354.416 -106.492 355.613 -108.244 356.296C-109.608 355.783 -109.647 355.296 -108.361 354.836C-107.848 355.553 -107.521 355.5 -107.38 354.678C-107.52 354.424 -107.659 354.17 -107.799 353.917C-110.34 355.232 -110.785 354.791 -109.136 352.594C-109.529 351.711 -110.068 351.423 -110.754 351.731C-111.159 351.296 -111.437 350.789 -111.59 350.21C-111.992 351.142 -112.394 352.074 -112.796 353.007C-112.892 352.387 -113.084 351.806 -113.372 351.266C-112.866 350.755 -112.984 350.261 -113.729 349.785C-113.076 349.68 -112.422 349.575 -111.769 349.469C-112.697 348.79 -113.182 347.863 -113.223 346.687C-113.372 347.809 -113.993 348.481 -115.087 348.703C-114.712 348.884 -114.412 349.151 -114.188 349.504C-116.267 350.565 -117.536 352.229 -117.998 354.496C-119.039 354.365 -119.971 353.963 -120.795 353.29C-121.835 354.51 -122.198 355.929 -121.884 357.547C-121.318 356.081 -120.398 355.677 -119.122 356.333C-118.263 355.132 -117.63 355.267 -117.223 356.737C-118.202 356.931 -118.97 357.429 -119.526 358.232C-119.658 357.898 -119.791 357.565 -119.923 357.231C-120.684 357.966 -121.591 358.211 -122.644 357.966C-121.713 362.58 -123.525 364.923 -128.078 364.993C-127.277 365.789 -126.404 365.944 -125.459 365.458C-124.769 367.891 -123.489 368.001 -121.621 365.786C-121.488 366.773 -121.163 367.687 -120.647 368.528C-121.675 368.709 -121.775 368.942 -120.948 369.227C-120.208 369.049 -119.467 368.87 -118.727 368.692C-119.256 368.526 -119.716 368.245 -120.105 367.849C-119.932 367.703 -119.758 367.556 -119.584 367.41C-118.081 368.24 -117.813 367.941 -118.783 366.512C-119.548 366.947 -120.261 366.805 -120.921 366.088C-120.396 364.811 -119.989 364.765 -119.701 365.95C-119.272 364.831 -118.792 364.872 -118.262 366.073C-117.62 367.444 -117.163 368.691 -116.89 369.815C-119.984 369.491 -120.011 369.811 -116.972 370.775C-117.145 370.921 -117.319 371.068 -117.493 371.214C-117.205 371.754 -117.013 372.335 -116.916 372.955C-116.716 372.489 -116.514 372.022 -116.314 371.556C-116.137 372.785 -116.619 373.71 -117.759 374.333C-118.361 373.045 -118.745 371.885 -118.912 370.851C-119.718 371.79 -120.447 372.775 -121.097 373.806C-120.42 374.207 -120.147 374.794 -120.281 375.567C-121.07 375.51 -121.683 375.135 -122.119 374.444C-123.372 374.819 -123.407 375.219 -122.221 375.643C-123.225 375.65 -124.206 375.808 -125.161 376.117C-125.085 376.407 -124.945 376.66 -124.743 376.878C-126.033 376.986 -127.266 377.284 -128.444 377.77C-128.6 375.823 -128.92 375.796 -129.404 377.688C-129.621 376.448 -130.021 376.414 -130.603 377.586C-129.396 378.195 -128.518 379.237 -127.97 380.711C-128.443 381.197 -128.922 381.156 -129.41 380.588C-129.819 379.837 -130.325 379.149 -130.925 378.525C-131.286 378.977 -131.327 379.457 -131.048 379.964C-130.263 380.619 -129.852 381.459 -129.814 382.486C-129.269 382.041 -128.702 382.009 -128.114 382.39C-128.489 382.874 -128.777 383.413 -128.977 384.008C-129.048 383.002 -129.434 382.808 -130.136 383.426C-130.794 382.731 -131.372 381.956 -131.871 381.102C-131.736 380.196 -131.901 379.296 -132.365 378.402C-132.731 378.785 -133.158 379.07 -133.646 379.259C-135.657 378.284 -137.228 376.861 -138.357 374.99C-139.301 375.476 -140.174 375.321 -140.975 374.525C-139.241 373.724 -139.187 373.084 -140.811 372.605C-140.156 371.682 -139.295 371.03 -138.228 370.651C-137.762 370.852 -137.469 371.199 -137.35 371.693C-137.864 372.051 -138.378 372.411 -138.892 372.769C-138.295 372.783 -137.822 372.904 -137.473 373.132C-138.077 373.605 -138.75 373.95 -139.495 374.168C-138.525 374.51 -137.625 374.345 -136.794 373.674C-136.648 373.847 -136.502 374.021 -136.355 374.194C-135.396 372.635 -133.975 372.031 -132.092 372.383C-133.276 371.335 -134.054 370.06 -134.424 368.559C-134.276 370.098 -135.011 371.163 -136.63 371.754C-136.67 370.595 -136.814 369.455 -137.063 368.334C-138.243 366.969 -139.593 365.807 -141.115 364.846C-140.374 363.88 -140.514 363.627 -141.534 364.085C-142.473 363.506 -143.072 362.971 -143.33 362.482C-137.286 363.691 -131.202 364.131 -125.076 363.799C-124.463 363.415 -124.015 362.89 -123.733 362.223C-120.425 341.911 -114.879 322.247 -107.094 303.227C-106.706 302.455 -106.638 301.655 -106.889 300.828C-108.498 302.218 -109.768 303.881 -110.699 305.819C-118.159 323.912 -123.383 342.638 -126.372 361.997C-132.516 361.706 -138.56 360.787 -144.503 359.24C-145.133 358.724 -145.398 358.057 -145.299 357.239C-141.62 341.519 -137.155 326.031 -131.905 310.775C-130.836 308.476 -129.525 306.332 -127.973 304.344C-120.87 298.653 -113.281 293.743 -105.206 289.614C-94.5212 285.055 -83.8206 280.492 -73.1039 275.922C-62.1275 269.794 -52.0673 262.356 -42.9232 253.609C-37.8368 247.849 -36.23 241.3 -38.1035 233.962C-37.9096 233.576 -37.7152 233.189 -37.5213 232.803C-32.4044 235.974 -29.4946 240.573 -28.7913 246.599C-28.1672 250.718 -27.4689 254.805 -26.6969 258.861Z" fill="#1F1F1F"></path><path fill-rule="evenodd" clip-rule="evenodd" d="M-30.575 355.196C-30.5571 368.76 -27.7175 381.73 -22.0568 394.107C-20.8338 395.066 -19.5286 395.822 -18.1422 396.374C-15.8918 410.392 -10.6121 423.087 -2.30359 434.46C-0.104821 437.424 2.40946 440.056 5.23878 442.354C5.39578 448.173 5.46395 453.978 5.4428 459.772C0.160653 456.963 -4.70447 453.567 -9.15358 449.583C-17.0192 440.42 -22.1632 429.911 -24.5858 418.057C-24.8636 413.398 -25.6005 408.824 -26.7971 404.335C-28.4027 402.688 -29.8654 400.953 -31.1856 399.127C-33.1469 391.532 -33.8578 383.819 -33.3174 375.987C-32.4626 368.972 -31.5483 362.041 -30.575 355.196Z" fill="#121212"></path></g><defs><clipPath id="clip0_5_721"><rect width="493.135" height="493.135" fill="white" transform="translate(-328.69 0.34375) rotate(4.88185)"></rect></clipPath></defs></svg> 