<?xml version="1.0" encoding="UTF-8"?> <svg xmlns="http://www.w3.org/2000/svg" width="148" height="52" viewBox="0 0 148 52" fill="none"><rect x="0.449376" y="0.474279" width="146.419" height="51.0514" rx="13.0319" fill="#40B8FD"></rect><rect x="0.449376" y="0.474279" width="146.419" height="51.0514" rx="13.0319" stroke="black" stroke-width="0.898753"></rect><path d="M18.2919 25.9137L21.5994 27.0369L29.4527 22.2359C29.5667 22.1665 29.6833 22.3211 29.5852 22.4115L23.6399 27.8838L23.4191 30.9473C23.4155 30.9987 23.4276 31.0499 23.4537 31.0942C23.4799 31.1384 23.5189 31.1737 23.5656 31.1954C23.6123 31.217 23.6644 31.2239 23.7151 31.2152C23.7658 31.2065 23.8127 31.1826 23.8495 31.1466L25.6799 29.3465L29.0264 31.8795C29.387 32.1527 29.9093 31.9601 30.0064 31.5184L32.3365 20.9385C32.4695 20.3351 31.8779 19.8256 31.3011 20.0464L18.2755 25.0344C17.8667 25.191 17.878 25.7729 18.2919 25.9137Z" fill="black"></path><path d="M41.519 27.9865L43.3435 27.6091C43.4022 27.7936 43.4903 27.9614 43.6077 28.1124C43.8762 28.4479 44.2285 28.6157 44.6647 28.6157C45.1177 28.6157 45.47 28.4773 45.7216 28.2005C45.9817 27.9236 46.1117 27.5378 46.1117 27.0429V21.192H47.9991V27.0429C47.9991 28.083 47.7013 28.9009 47.1057 29.4965C46.5185 30.0836 45.7048 30.3772 44.6647 30.3772C43.5826 30.3772 42.7354 29.9788 42.123 29.1819C41.8462 28.8464 41.6449 28.4479 41.519 27.9865ZM50.0776 29.2071C49.4066 28.5444 49.071 27.7391 49.071 26.7912C49.071 25.8433 49.4066 25.0422 50.0776 24.3879C50.7487 23.7253 51.5875 23.3939 52.5941 23.3939C53.5924 23.3939 54.427 23.7253 55.0981 24.3879C55.7775 25.0422 56.1172 25.8433 56.1172 26.7912C56.1172 27.7391 55.7775 28.5444 55.0981 29.2071C54.427 29.8613 53.5924 30.1885 52.5941 30.1885C51.5875 30.1885 50.7487 29.8613 50.0776 29.2071ZM51.3862 25.4323C51.0591 25.7846 50.8955 26.2376 50.8955 26.7912C50.8955 27.3448 51.0591 27.7978 51.3862 28.1501C51.7134 28.5024 52.116 28.6786 52.5941 28.6786C53.0723 28.6786 53.4749 28.5024 53.8021 28.1501C54.1292 27.7978 54.2928 27.3448 54.2928 26.7912C54.2928 26.2376 54.1292 25.7846 53.8021 25.4323C53.4749 25.08 53.0723 24.9038 52.5941 24.9038C52.116 24.9038 51.7134 25.08 51.3862 25.4323ZM57.2918 22.488C57.0989 22.295 57.0024 22.0728 57.0024 21.8211C57.0024 21.5695 57.0989 21.3514 57.2918 21.1668C57.4932 20.9739 57.7322 20.8774 58.0091 20.8774C58.2859 20.8774 58.5207 20.9739 58.7137 21.1668C58.915 21.3514 59.0157 21.5695 59.0157 21.8211C59.0157 22.0728 58.915 22.295 58.7137 22.488C58.5207 22.6725 58.2859 22.7648 58.0091 22.7648C57.7322 22.7648 57.4932 22.6725 57.2918 22.488ZM57.1283 29.9998V23.5827H58.8898V29.9998H57.1283ZM60.2739 29.9998V23.5827H62.0355V24.4634H62.0984C62.2074 24.2705 62.3626 24.0944 62.5639 23.935C63.0253 23.5743 63.5412 23.3939 64.1116 23.3939C64.9085 23.3939 65.525 23.6246 65.9612 24.086C66.4058 24.5473 66.6281 25.2184 66.6281 26.0992V29.9998H64.8665V26.3508C64.8665 25.8811 64.7491 25.5246 64.5142 25.2813C64.2877 25.0297 63.9648 24.9038 63.5454 24.9038C63.126 24.9038 62.7694 25.0632 62.4759 25.382C62.1823 25.7007 62.0355 26.1076 62.0355 26.6025V29.9998H60.2739ZM70.2873 22.9535V21.192H77.8369V22.9535H75.0058V29.9998H73.1184V22.9535H70.2873ZM78.769 29.2071C78.1063 28.5444 77.7749 27.7391 77.7749 26.7912C77.7749 25.8433 78.1063 25.0422 78.769 24.3879C79.44 23.7253 80.2621 23.3939 81.2351 23.3939C82.225 23.3939 83.0386 23.7211 83.6762 24.3754C84.3137 25.0297 84.6324 25.8349 84.6324 26.7912V27.1687H79.5994C79.6665 27.5881 79.8553 27.9446 80.1656 28.2382C80.476 28.5318 80.8325 28.6786 81.2351 28.6786C81.6797 28.6786 82.0614 28.5528 82.3801 28.3011C82.506 28.1921 82.6066 28.0662 82.6821 27.9236H84.5695C84.4269 28.3514 84.2172 28.7289 83.9404 29.0561C83.2693 29.811 82.3676 30.1885 81.2351 30.1885C80.2621 30.1885 79.44 29.8613 78.769 29.2071ZM79.6623 26.0992H82.745C82.6779 25.7636 82.506 25.4826 82.2292 25.2561C81.9607 25.0213 81.6294 24.9038 81.2351 24.9038C80.8409 24.9038 80.5054 25.0171 80.2285 25.2436C79.9517 25.47 79.763 25.7552 79.6623 26.0992ZM85.697 29.9998V21.192H87.4586V28.4899H88.9056V29.9998H85.697ZM90.3439 29.2071C89.6812 28.5444 89.3499 27.7391 89.3499 26.7912C89.3499 25.8433 89.6812 25.0422 90.3439 24.3879C91.015 23.7253 91.837 23.3939 92.8101 23.3939C93.7999 23.3939 94.6136 23.7211 95.2511 24.3754C95.8886 25.0297 96.2074 25.8349 96.2074 26.7912V27.1687H91.1744C91.2415 27.5881 91.4302 27.9446 91.7406 28.2382C92.0509 28.5318 92.4074 28.6786 92.8101 28.6786C93.2547 28.6786 93.6363 28.5528 93.9551 28.3011C94.0809 28.1921 94.1816 28.0662 94.2571 27.9236H96.1445C96.0019 28.3514 95.7922 28.7289 95.5153 29.0561C94.8443 29.811 93.9425 30.1885 92.8101 30.1885C91.837 30.1885 91.015 29.8613 90.3439 29.2071ZM91.2373 26.0992H94.32C94.2529 25.7636 94.0809 25.4826 93.8041 25.2561C93.5357 25.0213 93.2043 24.9038 92.8101 24.9038C92.4158 24.9038 92.0803 25.0171 91.8035 25.2436C91.5267 25.47 91.3379 25.7552 91.2373 26.0992ZM97.813 29.1316C97.2426 28.5108 96.9574 27.7097 96.9574 26.7283C96.9574 25.7469 97.2426 24.9458 97.813 24.325C98.3834 23.7043 99.0839 23.3939 99.9143 23.3939C100.468 23.3939 100.975 23.5659 101.437 23.9098C101.63 24.0692 101.793 24.237 101.928 24.4131H101.99V23.5827H103.752V32.3904H97.9011V30.8805H101.99V29.0435H101.928C101.785 29.2448 101.621 29.4168 101.437 29.5594C100.984 29.8949 100.476 30.0627 99.9143 30.0627C99.0839 30.0627 98.3834 29.7523 97.813 29.1316ZM99.2349 25.3945C98.9329 25.7217 98.7819 26.1663 98.7819 26.7283C98.7819 27.2903 98.9329 27.7349 99.2349 28.062C99.5368 28.3892 99.9311 28.5528 100.418 28.5528C100.879 28.5528 101.256 28.3892 101.55 28.062C101.844 27.7349 101.99 27.2903 101.99 26.7283C101.99 26.1663 101.844 25.7217 101.55 25.3945C101.256 25.0674 100.879 24.9038 100.418 24.9038C99.9311 24.9038 99.5368 25.0674 99.2349 25.3945ZM105.136 29.9998V23.5827H106.898V24.5264H106.961C107.036 24.325 107.149 24.1489 107.3 23.9979C107.644 23.6372 108.076 23.4568 108.596 23.4568H109.351V25.1555H108.408C107.929 25.1555 107.556 25.2855 107.288 25.5455C107.028 25.7972 106.898 26.1495 106.898 26.6025V29.9998H105.136ZM110.764 29.2574C110.202 28.6283 109.921 27.8062 109.921 26.7912C109.921 25.7762 110.202 24.9584 110.764 24.3376C111.334 23.7085 112.039 23.3939 112.878 23.3939C113.44 23.3939 113.947 23.5617 114.4 23.8972C114.593 24.0566 114.757 24.2244 114.891 24.4005H114.954V23.5827H116.715V29.9998H114.954V29.1819H114.891C114.757 29.358 114.593 29.5258 114.4 29.6852C113.947 30.0207 113.44 30.1885 112.878 30.1885C112.039 30.1885 111.334 29.8781 110.764 29.2574ZM112.186 25.4071C111.892 25.7427 111.745 26.204 111.745 26.7912C111.745 27.3784 111.892 27.8398 112.186 28.1753C112.479 28.5108 112.857 28.6786 113.318 28.6786C113.805 28.6786 114.199 28.515 114.501 28.1879C114.803 27.8523 114.954 27.3868 114.954 26.7912C114.954 26.1956 114.803 25.7343 114.501 25.4071C114.199 25.0716 113.805 24.9038 113.318 24.9038C112.857 24.9038 112.479 25.0716 112.186 25.4071ZM118.1 29.9998V23.5827H119.861V24.4634H119.924C120.041 24.2537 120.184 24.0776 120.352 23.935C120.763 23.5743 121.249 23.3939 121.811 23.3939C122.482 23.3939 123.044 23.5952 123.497 23.9979C123.682 24.174 123.833 24.3712 123.95 24.5893H124.013C124.131 24.3712 124.282 24.174 124.466 23.9979C124.919 23.5952 125.46 23.3939 126.089 23.3939C126.861 23.3939 127.461 23.6288 127.889 24.0985C128.325 24.5599 128.543 25.2268 128.543 26.0992V29.9998H126.781V26.2879C126.781 25.3652 126.383 24.9038 125.586 24.9038C125.2 24.9038 124.873 25.0548 124.605 25.3568C124.336 25.6588 124.202 26.053 124.202 26.5396V29.9998H122.44V26.2879C122.44 25.3652 122.042 24.9038 121.245 24.9038C120.859 24.9038 120.532 25.0548 120.264 25.3568C119.995 25.6588 119.861 26.053 119.861 26.5396V29.9998H118.1Z" fill="black"></path></svg> 