<?xml version="1.0" encoding="UTF-8"?> <svg xmlns="http://www.w3.org/2000/svg" width="34" height="34" viewBox="0 0 34 34" fill="none"><rect width="34" height="34" rx="8" fill="#858585"></rect><path d="M15.0674 9.30903C14.5133 9.45942 13.8009 9.83146 13.049 10.346L12.4236 10.7734L12.1703 10.6468C12.0278 10.5755 11.83 10.4489 11.7271 10.3697C11.4183 10.1243 11.3788 10.1956 11.6004 10.5993C12.0753 11.4779 13.3339 12.7048 14.6083 13.5597C15.3761 14.0663 15.3999 14.0742 16.2389 13.8605C16.5476 13.7892 16.6585 13.7972 16.9038 13.8921C17.0701 13.9634 17.2917 14.0188 17.4104 14.0188C17.8379 14.0188 19.5002 12.8315 20.3075 11.9449C20.7825 11.4225 21.5345 10.3697 21.5345 10.2193C21.5345 10.0927 21.4157 10.1243 21.2495 10.3064C21.0516 10.5201 20.7192 10.6943 20.4975 10.6943C20.3946 10.6943 20.1176 10.5359 19.8801 10.346C19.3893 9.96602 18.7878 9.64148 18.1308 9.41193C17.5371 9.19821 15.669 9.13489 15.0674 9.30903Z" fill="#010910"></path><path d="M11.5766 12.4515C11.2679 13.0926 11.1729 13.6784 11.0858 15.5148C10.9434 18.681 10.8088 19.5834 10.2785 21.0082C10.1043 21.4832 9.98558 21.8869 10.0014 21.9106C10.0252 21.9343 10.3734 21.6969 10.7771 21.3882C11.1729 21.0715 11.545 20.8341 11.5924 20.8499C11.6399 20.8657 11.9328 21.2853 12.2494 21.776C12.5581 22.2747 12.851 22.6942 12.8985 22.7101C12.9381 22.7259 13.2626 22.4805 13.6109 22.1797L14.2442 21.6177L14.3866 21.8077C14.4737 21.9106 14.9012 22.5755 15.3523 23.2879C16.2626 24.7444 16.4289 24.9739 16.5397 24.9106C16.5793 24.8869 17.0542 24.1586 17.5925 23.3037C18.1228 22.4489 18.5898 21.7127 18.6136 21.6731C18.6452 21.6336 18.946 21.8552 19.3022 22.1639C19.6505 22.4726 19.9671 22.7259 20.0146 22.7259C20.0621 22.7259 20.3708 22.2985 20.7033 21.776C21.0357 21.2536 21.3444 20.8262 21.384 20.8262C21.4315 20.8262 21.8035 21.0953 22.2152 21.4277C22.6268 21.7602 22.9751 22.0214 22.9988 22.0056C23.0146 21.9898 22.8721 21.5544 22.6822 21.0478C22.1202 19.5597 22.0885 19.3301 21.851 15.0874C21.7719 13.5755 21.7165 13.2984 21.3999 12.5702L21.194 12.1111L20.9962 12.2932C20.8933 12.3961 20.6954 12.6098 20.5687 12.776L20.3233 13.0847L20.4658 13.6546C20.6004 14.1929 20.6004 14.2404 20.4737 14.6362C20.3075 15.1269 19.7772 15.6415 19.2864 15.7681C18.756 15.9027 18.5661 16.0293 18.5423 16.243C18.5107 16.528 18.7086 16.7417 19.4684 17.2087C19.8405 17.4383 20.1492 17.6599 20.165 17.6995C20.1809 17.747 19.8959 17.9607 19.5397 18.1744C18.2653 18.9423 17.9407 19.4647 17.0542 22.1639C16.7534 23.0584 16.508 23.8103 16.4922 23.8262C16.4368 23.8974 16.3814 23.747 16.1597 22.9555C15.851 21.8552 15.194 20.1375 14.8457 19.5201C14.5291 18.9423 14.2362 18.6652 13.4684 18.214C13.1676 18.032 12.8748 17.842 12.8352 17.7866C12.764 17.7074 12.9302 17.5649 13.5159 17.1771L14.2917 16.6705V16.3222V15.966L13.8405 15.8314C13.2151 15.6494 12.8589 15.404 12.6373 15.024C12.3761 14.5649 12.3365 14.2167 12.4711 13.6626C12.574 13.2035 12.574 13.1797 12.3919 12.871C12.289 12.6969 12.099 12.4515 11.9724 12.3327L11.7349 12.1111L11.5766 12.4515Z" fill="#010910"></path><path d="M13.3022 14.098C13.3022 14.4304 13.4843 14.7629 13.7376 14.8737C14.0542 15.0162 14.8062 15.0004 14.8062 14.85C14.8062 14.7312 13.5555 13.8605 13.3893 13.8605C13.3418 13.8605 13.3022 13.9713 13.3022 14.098Z" fill="#010910"></path><path d="M19.0729 14.0822C18.9146 14.2009 18.6217 14.3909 18.4159 14.5096C17.8856 14.8263 17.9252 14.9688 18.5505 14.9688C19.3183 14.9688 19.8091 14.573 19.6824 14.0664C19.6191 13.8052 19.4449 13.8131 19.0729 14.0822Z" fill="#010910"></path><path d="M16.0883 14.7787C15.5975 15.032 15.3284 15.5703 15.2097 16.5597C15.1464 17.0267 15.083 17.2484 14.996 17.3038C14.9247 17.3434 14.7743 17.4542 14.6714 17.5412L14.4814 17.6996L14.9801 18.222C15.5342 18.7998 15.8667 19.3618 16.1991 20.2959C16.4524 21.0241 16.4841 21.0162 16.864 20.0584C17.1965 19.1956 17.5764 18.5861 18.0672 18.0874L18.463 17.6758L18.1147 17.4383L17.7585 17.193L17.711 16.536C17.6081 15.1903 16.864 14.3908 16.0883 14.7787Z" fill="#010910"></path></svg> 