<?xml version="1.0" encoding="UTF-8"?> <svg xmlns="http://www.w3.org/2000/svg" width="34" height="34" viewBox="0 0 34 34" fill="none"><rect width="34" height="34" rx="8" fill="#858585"></rect><g clip-path="url(#clip0_69_126)"><path d="M20.5 10H13.5C11.54 10 10 11.54 10 13.5V20.5C10 22.46 11.54 24 13.5 24H20.5C22.46 24 24 22.46 24 20.5V13.5C24 11.54 22.46 10 20.5 10ZM22.6 20.5C22.6 21.69 21.69 22.6 20.5 22.6H13.5C12.31 22.6 11.4 21.69 11.4 20.5V13.5C11.4 12.31 12.31 11.4 13.5 11.4H20.5C21.69 11.4 22.6 12.31 22.6 13.5V20.5Z" fill="#010910"></path><path d="M17 13.5C15.04 13.5 13.5 15.04 13.5 17C13.5 18.96 15.04 20.5 17 20.5C18.96 20.5 20.5 18.96 20.5 17C20.5 15.04 18.96 13.5 17 13.5ZM17 19.1C15.81 19.1 14.9 18.19 14.9 17C14.9 15.81 15.81 14.9 17 14.9C18.19 14.9 19.1 15.81 19.1 17C19.1 18.19 18.19 19.1 17 19.1Z" fill="#010910"></path><path d="M20.5 14.2C20.8866 14.2 21.2 13.8866 21.2 13.5C21.2 13.1134 20.8866 12.8 20.5 12.8C20.1134 12.8 19.8 13.1134 19.8 13.5C19.8 13.8866 20.1134 14.2 20.5 14.2Z" fill="#010910"></path></g><defs><clipPath id="clip0_69_126"><rect width="14" height="14" fill="white" transform="translate(10 10)"></rect></clipPath></defs></svg> 