<?xml version="1.0" encoding="UTF-8"?> <svg xmlns="http://www.w3.org/2000/svg" width="143" height="129" viewBox="0 0 143 129" fill="none"><path d="M138.554 50.8446C151.022 85.4075 131.742 118.878 94.8869 126.839C56.8052 135.065 16.6763 113.408 4.00977 78.4142C-8.62003 43.5219 11.1008 9.72821 49.4695 2.2772C86.7171 -4.95609 125.784 16.5258 138.554 50.8446ZM80.9893 125.997C80.9556 125.885 80.9221 125.773 80.8883 125.66C79.6109 125.49 78.3325 125.333 77.0569 125.137C76.8098 125.099 76.4009 124.924 76.3701 124.787C76.3155 124.543 76.4016 124.178 76.5929 124.044C77.0529 123.722 77.5682 123.414 78.1319 123.259C80.0186 122.741 81.9133 122.229 83.8475 121.832C86.9981 121.184 90.0673 120.276 93.4318 120.28C94.4018 120.281 95.4 120.174 96.2903 119.913C99.1926 119.063 102.038 118.089 104.935 117.226C105.769 116.978 106.703 116.943 107.713 116.792C107.683 117.707 107.661 118.355 107.629 119.314C106.138 119.822 104.378 120.437 102.596 121.011C102.343 121.093 101.986 121.002 101.683 120.943C101.356 120.88 101.022 120.672 100.714 120.681C95.6286 120.831 90.6886 121.517 85.8984 122.7C84.9556 122.933 84.0735 123.349 83.2311 123.777C82.6118 124.092 82.707 124.548 83.4238 124.806C84.0819 125.042 84.7793 125.204 85.4656 125.306C86.9473 125.526 88.4564 125.557 89.9116 125.902C92.0392 126.407 93.8093 126.021 95.4655 125.088C95.9435 124.818 96.4136 124.532 96.9252 124.314C98.2002 123.773 99.4229 123.008 100.805 122.817C102.281 122.613 103.712 122.385 105.047 121.875C108.541 120.54 112.077 119.188 114.836 116.893C116.971 115.116 119.38 113.761 121.875 112.464C123.229 111.759 124.405 110.908 124.819 109.443C125.166 108.218 125.531 106.998 125.859 105.767C126.767 102.358 127.364 98.8604 128.639 95.5545C129.294 93.8588 129.523 91.9958 129.945 90.2084L129.639 90.1042C129.354 90.6297 129.07 91.1554 128.785 91.6809C127.917 93.2826 127.211 94.9862 126.149 96.4655C123.606 100.009 120.208 102.774 116.11 104.882C114.708 105.603 113.322 106.46 112.273 107.533C111.114 108.72 109.772 109.553 108.123 110.04C104.742 111.038 101.336 111.98 97.943 112.952C96.8705 113.259 95.808 113.589 94.7409 113.908C94.7147 113.852 94.6886 113.797 94.6624 113.742C97.0664 112.72 99.4702 111.698 101.874 110.676L101.802 110.543C99.1395 111.299 96.4774 112.055 93.6467 112.86C94.9201 112.121 95.9596 111.377 97.1446 110.87C98.3038 110.373 99.6115 110.116 100.854 109.753C100.804 109.652 100.753 109.551 100.703 109.449C97.637 110.361 94.5712 111.273 91.5054 112.185C91.4797 112.135 91.454 112.085 91.4282 112.035C92.8371 111.396 94.2459 110.756 95.6547 110.116C94.5115 110.213 93.4946 110.535 92.442 110.763C90.4659 111.191 88.6551 112.231 86.3093 111.279C85.6127 110.996 84.6921 111.231 83.8837 111.278C83.2208 111.317 82.9113 111.112 83.0561 110.513C83.3295 109.38 82.5452 108.516 81.8876 107.595C81.7501 107.854 81.7949 108.121 81.7215 108.348C81.4675 109.131 81.3962 110.077 80.8559 110.644C77.817 113.836 73.888 115.71 68.8941 115.706C66.7698 115.704 64.6121 115.404 62.4733 115.301C58.4682 115.108 54.796 113.868 51.5578 111.463C49.3422 109.818 47.2417 108.038 45.1452 106.265C44.8402 106.006 44.6661 105.401 44.7452 105.04C44.884 104.408 45.1891 103.793 45.5672 103.26C45.9588 102.708 46.52 102.262 47.0553 101.721C45.9802 101.472 44.9999 101.266 44.0306 101.009C43.6971 100.92 43.3438 100.751 43.0826 100.536C42.5052 100.059 41.9778 99.5321 41.4357 99.021C41.2429 98.8392 41.0668 98.6436 40.945 98.5181C42.2925 98.2418 43.6653 98.1706 44.7661 97.6755C45.8711 97.1786 46.705 96.2592 47.6576 95.5249C47.589 95.4448 47.5203 95.3648 47.4517 95.2847C46.426 95.7096 45.4116 96.1544 44.372 96.555C42.722 97.1909 40.973 97.039 39.4739 95.9665C36.9151 94.1359 34.2008 92.3966 32.754 89.5883C32.4827 89.0615 31.8742 88.6336 31.3785 88.1998C30.1731 87.1448 29.6787 85.8967 29.6484 84.5018C29.6426 84.233 29.6029 83.9615 29.5788 83.6912C29.4807 83.6589 29.3826 83.6266 29.2846 83.5943C28.8916 84.1847 28.3853 84.7307 28.1378 85.3779C27.8941 86.0157 27.9126 86.756 27.7926 87.6206C24.8729 84.7138 22.0364 81.8995 19.2129 79.0751C17.4985 77.36 16.512 75.4297 16.5036 73.2108C16.4966 71.3715 16.0298 69.6139 14.7926 67.9708C14.0762 67.0194 13.8466 65.9946 13.9082 64.8788C14.0374 62.5372 12.8357 60.3518 11.9868 57.9307C11.7962 58.2225 11.7078 58.3273 11.6528 58.4472C11.38 59.0413 10.87 59.3 10.1302 59.2334C9.34735 59.1629 9.0018 58.6231 8.84253 58.0642C8.63551 57.3377 8.45577 56.5753 8.47945 55.8547C8.6194 51.5954 8.81574 47.343 9.007 43.0902C9.05983 41.9154 9.16007 40.747 9.24224 39.5211C8.79909 40.1072 8.46172 40.6385 8.03577 41.1015C6.50742 42.7629 4.85341 44.3481 4.7343 46.7669C4.72454 46.9652 4.60647 47.1491 4.53729 47.3391C3.54998 50.0508 2.38357 52.697 2.26414 55.6889C2.17654 57.8832 1.77585 60.0294 2.28868 62.2946C2.46691 63.0818 2.16786 63.9054 2.14177 64.719C2.13064 65.0662 2.14345 65.4897 2.34576 65.7771C3.36445 67.2241 3.76946 68.7393 3.76773 70.3478C3.76531 72.5964 4.19632 74.7848 5.72121 76.8174C6.20182 77.458 6.564 78.1653 6.96127 78.8497C8.15585 80.9075 8.82473 83.2007 10.8384 84.8914C11.0421 85.0624 11.2245 85.254 11.5728 85.5837C11.8487 83.9487 12.0892 82.523 12.3571 80.9352C13.1733 81.5532 13.7329 81.9581 14.2698 82.3867C16.3478 84.0454 18.149 85.9174 19.1891 88.2036C20.3086 90.6641 21.3027 93.1657 22.204 95.6789C22.4749 96.4342 22.602 97.5957 22.155 98.0075C21.735 98.3943 20.4707 98.0614 19.5767 97.9923C19.2992 97.9709 19.0108 97.7899 18.7389 97.6593C17.7984 97.2076 16.863 96.746 15.9257 96.2881C16.2506 96.8825 16.6598 97.3742 17.0957 97.8469C19.7489 100.724 22.4055 103.598 25.0667 106.469C26.0611 107.542 27.0625 108.61 28.0755 109.669C30.2796 111.973 32.6949 113.917 36.0419 114.715C38.8269 115.379 41.5423 116.443 43.7133 118.325C45.1458 119.566 46.7121 120.273 48.5118 120.671C49.8476 120.966 51.2361 121.129 52.5031 121.615C54.7556 122.478 56.9351 123.538 59.1423 124.521C60.3287 125.05 61.5381 125.482 62.8123 125.295C64.4533 125.055 66.0748 125.435 67.7254 125.719C71.9443 126.445 76.1654 126.954 80.2943 126.254C80.5401 126.212 80.7583 126.085 80.9893 125.997ZM95.3352 95.173C95.8877 95.0317 96.4362 94.881 96.993 94.7505C100.356 93.9626 103.341 92.6818 105.052 89.8831C106.306 87.8321 106.668 85.9963 104.455 83.656C103.669 82.8246 102.945 81.9254 102.051 81.2012C101.306 80.5969 100.386 80.1328 99.4856 79.7359C98.6009 79.3462 97.6481 79.0986 96.7159 78.8256C94.7964 78.2635 93.0644 77.0546 90.9964 77.0022C90.1748 76.9814 89.3375 77.0149 88.5279 76.8575C85.5386 76.2763 82.7631 76.4677 80.1658 77.6128C77.4897 78.7926 74.7873 79.9391 73.7345 82.701C72.7425 85.3034 73.0672 88.0063 75.3553 90.184C78.3336 93.0184 82.0135 94.9853 86.2144 95.681C89.3579 96.2016 92.3394 95.5882 95.3352 95.173ZM69.9898 114.328C70.6441 114.111 71.3031 113.903 71.9516 113.675C74.3756 112.824 76.7804 111.959 78.5617 110.202C79.0854 109.686 79.1241 109.134 78.8711 108.51C77.9965 106.35 76.2474 104.792 73.9798 103.947C71.5037 103.025 68.8756 102.541 66.3614 101.708C64.1636 100.98 61.9924 100.429 59.725 100.524C57.5857 100.613 55.2389 100.101 53.3945 101.081C51.6019 102.034 50.034 103.307 48.4556 104.529C48.1321 104.779 48.0431 105.429 48.1127 105.888C48.4387 108.035 50.2008 109.262 52.1705 110.145C54.7127 111.284 57.3305 112.27 59.9468 113.234C63.2649 114.457 66.6207 115.002 69.9898 114.328ZM45.9989 94.8322C47.3332 94.5824 47.9475 93.8238 47.554 92.5796C47.335 91.8871 46.8606 91.1622 46.2995 90.6163C45.3401 89.6828 44.1094 88.9625 43.1919 88.0041C40.4804 85.1716 37.0986 84.9566 33.6492 85.0701C32.2208 85.1172 31.8032 85.7805 32.2806 87.0516C32.5423 87.7483 32.9879 88.4597 33.5315 89.0304C34.5892 90.1405 35.8155 91.1241 36.8984 92.2173C39.5116 94.8556 42.5798 95.5228 45.9989 94.8322ZM107.444 92.2187C107.33 92.1231 107.217 92.0276 107.104 91.932C105.966 92.7066 104.807 93.4583 103.695 94.2609C101.583 95.7855 99.165 96.7408 96.3756 97.0842C94.8711 97.2695 93.4047 97.5982 91.8984 97.7746C91.0469 97.8743 90.119 97.9655 89.2781 97.7662C86.9437 97.213 84.5774 96.6679 82.3335 95.8192C79.3416 94.6876 76.464 93.2605 74.3467 90.8244C74.0673 90.503 73.7224 90.2249 73.4078 89.9267C73.3445 89.9717 73.2813 90.0166 73.218 90.0616C73.4148 90.3753 73.5493 90.7419 73.8181 90.9943C76.146 93.1801 78.3729 95.5031 81.4884 96.7907C83.5105 97.6264 85.4513 98.8622 87.7694 98.5508C88.1863 98.4947 88.7101 98.6342 89.1321 98.8096C91.8502 99.9396 94.5037 100.118 97.1196 99.2647C97.4757 99.1485 97.8857 99.1388 98.2409 99.0212C99.6035 98.5703 101.255 98.3851 102.245 97.568C104.175 95.9745 105.732 94.0223 107.444 92.2187ZM14.031 86.0142C13.2237 87.4957 12.9978 89.0154 13.5263 90.5866C14.3408 93.0087 16.3454 94.7797 18.3838 96.4745C18.6526 96.698 19.3706 96.7786 19.6387 96.6206C19.9368 96.4449 20.1733 95.8821 20.0643 95.5537C19.3739 93.4718 18.7139 91.3692 17.7762 89.3515C17.0947 87.8852 15.5164 87.0056 14.031 86.0142ZM27.908 66.6955C27.8321 66.6675 27.7563 66.6395 27.6804 66.6115C27.5266 66.3378 27.3923 66.0548 27.2157 65.7919C25.9685 63.9343 23.9117 62.9191 22.0327 61.7362C21.8173 61.6005 21.0273 61.7918 20.992 61.9593C20.7601 63.0584 20.125 64.2204 21.1526 65.3327C22.1401 66.4016 23.1726 67.5501 24.4335 68.2703C25.1902 68.7025 26.483 68.5345 27.4093 68.3194C27.758 68.2385 27.7522 67.2631 27.908 66.6955ZM52.7533 67.7514C53.225 69.0187 55.1474 70.14 56.5279 69.9532C57.8741 69.771 58.3976 68.5535 57.5163 67.4896C56.6558 66.4508 55.4572 65.9397 54.101 65.918C53.0559 65.9012 52.4117 66.8338 52.7533 67.7514ZM26.4522 70.7397C25.9151 70.5922 25.3544 70.4999 24.8467 70.2838C24.1251 69.9767 23.3001 69.6978 22.7716 69.1954C21.5125 67.9984 20.4014 66.6773 19.287 65.4678C19.3568 68.3546 22.3502 71.0843 26.4522 70.7397Z" fill="white"></path></svg> 