<?xml version="1.0" encoding="UTF-8"?> <svg xmlns="http://www.w3.org/2000/svg" width="198" height="198" viewBox="0 0 198 198" fill="none"><path d="M155.687 102.557C154.606 97.7575 152.74 93.1045 150.185 88.7386C150.181 88.7237 150.173 88.7114 150.163 88.699C143.362 77.0987 131.715 67.5378 117.048 62.7189C116.872 62.6595 116.694 62.6026 116.516 62.5457C115.855 62.3353 115.189 62.1348 114.516 61.9443C114.169 61.8453 113.82 61.7487 113.471 61.6547C112.771 61.4666 112.073 61.2933 111.373 61.13C111.021 61.0483 110.672 60.9716 110.323 60.8948C97.1165 58.0535 84.0807 59.5039 73.1659 64.2955C60.1227 70.0251 50.1138 80.5266 46.4657 94.1811C45.2752 98.6411 44.8396 103.148 45.0896 107.596C45.1465 108.628 45.2405 109.657 45.3717 110.682C46.8468 122.275 52.9279 133.284 62.2933 141.768C63.2833 142.246 64.8821 142.686 66.278 141.595C67.7927 139.481 69.795 138.08 72.0448 137.286C78.8683 134.878 87.964 138.058 92.6318 143.859C94.4336 146.097 95.5746 148.723 95.6761 151.571C95.7157 152.665 95.5993 153.791 95.3073 154.942C95.4212 155.415 95.6315 155.885 95.983 156.309C96.431 156.848 97.1066 157.311 98.109 157.615C124.646 160.509 149.144 146.423 155.333 123.257C155.385 123.064 155.435 122.869 155.484 122.673C157.182 115.941 157.167 109.113 155.687 102.557ZM113.115 112.065C113.004 112.073 112.892 112.078 112.778 112.083C112.736 112.083 112.692 112.085 112.645 112.088C112.538 112.093 112.429 112.095 112.32 112.095C111.677 112.108 111.009 112.09 110.313 112.046C110.103 112.031 109.888 112.014 109.67 111.994C109.62 111.989 109.568 111.984 109.516 111.979C109.306 111.959 109.093 111.934 108.878 111.91C108.41 111.853 107.93 111.783 107.44 111.699C107.205 111.66 106.967 111.615 106.727 111.568C106.675 111.558 106.621 111.548 106.569 111.538C106.299 111.484 106.027 111.427 105.749 111.365C105.598 111.333 105.447 111.298 105.294 111.261C104.779 111.125 104.274 110.981 103.784 110.835C103.613 110.783 103.443 110.731 103.274 110.679C102.925 110.573 102.581 110.462 102.242 110.348C102.074 110.293 101.908 110.236 101.745 110.18C101.693 110.16 101.638 110.142 101.586 110.125C101.438 110.071 101.289 110.019 101.143 109.967C99.6386 109.42 98.26 108.828 96.9953 108.197C96.8666 108.133 96.7403 108.068 96.6141 108.004C96.4334 107.91 96.2552 107.816 96.0795 107.722C95.9607 107.66 95.8444 107.596 95.7281 107.531C95.5202 107.415 95.3172 107.299 95.1167 107.182C95.0128 107.123 94.9088 107.061 94.8074 106.999C94.7876 106.987 94.7677 106.974 94.7479 106.962C94.6316 106.893 94.5178 106.823 94.4039 106.752C94.149 106.593 93.9015 106.432 93.6589 106.271C93.5179 106.177 93.3817 106.083 93.2456 105.989C92.6021 105.541 92.0032 105.081 91.4463 104.613C91.3622 104.541 91.278 104.472 91.1963 104.398C90.9587 104.195 90.731 103.987 90.5107 103.779C98.9554 96.0498 112.442 100.297 113.504 112.041C113.375 112.051 113.246 112.061 113.115 112.065Z" fill="#F5AF41"></path><path d="M129.224 134.798H129.221C128.743 134.798 128.355 134.41 128.355 133.932C128.355 133.453 128.743 133.066 129.221 133.066C129.7 133.066 130.089 133.453 130.089 133.932C130.089 134.41 129.702 134.798 129.224 134.798Z" fill="black"></path><path d="M150.185 88.7383C150.18 88.7235 150.172 88.7111 150.162 88.6987C144.245 77.5687 132.258 67.686 117.047 62.7186C116.871 62.6592 116.693 62.6023 116.515 62.5454C115.854 62.335 115.188 62.1346 114.515 61.944C114.168 61.845 113.819 61.7484 113.47 61.6544C112.77 61.4663 112.072 61.293 111.372 61.1297C111.02 61.048 110.671 60.9713 110.322 60.8946C96.7072 57.9444 83.4536 59.4814 73.165 64.2952C63.6858 68.728 56.7236 75.9401 54.308 84.9838C53.1967 89.1418 53.4838 95.9183 54.3204 100.113C52.0137 113.486 54.0605 118.322 58.2334 114.946C59.7481 113.721 61.9409 113.865 63.2304 115.325C63.2403 115.337 63.2527 115.35 63.2626 115.362C64.2996 116.533 65.6559 117.322 67.126 117.676C68.2769 117.951 69.4946 117.961 70.6851 117.676C83.3497 114.649 93.0022 118.698 99.2095 130.858C99.2441 130.932 99.2812 131.004 99.3184 131.073C99.4347 131.291 99.5535 131.494 99.6797 131.677C101.234 133.954 103.583 133.749 106.172 133.568C109.221 133.353 112.218 134.541 114.238 136.833C119.435 142.735 124.893 140.837 128.909 134.444C129.823 144.99 137.419 142.364 137.735 132.254C137.787 131.548 137.896 130.912 138.057 130.331C139.631 124.51 146.066 124.316 149.672 119.238C149.672 119.235 149.675 119.233 149.677 119.23C150.128 118.485 150.556 117.706 150.957 116.894C150.959 116.889 150.962 116.882 150.964 116.877C151.801 115.189 152.523 113.36 153.12 111.375C155.338 103.989 154.088 96.0915 150.185 88.7383ZM113.503 112.04C113.374 112.05 113.245 112.06 113.114 112.065C113.003 112.073 112.891 112.078 112.777 112.083C112.735 112.083 112.691 112.085 112.644 112.087C112.537 112.092 112.428 112.095 112.32 112.095C111.676 112.107 111.008 112.09 110.312 112.045C110.102 112.031 109.887 112.013 109.669 111.993C109.619 111.988 109.567 111.984 109.515 111.979C109.305 111.959 109.092 111.934 108.877 111.909C108.409 111.852 107.929 111.783 107.439 111.699C107.204 111.659 106.966 111.615 106.726 111.568C106.674 111.558 106.62 111.548 106.568 111.538C106.298 111.484 106.026 111.427 105.748 111.365C105.597 111.333 105.446 111.298 105.293 111.261C104.778 111.125 104.273 110.981 103.783 110.835C103.612 110.783 103.442 110.731 103.273 110.679C102.924 110.573 102.58 110.461 102.241 110.348C102.073 110.293 101.907 110.236 101.744 110.179C101.692 110.159 101.637 110.142 101.585 110.125C101.437 110.07 101.288 110.018 101.142 109.966C99.6376 109.419 98.2591 108.828 96.9943 108.197C96.8656 108.132 96.7394 108.068 96.6132 108.004C96.4325 107.91 96.2543 107.816 96.0786 107.722C95.9598 107.66 95.8434 107.595 95.7271 107.531C95.5192 107.415 95.3163 107.298 95.1158 107.182C95.0119 107.123 94.9079 107.061 94.8064 106.999C94.7866 106.986 94.7668 106.974 94.747 106.962C94.6307 106.892 94.5168 106.823 94.403 106.751C94.1481 106.593 93.9006 106.432 93.658 106.271C93.517 106.177 93.3808 106.083 93.2447 105.989C92.6012 105.541 92.0023 105.081 91.4454 104.613C91.3612 104.541 91.2771 104.472 91.1954 104.398C90.9578 104.195 90.7301 103.987 90.5098 103.779C84.1887 97.8141 84.2431 90.5376 87.2651 86.0282C90.443 81.2886 97.4844 81.2911 100.722 85.9886C103.219 89.6095 106.09 91.2307 109.793 88.4141C110.498 87.8746 111.325 87.4984 112.203 87.3796C113.755 87.1717 115.054 87.7062 116.039 89.164C117.317 91.0524 119.45 92.2058 121.725 92.035C122.239 91.9954 122.767 91.9336 123.299 91.8593C124.021 91.7603 124.747 92.0672 125.167 92.6637C128.704 97.6706 126.709 111.055 113.503 112.04Z" fill="#E67E91"></path><g opacity="0.65"><path d="M126.68 99.3091C126.303 104.925 122.512 111.367 113.503 112.041C113.374 112.05 113.245 112.06 113.114 112.065C113.003 112.073 112.891 112.078 112.777 112.083C112.735 112.083 112.691 112.085 112.644 112.088C112.537 112.092 112.428 112.095 112.32 112.095C111.676 112.107 111.008 112.09 110.312 112.045C110.102 112.031 109.887 112.013 109.669 111.993C109.619 111.989 109.567 111.984 109.515 111.979C109.305 111.959 109.092 111.934 108.877 111.909C108.409 111.852 107.929 111.783 107.439 111.699C107.204 111.659 106.966 111.615 106.726 111.568C106.674 111.558 106.62 111.548 106.568 111.538C106.298 111.484 106.026 111.427 105.748 111.365C105.597 111.333 105.447 111.298 105.293 111.261C104.778 111.125 104.273 110.981 103.783 110.835C103.613 110.783 103.442 110.731 103.273 110.679C102.924 110.573 102.58 110.461 102.241 110.348C102.073 110.293 101.907 110.236 101.744 110.179C101.692 110.159 101.637 110.142 101.586 110.125C101.437 110.07 101.289 110.018 101.142 109.966C99.6377 109.419 98.2591 108.828 96.9944 108.197C96.8657 108.132 96.7395 108.068 96.6132 108.004C96.4326 107.91 96.2544 107.816 96.0786 107.722C95.9598 107.66 95.8435 107.595 95.7272 107.531C95.5193 107.415 95.3163 107.298 95.1159 107.182C95.0119 107.123 94.908 107.061 94.8065 106.999C94.7867 106.987 94.7669 106.974 94.7471 106.962C94.6308 106.892 94.5169 106.823 94.4031 106.751C94.1481 106.593 93.9006 106.432 93.6581 106.271C93.517 106.177 93.3809 106.083 93.2448 105.989C92.6013 105.541 92.0023 105.081 91.4454 104.613C91.3613 104.541 91.2771 104.472 91.1955 104.398C90.9579 104.195 90.7302 103.987 90.5099 103.779C87.4508 100.891 85.8841 97.6979 85.4262 94.6586C85.1416 98.4824 86.5746 102.838 90.6213 106.657C90.8415 106.865 91.0692 107.073 91.3068 107.276C91.3885 107.35 91.4727 107.42 91.5568 107.491C92.1137 107.959 92.7126 108.42 93.3561 108.868C93.4923 108.962 93.6284 109.056 93.7695 109.15C94.012 109.311 94.2595 109.471 94.5144 109.63C94.6283 109.702 94.7421 109.771 94.8585 109.84C94.8783 109.853 94.8981 109.865 94.9179 109.877C95.0193 109.939 95.1233 110.001 95.2272 110.061C95.4277 110.177 95.6307 110.293 95.8386 110.409C95.9549 110.474 96.0712 110.538 96.19 110.6C96.3657 110.694 96.5439 110.788 96.7246 110.882C96.8508 110.947 96.9771 111.011 97.1058 111.075C98.3705 111.706 99.7491 112.298 101.254 112.845C101.4 112.897 101.548 112.949 101.697 113.003C101.749 113.021 101.803 113.038 101.855 113.058C102.019 113.115 102.184 113.172 102.353 113.226C102.692 113.34 103.036 113.451 103.385 113.558C103.553 113.61 103.724 113.662 103.895 113.714C104.385 113.86 104.89 114.003 105.404 114.139C105.558 114.176 105.709 114.211 105.86 114.243C106.137 114.305 106.409 114.362 106.679 114.417C106.731 114.426 106.785 114.436 106.837 114.446C107.078 114.493 107.315 114.538 107.55 114.577C108.04 114.662 108.52 114.731 108.988 114.788C109.204 114.813 109.416 114.837 109.627 114.857C109.679 114.862 109.731 114.867 109.78 114.872C109.998 114.892 110.213 114.909 110.424 114.924C111.119 114.968 111.787 114.986 112.431 114.973C112.54 114.973 112.649 114.971 112.755 114.966C112.802 114.963 112.847 114.961 112.889 114.961C113.003 114.956 113.114 114.951 113.225 114.944C113.357 114.939 113.485 114.929 113.614 114.919C124.224 114.127 127.598 105.331 126.68 99.3091Z" fill="#FCE5E5"></path></g><g opacity="0.3"><path d="M124.776 92.4575C124.355 91.8611 123.63 91.5542 122.907 91.6532C122.375 91.7274 121.848 91.7893 121.333 91.8289C119.059 91.9997 116.925 90.8463 115.648 88.9579C114.663 87.5001 113.364 86.9655 111.812 87.1734C110.933 87.2922 110.107 87.6684 109.401 88.208C105.699 91.0245 102.828 89.4034 100.33 85.7825C97.0931 81.0849 90.0518 81.0824 86.8739 85.8221C85.3146 88.1486 84.5449 91.2126 85.0349 94.4524C85.1958 92.3016 85.8987 90.3216 86.9852 88.7005C90.1631 83.9609 97.2045 83.9633 100.442 88.6609C102.939 92.2818 105.81 93.9029 109.513 91.0864C110.218 90.5468 111.045 90.1706 111.923 90.0518C113.475 89.8439 114.775 90.3785 115.76 91.8363C117.037 93.7247 119.17 94.8781 121.445 94.7073C121.959 94.6677 122.487 94.6058 123.019 94.5316C123.741 94.4326 124.467 94.7395 124.887 95.336C125.583 96.321 126.063 97.6278 126.288 99.1029C126.466 96.4868 125.9 94.0489 124.776 92.4575Z" fill="black"></path></g><g opacity="0.3"><path d="M54.0209 101.972C53.3378 106.482 53.2066 109.89 53.5184 112.216C53.6273 110.093 53.9243 107.558 54.4317 104.611C54.2733 103.814 54.1322 102.92 54.0209 101.972Z" fill="black"></path></g><g opacity="0.65"><path d="M154.117 106.113C153.766 101.774 152.402 97.4157 150.185 93.2354C150.18 93.2205 150.172 93.2082 150.162 93.1958C144.245 82.0657 132.258 72.1831 117.047 67.2157C116.871 67.1563 116.693 67.0994 116.515 67.0425C115.854 66.8321 115.188 66.6316 114.515 66.4411C114.168 66.3421 113.819 66.2455 113.47 66.1515C112.77 65.9634 112.072 65.7901 111.372 65.6268C111.179 65.5822 110.985 65.5377 110.792 65.4956C107.303 70.4803 91.9552 69.6759 89.0347 64.3447C83.2853 65.0501 77.9096 66.5722 73.165 68.7923C63.6858 73.225 56.7236 80.4372 54.308 89.4808C53.9442 90.8396 53.7313 92.4781 53.6373 94.2155C53.4764 90.946 53.6373 87.4885 54.308 84.9838C56.7236 75.9401 63.6858 68.728 73.165 64.2952C83.4536 59.4814 96.7072 57.9444 110.322 60.8946C110.671 60.9713 111.02 61.048 111.372 61.1297C112.072 61.293 112.77 61.4663 113.47 61.6544C113.819 61.7484 114.168 61.845 114.515 61.944C115.188 62.1346 115.854 62.335 116.515 62.5454C116.693 62.6023 116.871 62.6592 117.047 62.7186C132.258 67.686 144.245 77.5687 150.162 88.6987C150.172 88.7111 150.18 88.7235 150.185 88.7383C153.172 94.3689 154.605 100.319 154.117 106.113Z" fill="#FCE5E5"></path></g><g opacity="0.3"><path d="M125.167 88.82C124.747 88.2235 124.021 87.9166 123.299 88.0156C122.767 88.0898 122.239 88.1517 121.725 88.1913C119.45 88.3621 117.317 87.2087 116.039 85.3203C115.054 83.8625 113.755 83.3279 112.203 83.5358C111.325 83.6546 110.498 84.0308 109.793 84.5704C106.09 87.3869 103.219 85.7658 100.722 82.1449C97.4844 77.4473 90.443 77.4449 87.2651 82.1845C85.7059 84.511 84.9361 87.575 85.4262 90.8148C85.6984 89.0378 86.3419 87.4043 87.2651 86.0282C90.443 81.2885 97.4844 81.291 100.722 85.9886C103.219 89.6095 106.09 91.2306 109.793 88.4141C110.498 87.8745 111.325 87.4983 112.203 87.3795C113.755 87.1716 115.054 87.7062 116.039 89.164C117.317 91.0524 119.45 92.2058 121.725 92.035C122.239 91.9954 122.767 91.9335 123.299 91.8593C124.021 91.7603 124.747 92.0672 125.167 92.6636C125.87 93.6586 126.353 94.9852 126.576 96.4801C126.991 93.4878 126.434 90.6143 125.167 88.82Z" fill="black"></path></g><g opacity="0.3"><path d="M153.989 100.376C153.848 102.205 153.513 104.019 152.979 105.804C152.382 107.788 151.66 109.618 150.823 111.305C150.821 111.31 150.818 111.318 150.816 111.323C150.415 112.135 149.987 112.914 149.536 113.659C149.534 113.662 149.531 113.664 149.531 113.667C145.925 118.745 137.777 120.114 136.203 125.935C136.042 126.517 135.933 127.153 135.882 127.858C135.565 137.969 131.486 139.864 130.573 129.318C126.556 135.711 119.294 137.164 114.097 131.261C112.077 128.97 109.08 127.782 106.031 127.997C103.442 128.178 101.093 128.383 99.5386 126.106C99.4124 125.923 99.2936 125.72 99.1773 125.502C99.1401 125.433 99.103 125.361 99.0684 125.287C92.861 113.127 83.2086 109.078 70.544 112.105C69.3535 112.39 68.1358 112.38 66.9849 112.105C65.5148 111.751 64.1585 110.961 63.1215 109.791C63.1116 109.778 63.0992 109.766 63.0893 109.754C61.7998 108.293 59.607 108.15 58.0923 109.375C55.7163 111.298 54.0283 110.556 53.4442 107.091C52.9146 115.087 54.8921 117.649 58.2333 114.946C59.748 113.721 61.9409 113.865 63.2304 115.325C63.2403 115.337 63.2526 115.35 63.2625 115.362C64.2996 116.533 65.6559 117.322 67.126 117.676C68.2769 117.951 69.4946 117.961 70.6851 117.676C83.3496 114.649 93.0021 118.698 99.2094 130.858C99.2441 130.932 99.2812 131.004 99.3183 131.073C99.4347 131.291 99.5535 131.494 99.6797 131.677C101.234 133.954 103.583 133.749 106.172 133.568C109.221 133.353 112.218 134.541 114.238 136.833C119.435 142.735 124.892 140.837 128.909 134.444C129.823 144.99 137.418 142.364 137.735 132.254C137.787 131.548 137.896 130.912 138.057 130.331C139.631 124.51 146.066 124.317 149.672 119.238C149.672 119.235 149.675 119.233 149.677 119.23C150.128 118.485 150.556 117.706 150.957 116.894C150.959 116.889 150.962 116.882 150.964 116.877C151.801 115.189 152.523 113.36 153.12 111.375C154.197 107.788 154.456 104.083 153.989 100.376Z" fill="black"></path></g><path d="M150.185 88.7383C150.18 88.7235 150.172 88.7111 150.162 88.6987C144.245 77.5687 132.258 67.686 117.047 62.7186C116.871 62.6592 116.693 62.6023 116.515 62.5454C115.854 62.335 115.188 62.1346 114.515 61.944C114.168 61.845 113.819 61.7484 113.47 61.6544C112.77 61.4663 112.072 61.293 111.372 61.1297C111.02 61.048 110.671 60.9713 110.322 60.8946C96.7072 57.9444 83.4536 59.4814 73.165 64.2952C63.6858 68.728 56.7236 75.9401 54.308 84.9838C53.1967 89.1418 53.4838 95.9183 54.3204 100.113C52.0137 113.486 54.0605 118.322 58.2334 114.946C59.7481 113.721 61.9409 113.865 63.2304 115.325C63.2403 115.337 63.2527 115.35 63.2626 115.362C65.1089 117.448 67.975 118.324 70.6851 117.676C83.3497 114.649 93.0022 118.698 99.2095 130.858C99.2441 130.932 99.2812 131.004 99.3184 131.073C100.853 133.986 103.372 133.764 106.172 133.568C109.221 133.353 112.218 134.541 114.238 136.833C119.435 142.735 124.893 140.837 128.909 134.444C129.823 144.99 137.419 142.364 137.735 132.254C137.787 131.548 137.896 130.912 138.057 130.331C139.631 124.51 146.066 124.316 149.672 119.238C149.672 119.235 149.675 119.233 149.677 119.23C150.128 118.485 150.556 117.706 150.957 116.894C150.959 116.889 150.962 116.882 150.964 116.877C151.801 115.189 152.523 113.36 153.12 111.375C155.338 103.989 154.088 96.0915 150.185 88.7383ZM113.503 112.04C113.374 112.05 113.245 112.06 113.114 112.065C113.003 112.073 112.891 112.078 112.777 112.083C112.735 112.083 112.691 112.085 112.644 112.087C112.537 112.092 112.428 112.095 112.32 112.095C111.676 112.107 111.008 112.09 110.312 112.045C110.102 112.031 109.887 112.013 109.669 111.993C109.619 111.988 109.567 111.984 109.515 111.979C109.305 111.959 109.092 111.934 108.877 111.909C108.409 111.852 107.929 111.783 107.439 111.699C107.204 111.659 106.966 111.615 106.726 111.568C106.674 111.558 106.62 111.548 106.568 111.538C106.298 111.484 106.026 111.427 105.748 111.365C105.597 111.333 105.446 111.298 105.293 111.261C104.778 111.125 104.273 110.981 103.783 110.835C103.612 110.783 103.442 110.731 103.273 110.679C102.924 110.573 102.58 110.461 102.241 110.348C102.073 110.293 101.907 110.236 101.744 110.179C101.692 110.159 101.637 110.142 101.585 110.125C101.437 110.07 101.288 110.018 101.142 109.966C99.6376 109.419 98.2591 108.828 96.9943 108.197C96.8656 108.132 96.7394 108.068 96.6132 108.004C96.4325 107.91 96.2543 107.816 96.0786 107.722C95.9598 107.66 95.8435 107.595 95.7271 107.531C95.5192 107.415 95.3163 107.298 95.1158 107.182C95.0119 107.123 94.9079 107.061 94.8064 106.999C94.7866 106.987 94.7668 106.974 94.747 106.962C94.6307 106.892 94.5169 106.823 94.403 106.751C94.1481 106.593 93.9006 106.432 93.658 106.271C93.517 106.177 93.3808 106.083 93.2447 105.989C92.6012 105.541 92.0023 105.081 91.4454 104.613C91.3612 104.541 91.2771 104.472 91.1954 104.398C90.9578 104.195 90.7301 103.987 90.5098 103.779C84.1887 97.8141 84.2431 90.5376 87.2651 86.0282C90.443 81.2886 97.4844 81.2911 100.722 85.9886C103.219 89.6095 106.09 91.2307 109.793 88.4141C110.498 87.8746 111.325 87.4984 112.203 87.3796C113.755 87.1717 115.054 87.7062 116.039 89.164C117.317 91.0524 119.45 92.2058 121.725 92.035C122.239 91.9954 122.767 91.9336 123.299 91.8593C124.021 91.7603 124.747 92.0672 125.167 92.6637C128.704 97.6706 126.709 111.055 113.503 112.04Z" stroke="black" stroke-width="1.7325" stroke-miterlimit="10" stroke-linecap="round" stroke-linejoin="round"></path><path d="M62.7896 116.123L62.4441 115.823L62.1002 115.517C61.9863 115.413 61.8721 115.311 61.7565 115.208L61.5815 115.056C61.5223 115.007 61.4638 114.956 61.4056 114.904C61.1706 114.702 60.944 114.487 60.7465 114.244C60.6965 114.184 60.6482 114.122 60.6003 114.06L60.4601 113.871L60.3205 113.682L60.186 113.489C59.8282 112.974 59.5029 112.439 59.2143 111.888C59.1418 111.751 59.0712 111.612 59.0049 111.472C58.9381 111.332 58.8703 111.193 58.8102 111.05C58.6836 110.767 58.5701 110.479 58.4657 110.188C58.4326 110.096 58.4806 109.994 58.5728 109.961C58.6382 109.937 58.7082 109.955 58.7553 110L58.7584 110.003C58.8693 110.109 58.9774 110.216 59.0835 110.323L59.4049 110.642C59.5107 110.748 59.6201 110.851 59.7263 110.956C59.7801 111.008 59.8317 111.061 59.8858 111.113L60.0473 111.266C60.4758 111.677 60.9085 112.072 61.349 112.452C61.568 112.643 61.7925 112.827 62.0141 113.013C62.1224 113.109 62.2291 113.206 62.3314 113.307C62.4327 113.41 62.5332 113.514 62.6326 113.619C62.7307 113.726 62.8345 113.828 62.9371 113.931C63.0402 114.034 63.1506 114.13 63.2581 114.228L63.5867 114.52L63.92 114.81L63.9262 114.815C64.2873 115.129 64.3255 115.676 64.0116 116.038C63.6978 116.399 63.1506 116.437 62.7896 116.123Z" fill="black"></path><path d="M111.915 112.965C111.385 112.965 110.829 112.946 110.257 112.91C110.038 112.895 109.822 112.877 109.59 112.856C109.588 112.856 109.585 112.856 109.583 112.855C109.539 112.851 109.493 112.847 109.446 112.842L109.433 112.841C109.227 112.821 109.018 112.797 108.815 112.774L108.778 112.77C108.776 112.77 108.774 112.769 108.772 112.769C108.273 112.708 107.775 112.636 107.292 112.553C107.077 112.516 106.843 112.473 106.559 112.418L106.405 112.389C106.402 112.388 106.399 112.388 106.396 112.387C106.089 112.325 105.817 112.268 105.564 112.211C105.411 112.179 105.256 112.143 105.089 112.103C105.083 112.101 105.077 112.1 105.072 112.098C104.578 111.968 104.075 111.826 103.536 111.665C103.534 111.665 103.533 111.664 103.531 111.664L103.525 111.662C103.355 111.61 103.185 111.559 103.018 111.507C102.689 111.407 102.345 111.296 101.97 111.17C101.784 111.11 101.608 111.049 101.459 110.997C101.451 110.995 101.443 110.992 101.436 110.989C101.406 110.977 101.375 110.968 101.345 110.958L101.312 110.947C101.303 110.944 101.295 110.941 101.287 110.938C101.181 110.899 101.074 110.861 100.969 110.824L100.852 110.782C100.85 110.782 100.848 110.781 100.847 110.781C99.345 110.235 97.9188 109.626 96.6076 108.972C96.4763 108.906 96.348 108.841 96.2198 108.775C96.2176 108.774 96.2154 108.773 96.2132 108.772C96.0316 108.678 95.8504 108.582 95.6743 108.488C95.548 108.422 95.4268 108.355 95.3096 108.29C95.3083 108.289 95.3055 108.288 95.3042 108.287C95.1138 108.18 94.9108 108.065 94.6839 107.933C94.5811 107.874 94.4736 107.811 94.3556 107.738C94.3529 107.737 94.3502 107.735 94.3475 107.734L94.2959 107.701C94.1675 107.625 94.0522 107.554 93.9437 107.486C93.7096 107.34 93.4667 107.184 93.1793 106.993C93.0294 106.893 92.8885 106.796 92.7524 106.702C92.1042 106.251 91.4779 105.772 90.8883 105.276C90.8866 105.275 90.885 105.273 90.8833 105.272L90.8206 105.219C90.757 105.165 90.6914 105.11 90.6231 105.048C90.4024 104.859 90.1708 104.65 89.9154 104.409C89.7403 104.244 89.6419 104.013 89.6437 103.772C89.6455 103.532 89.7475 103.303 89.9251 103.14C92.1321 101.12 94.7958 99.7758 97.6282 99.2532C100.322 98.7561 103.072 99.0073 105.582 99.9798C107.944 100.895 109.992 102.422 111.504 104.394C113.142 106.531 114.105 109.077 114.365 111.962C114.386 112.193 114.314 112.423 114.164 112.6C114.014 112.777 113.8 112.886 113.569 112.904L113.503 112.04L113.567 112.904C113.437 112.914 113.302 112.925 113.159 112.93C113.047 112.938 112.937 112.943 112.815 112.948C112.803 112.948 112.79 112.949 112.778 112.949C112.761 112.949 112.728 112.95 112.697 112.952L112.689 112.953C112.688 112.953 112.686 112.953 112.684 112.953C112.568 112.958 112.448 112.961 112.328 112.961C112.192 112.964 112.055 112.965 111.915 112.965ZM109.751 111.131C109.969 111.151 110.172 111.167 110.373 111.181C111.046 111.224 111.697 111.24 112.303 111.229C112.379 111.227 112.456 111.228 112.531 111.225C111.838 106.746 109.056 103.184 104.956 101.595C100.571 99.8959 95.6207 100.746 91.8212 103.795C91.8583 103.827 91.8979 103.861 91.9391 103.896L92.0033 103.95C92.5528 104.412 93.137 104.858 93.7397 105.278C93.8676 105.366 94.0024 105.46 94.1387 105.55C94.4106 105.731 94.6404 105.879 94.8603 106.016C94.8618 106.017 94.8634 106.018 94.865 106.019C94.964 106.081 95.0705 106.146 95.1904 106.218C95.1959 106.221 95.2013 106.224 95.2066 106.227L95.2612 106.262C95.3645 106.324 95.4576 106.38 95.5456 106.43C95.5473 106.431 95.549 106.432 95.5507 106.433C95.7709 106.561 95.967 106.673 96.1502 106.775C96.2622 106.837 96.3702 106.897 96.4788 106.953C96.4817 106.955 96.4845 106.956 96.4874 106.958C96.658 107.049 96.8338 107.142 97.01 107.234C97.1331 107.296 97.2562 107.359 97.3817 107.422C98.6328 108.046 99.9969 108.628 101.436 109.151L101.547 109.191C101.655 109.229 101.763 109.267 101.871 109.307L101.888 109.312C101.933 109.327 101.984 109.344 102.039 109.365C102.178 109.413 102.341 109.469 102.508 109.523C102.511 109.524 102.514 109.525 102.517 109.526C102.879 109.648 103.209 109.754 103.526 109.851C103.694 109.903 103.862 109.954 104.03 110.005L104.033 110.006C104.551 110.16 105.033 110.296 105.506 110.421C105.655 110.457 105.794 110.489 105.929 110.518C105.932 110.518 105.934 110.519 105.937 110.519C106.179 110.573 106.439 110.628 106.734 110.688L106.888 110.717C107.161 110.77 107.38 110.811 107.583 110.845C108.04 110.923 108.509 110.992 108.979 111.049L109.013 111.053C109.216 111.076 109.407 111.098 109.597 111.116L109.611 111.118C109.658 111.122 109.706 111.127 109.751 111.131Z" fill="black"></path><path d="M113.503 112.908C113.024 112.908 112.636 112.521 112.636 112.043V112.04C112.636 111.562 113.024 111.174 113.503 111.174C113.981 111.174 114.369 111.562 114.369 112.04C114.369 112.519 113.981 112.908 113.503 112.908Z" fill="black"></path><path d="M64.3131 143.071C64.0528 143.071 63.7954 142.955 63.6248 142.732C62.3353 141.048 61.4675 138.959 61.0456 136.521C60.6639 134.316 60.6592 131.924 61.0316 129.413C61.7508 124.565 63.7935 119.956 66.4959 117.083C66.8237 116.734 67.3719 116.718 67.7204 117.045C68.0689 117.373 68.0856 117.921 67.7578 118.27C65.3253 120.856 63.4046 125.223 62.7454 129.667C62.0293 134.495 62.8511 138.873 65.0002 141.678C65.2911 142.058 65.219 142.602 64.8392 142.893C64.6821 143.013 64.4969 143.071 64.3131 143.071Z" fill="black"></path><path d="M104.972 158.858C104.667 158.858 104.357 158.855 104.051 158.85C104.018 158.85 103.984 158.85 103.95 158.849C103.919 158.848 103.888 158.848 103.857 158.848C103.498 158.842 103.183 158.834 102.894 158.823C102.583 158.814 102.244 158.8 101.857 158.78L101.704 158.773C101.472 158.762 101.24 158.748 101.005 158.735L100.937 158.731C100.921 158.73 100.907 158.729 100.894 158.728C100.872 158.727 100.847 158.725 100.821 158.722C100.47 158.699 100.119 158.673 99.7745 158.646C99.7371 158.646 99.6997 158.643 99.6625 158.637C97.6763 158.514 96.3067 157.95 95.4772 156.914C94.7423 155.997 94.4956 154.757 94.7439 153.228C94.7865 152.864 94.8104 152.506 94.8149 152.163C94.8149 152.159 94.8149 152.154 94.815 152.152C94.9168 145.851 89.4563 140.866 83.9994 138.721C78.9762 136.746 72.0751 136.339 67.7708 141.12C67.7693 141.122 67.7677 141.124 67.7662 141.125C67.6624 141.239 67.5643 141.355 67.482 141.453C67.476 141.46 67.4699 141.467 67.4636 141.474C66.6059 142.483 65.5486 143.034 64.4047 143.071C63.011 143.114 61.5634 142.402 60.2168 141.009C60.2078 141.001 60.1981 140.992 60.188 140.982L59.7732 140.574C59.4805 140.285 59.2192 140.02 58.9716 139.763C58.9501 139.741 58.9275 139.718 58.905 139.694C58.854 139.642 58.8036 139.591 58.7542 139.538C58.61 139.389 58.4663 139.237 58.3269 139.088C58.1974 138.951 58.0703 138.814 57.9431 138.677C57.9418 138.675 57.9405 138.674 57.9391 138.672C57.5287 138.224 57.1652 137.817 56.8278 137.428C56.678 137.256 56.5314 137.087 56.3872 136.917C54.8789 135.138 53.4856 133.27 52.2443 131.365C52.177 131.264 52.1053 131.155 52.0347 131.042C51.8914 130.819 51.7504 130.596 51.6095 130.374C51.6068 130.37 51.6042 130.365 51.6016 130.361C51.5538 130.283 51.5054 130.204 51.457 130.125C51.4077 130.044 51.3583 129.963 51.3095 129.883C50.1226 127.924 49.0675 125.898 48.1723 123.861C48.1021 123.703 48.033 123.542 47.9662 123.386C47.8193 123.04 47.6282 122.586 47.4444 122.116C47.3711 121.933 47.2993 121.749 47.2311 121.567C46.7533 120.314 46.3218 119.024 45.9502 117.739C45.9073 117.592 45.8666 117.443 45.8273 117.298C45.7808 117.138 45.7344 116.969 45.6894 116.794C45.6393 116.606 45.5916 116.418 45.5454 116.236C45.4886 116.021 45.4374 115.806 45.3878 115.598C45.3561 115.464 45.3194 115.307 45.2846 115.148C45.2476 114.994 45.2149 114.847 45.1849 114.7C45.0885 114.26 44.9975 113.807 44.9141 113.356C44.8852 113.209 44.8569 113.051 44.83 112.887C44.8103 112.779 44.79 112.667 44.7716 112.552C44.7115 112.194 44.6605 111.87 44.6158 111.561L44.571 111.238C44.5511 111.103 44.5328 110.961 44.5165 110.815C44.4179 110.051 44.3411 109.305 44.2882 108.595C44.2725 108.431 44.2622 108.272 44.2523 108.118C44.2162 107.595 44.1897 107.039 44.174 106.469L44.1737 106.457C44.1689 106.304 44.1639 106.146 44.1615 105.986C44.1614 105.981 44.1614 105.977 44.1614 105.972C44.1614 105.955 44.1609 105.937 44.1604 105.92C44.1596 105.889 44.1589 105.858 44.1589 105.826L44.1588 105.823C44.1564 105.617 44.1539 105.405 44.1539 105.193C44.1539 101.399 44.6501 97.6192 45.6287 93.9576C47.3599 87.4756 50.5072 81.5804 54.9827 76.4358C57.1313 73.9661 59.5826 71.686 62.2686 69.6588C64.9264 67.653 67.837 65.8772 70.9196 64.3808C77.168 61.3476 83.9971 59.4807 91.2172 58.8319C98.6852 58.1609 106.248 58.8291 113.695 60.8179C121.141 62.8074 128.03 65.999 134.168 70.3041C140.103 74.4664 145.091 79.4895 148.995 85.2339C150.921 88.0679 152.559 91.0583 153.862 94.1221C155.18 97.2184 156.168 100.417 156.799 103.629C158.113 110.32 157.902 116.999 156.17 123.481C154.76 128.761 152.389 133.687 149.124 138.122C145.971 142.404 142.041 146.156 137.443 149.273C132.904 152.35 127.819 154.738 122.332 156.369C116.777 158.021 110.936 158.858 104.972 158.858ZM103.878 157.115C103.914 157.116 103.949 157.116 103.984 157.117C104.014 157.117 104.043 157.118 104.073 157.118C104.372 157.123 104.674 157.125 104.972 157.125C129.147 157.125 149.049 143.425 154.497 123.034C161.304 97.5461 142.8 70.387 113.248 62.4916C107.742 61.0214 102.233 60.3214 96.8727 60.3214C73.4591 60.3214 52.8424 73.6632 47.3025 94.4047C46.3629 97.9206 45.8865 101.55 45.8865 105.192C45.8865 105.395 45.8888 105.593 45.8913 105.802L45.8914 105.811C45.8914 105.814 45.8914 105.818 45.8914 105.821C45.8914 105.84 45.892 105.859 45.8924 105.877C45.8931 105.906 45.8938 105.935 45.8939 105.964C45.8962 106.109 45.9006 106.252 45.9053 106.403L45.9058 106.418C45.9209 106.967 45.9462 107.499 45.9809 108.001C45.9909 108.156 46.0001 108.298 46.0136 108.438C46.0142 108.444 46.0148 108.451 46.0152 108.457C46.066 109.141 46.1402 109.862 46.2357 110.601C46.2363 110.606 46.237 110.611 46.2375 110.616C46.2519 110.745 46.268 110.871 46.2854 110.988C46.2858 110.991 46.2861 110.993 46.2865 110.995L46.331 111.317C46.3734 111.609 46.4226 111.922 46.4808 112.269C46.4812 112.271 46.4817 112.274 46.482 112.276C46.4979 112.376 46.5163 112.477 46.5357 112.584C46.5366 112.589 46.5375 112.594 46.5383 112.599C46.5631 112.75 46.5889 112.894 46.6151 113.027C46.6157 113.03 46.6164 113.034 46.617 113.037C46.6975 113.474 46.7855 113.911 46.8786 114.335C46.8795 114.34 46.8804 114.344 46.8813 114.348C46.9081 114.48 46.9375 114.612 46.971 114.751C46.9726 114.757 46.9741 114.764 46.9756 114.771C47.0078 114.919 47.043 115.07 47.0733 115.197C47.1227 115.405 47.1696 115.601 47.2212 115.796C47.222 115.799 47.2229 115.802 47.2236 115.805C47.2692 115.985 47.3163 116.171 47.3644 116.352C47.3651 116.354 47.3657 116.357 47.3663 116.359C47.4077 116.52 47.4502 116.675 47.4926 116.82C47.4941 116.825 47.4957 116.83 47.4972 116.836C47.5349 116.975 47.5739 117.119 47.6136 117.255C47.9729 118.497 48.3891 119.741 48.8515 120.954C48.9172 121.129 48.9846 121.303 49.0535 121.474C49.0547 121.476 49.0558 121.479 49.0569 121.482C49.1941 121.834 49.3492 122.211 49.5595 122.706C49.6231 122.854 49.6899 123.01 49.7569 123.161C50.6233 125.133 51.6433 127.091 52.7901 128.984C52.837 129.061 52.8857 129.14 52.9344 129.22C52.9823 129.298 53.0302 129.376 53.0775 129.454C53.2159 129.672 53.3542 129.891 53.495 130.109C53.4978 130.114 53.5007 130.118 53.5034 130.123C53.5627 130.219 53.6272 130.316 53.6881 130.407C53.6899 130.41 53.6915 130.413 53.6932 130.415C54.8957 132.261 56.2462 134.071 57.707 135.795C57.8463 135.958 57.9897 136.124 58.1332 136.289C58.4627 136.669 58.8159 137.064 59.2153 137.501C59.339 137.634 59.4627 137.768 59.5888 137.901C59.5901 137.902 59.5914 137.904 59.5926 137.905C59.7272 138.049 59.8661 138.195 60.0054 138.34C60.0089 138.343 60.0124 138.347 60.0159 138.351C60.0577 138.395 60.1006 138.439 60.1439 138.483C60.1686 138.509 60.1935 138.534 60.2183 138.56C60.4574 138.808 60.7094 139.063 60.9896 139.341L61.3807 139.725C61.3944 139.737 61.4097 139.751 61.426 139.767C61.4302 139.772 61.4342 139.776 61.4383 139.78C62.4293 140.813 63.4634 141.367 64.3498 141.339C65.0044 141.318 65.6111 140.982 66.1532 140.34L66.1533 140.341C66.1566 140.336 66.1601 140.332 66.1635 140.329C66.2507 140.225 66.3641 140.091 66.4857 139.958C68.601 137.61 71.5242 136.148 74.9392 135.732C78.0316 135.355 81.3837 135.831 84.6331 137.108C87.9541 138.414 90.9425 140.506 93.0479 143C95.3877 145.772 96.5976 148.944 96.5472 152.173C96.5472 152.176 96.5471 152.18 96.5471 152.181C96.5419 152.592 96.5132 153.019 96.4619 153.451C96.4604 153.464 96.4585 153.477 96.4564 153.49C96.2837 154.536 96.4057 155.302 96.8293 155.831C97.3359 156.464 98.3442 156.827 99.8262 156.911C99.8484 156.913 99.8705 156.915 99.8925 156.918C100.249 156.946 100.613 156.972 100.975 156.996C100.987 156.997 100.998 156.998 101.01 156.999C101.018 157 101.027 157 101.035 157.001L101.104 157.005C101.334 157.018 101.56 157.031 101.787 157.042L101.942 157.05C102.321 157.069 102.649 157.082 102.948 157.091C102.951 157.091 102.954 157.091 102.957 157.091C103.231 157.102 103.533 157.11 103.878 157.115ZM101.188 157.037C101.189 157.038 101.19 157.038 101.191 157.038C101.19 157.038 101.189 157.038 101.188 157.037ZM101.186 157.037C101.186 157.037 101.187 157.037 101.188 157.037C101.187 157.037 101.186 157.037 101.186 157.037ZM99.4102 157.001C99.4084 157.002 99.4065 157.003 99.4045 157.004C99.4065 157.003 99.4084 157.002 99.4102 157.001ZM100.979 156.999C100.979 156.999 100.979 156.999 100.98 156.999C100.979 156.999 100.979 156.999 100.979 156.999ZM61.3452 139.695C61.3453 139.695 61.3454 139.695 61.3455 139.696C61.3454 139.695 61.3453 139.695 61.3452 139.695Z" fill="black"></path><path d="M96.2327 156.724C96.026 156.724 95.8185 156.651 95.6529 156.502C95.2976 156.181 95.2692 155.633 95.5896 155.278C97.3786 153.294 98.8262 149.071 99.4621 143.983C100.057 139.224 99.8245 134.514 98.8701 131.983C98.7013 131.535 98.9273 131.036 99.3749 130.867C99.8226 130.698 100.322 130.924 100.491 131.372C101.553 134.189 101.818 139.103 101.181 144.198C100.493 149.706 98.9239 154.167 96.8763 156.438C96.7053 156.628 96.4695 156.724 96.2327 156.724Z" fill="black"></path><g opacity="0.1"><path d="M100.329 144.706C99.5127 150.334 98.6028 154.219 95.6823 155.484C95.7789 155.264 95.5675 155.6 95.6516 155.379C95.7803 155.05 95.1864 155.576 95.2829 155.249C95.4463 154.707 95.57 154.168 95.6542 153.635C95.7581 152.997 95.8076 152.363 95.8076 151.742C95.8076 151.606 95.8051 151.472 95.8002 151.336C95.7928 151.101 95.7754 150.863 95.7532 150.631C95.7482 150.574 95.7433 150.517 95.7358 150.462C95.7235 150.351 95.7111 150.24 95.6938 150.131C95.6789 150.024 95.6641 149.916 95.6443 149.809C95.6393 149.772 95.6319 149.735 95.6245 149.698C95.6096 149.606 95.5923 149.515 95.5725 149.423C95.5626 149.371 95.5527 149.322 95.5403 149.27C95.5378 149.255 95.5354 149.242 95.5304 149.227C95.5131 149.136 95.4908 149.047 95.4685 148.955C95.4364 148.827 95.4042 148.698 95.3671 148.572C95.3349 148.45 95.2978 148.332 95.2606 148.21C95.2582 148.205 95.2557 148.198 95.2532 148.19C95.2235 148.091 95.1913 147.99 95.1542 147.891C95.1319 147.824 95.1097 147.757 95.0849 147.693C95.0824 147.686 95.08 147.676 95.075 147.668C95.0181 147.505 94.9537 147.344 94.8894 147.183C94.882 147.166 94.8745 147.151 94.8696 147.136C94.8399 147.067 94.8127 147 94.7805 146.931C94.6889 146.718 94.5899 146.51 94.486 146.302C94.4365 146.198 94.382 146.094 94.3276 145.993C94.2607 145.866 94.1914 145.74 94.1197 145.614C94.0603 145.51 93.9984 145.406 93.9365 145.302C93.8647 145.183 93.7905 145.067 93.7138 144.948C93.6568 144.859 93.5974 144.77 93.538 144.681C93.5034 144.629 93.4663 144.574 93.4291 144.522C93.2163 144.216 92.9911 143.916 92.7559 143.624C88.0881 137.823 78.9925 134.642 72.1689 137.05C72.0625 137.088 71.9536 137.127 71.8471 137.169C71.7679 137.199 71.6887 137.231 71.6095 137.263C71.4734 137.318 71.3373 137.375 71.2036 137.437C71.0972 137.484 70.9908 137.533 70.8844 137.585C70.7631 137.642 70.6443 137.704 70.523 137.766C70.4809 137.788 70.4413 137.81 70.3993 137.833C70.3077 137.882 70.2161 137.932 70.127 137.986C69.9983 138.058 69.8696 138.135 69.7434 138.214C69.6914 138.246 69.6394 138.278 69.5875 138.313C69.5157 138.357 69.4439 138.404 69.3746 138.454C69.2434 138.54 69.1147 138.632 68.9885 138.726C68.944 138.758 68.8994 138.793 68.8549 138.828C68.7732 138.887 68.694 138.951 68.6148 139.016C68.4935 139.11 68.3747 139.209 68.2609 139.31C68.2163 139.35 68.1718 139.387 68.1272 139.429C68.0233 139.521 67.9243 139.612 67.8277 139.706C67.7337 139.798 67.6396 139.889 67.5481 139.986C67.5332 140.001 67.5184 140.016 67.506 140.03C67.4045 140.134 67.3055 140.241 67.209 140.35C67.1347 140.431 67.063 140.515 66.9912 140.602C66.9838 140.61 66.9763 140.617 66.9714 140.627C66.9145 140.694 66.86 140.76 66.808 140.827C66.7264 140.926 66.6472 141.028 66.5704 141.129C66.4912 141.233 66.4145 141.34 66.3403 141.449C66.2957 141.508 66.2561 141.567 66.214 141.629C66.1447 141.731 66.0754 141.835 66.0086 141.941C65.9344 142.057 65.8626 142.174 65.7933 142.293C65.7611 142.347 65.7289 142.401 65.6968 142.458C65.6275 142.58 65.7987 141.959 65.7318 142.086C65.66 142.219 65.4274 142.277 65.3606 142.416C65.3432 142.448 65.0892 142.421 65.0743 142.455C65.005 142.596 65.0743 142.455 65.01 142.601L64.6593 142.477C61.9022 138.837 61.3383 135.481 61.6972 130.947C62.1055 125.727 64.2266 120.656 67.2511 117.441C68.4019 117.716 69.6196 117.726 70.8101 117.441C83.4747 114.414 93.1272 118.463 99.3345 130.623C99.3691 130.697 99.4063 130.769 99.4434 130.838C99.5597 131.056 99.6785 131.259 99.8047 131.442C100.911 134.375 101.062 139.674 100.329 144.706Z" fill="black"></path></g><g opacity="0.25"><path d="M95.6282 150.866C95.6504 151.098 95.6678 151.334 95.6752 151.571C95.6678 151.336 95.6504 151.098 95.6282 150.866Z" fill="black"></path></g><path d="M127.95 134.454C127.966 134.406 127.986 134.36 128.007 134.315C128.029 134.271 128.052 134.23 128.075 134.179C128.098 134.131 128.122 134.083 128.148 134.037C128.161 134.013 128.174 133.99 128.187 133.967C128.2 133.942 128.213 133.917 128.226 133.892C128.332 133.697 128.453 133.498 128.563 133.29C128.618 133.186 128.674 133.082 128.727 132.975L128.887 132.653L129.044 132.326C129.096 132.217 129.145 132.105 129.196 131.995C129.399 131.552 129.593 131.1 129.783 130.645C129.972 130.19 130.156 129.731 130.33 129.271L130.331 129.266C130.38 129.137 130.525 129.072 130.654 129.121C130.757 129.16 130.82 129.26 130.816 129.365C130.796 129.876 130.745 130.38 130.681 130.883C130.617 131.386 130.537 131.887 130.441 132.389C130.416 132.514 130.392 132.639 130.365 132.765L130.283 133.141L130.19 133.518C130.158 133.644 130.122 133.77 130.088 133.897C129.943 134.402 129.787 134.922 129.401 135.401C129.1 135.773 128.555 135.831 128.183 135.531C127.893 135.296 127.793 134.913 127.907 134.578L127.95 134.454Z" fill="black"></path><g opacity="0.3"><path d="M120.298 110.027C119.415 93.5126 96.3619 88.2326 87.3323 99.8715L90.5098 103.779C100.385 96.6723 110.917 99.6574 113.503 111.415C113.503 111.415 115.489 112.021 120.298 110.027Z" fill="black"></path></g><g opacity="0.25"><path d="M64.3754 142.597C53.53 133.86 46.449 121.916 44.8403 109.276C44.6596 107.321 44.5581 106.19 44.5581 106.19C46.2609 115.585 52.4261 123.589 61.0416 129.777C60.6827 134.311 61.6183 138.956 64.3754 142.597Z" fill="black"></path></g><g opacity="0.3"><path d="M95.5292 153.87C95.4451 154.403 95.3213 154.942 95.158 155.484C95.3213 154.942 95.4426 154.403 95.5292 153.87Z" fill="black"></path></g><g opacity="0.3"><path d="M155.138 101.487C155.155 102.549 155.155 103.596 155.131 104.628C155.066 103.698 154.947 102.824 154.767 102.052C154.65 104.056 153.388 109.422 152.802 111.375C152.205 113.36 151.482 115.189 150.646 116.877C150.643 116.882 150.641 116.889 150.638 116.894C150.237 117.706 149.809 118.486 149.359 119.231C149.359 119.233 149.356 119.236 149.356 119.236C145.75 124.317 139.313 124.51 137.739 130.331C137.578 130.913 137.469 131.549 137.417 132.254C137.1 142.365 129.504 144.991 128.591 134.445C124.574 140.837 119.117 142.736 113.919 136.833C111.9 134.541 108.902 133.353 105.853 133.568C103.264 133.749 100.916 133.954 99.3613 131.677C99.2351 131.494 99.1163 131.291 99 131.074C98.9629 131.004 98.9257 130.933 98.8911 130.858C92.6838 118.699 83.0313 114.649 70.3667 117.676C69.1762 117.961 67.9585 117.951 66.8077 117.676C65.3375 117.322 63.9812 116.533 62.9442 115.362C62.9343 115.35 62.9219 115.338 62.912 115.325C61.6225 113.865 59.4297 113.721 57.915 114.946C55.44 116.949 53.7124 116.063 53.2001 112.217C52.814 119.716 54.7742 122.074 58.0264 119.444C59.5411 118.218 61.7339 118.362 63.0234 119.822C63.0333 119.835 63.0457 119.847 63.0556 119.859C64.0926 121.03 65.4489 121.82 66.919 122.173C68.0699 122.448 69.2876 122.458 70.4781 122.173C83.1427 119.147 92.7952 123.196 99.0025 135.355C99.0371 135.43 99.0742 135.501 99.1114 135.571C99.2277 135.788 99.3465 135.991 99.4727 136.175C101.027 138.452 103.376 138.246 105.965 138.065C109.014 137.85 112.011 139.038 114.031 141.33C118.473 146.374 123.102 145.723 126.864 141.436C127.591 140.607 128.928 140.909 129.232 141.969C129.343 142.355 129.472 142.701 129.618 143.013C130.148 144.149 129.554 145.49 128.358 145.872C120.132 148.51 110.412 149.097 99.7153 147.668C99.0445 152.287 97.963 154.843 95.983 156.309C96.4309 156.848 97.1066 157.311 98.109 157.615C124.646 160.509 149.143 146.424 155.333 123.258C155.385 123.064 155.435 122.869 155.484 122.673C157.153 115.885 156.618 108.046 155.138 101.487ZM152.391 122C149.881 129.705 145.693 135.838 139.979 140.041C139.243 140.58 138.251 139.86 138.531 138.994C138.924 137.761 139.177 136.385 139.224 134.895C139.276 134.187 139.385 133.551 139.545 132.969C141.12 127.148 145.862 128.814 149.468 123.733C149.468 123.733 149.47 123.73 149.47 123.728C149.921 122.983 150.349 122.203 150.75 121.391C150.752 121.386 150.755 121.379 150.757 121.374C150.765 121.357 150.772 121.339 150.782 121.322C151.265 120.364 152.722 120.978 152.391 122Z" fill="black"></path></g><g opacity="0.25"><path d="M146.611 105.647C144.592 110.72 138.397 112.568 136.187 111.688C133.976 110.808 136.587 107.534 138.607 102.461C140.626 97.388 141.289 92.4375 143.499 93.3174C145.71 94.1972 148.63 100.574 146.611 105.647Z" fill="#FCE5E5"></path></g><g opacity="0.25"><path d="M62.7293 86.0269C63.7731 80.6675 69.5177 77.7031 71.8528 78.1579C74.1879 78.6126 72.2293 82.3143 71.1855 87.6737C70.1417 93.0331 70.4081 98.0207 68.073 97.5659C65.7379 97.1112 61.6856 91.3863 62.7293 86.0269Z" fill="#FCE5E5"></path></g><g opacity="0.3"><path d="M70.8088 129.818C71.4831 129.818 72.0297 129.029 72.0297 128.056C72.0297 127.084 71.4831 126.295 70.8088 126.295C70.1345 126.295 69.5879 127.084 69.5879 128.056C69.5879 129.029 70.1345 129.818 70.8088 129.818Z" fill="black"></path></g><g opacity="0.3"><path d="M86.7752 135.967C87.1909 135.279 87.0601 134.439 86.483 134.09C85.9059 133.741 85.1011 134.016 84.6854 134.704C84.2697 135.392 84.4005 136.232 84.9776 136.581C85.5547 136.929 86.3595 136.655 86.7752 135.967Z" fill="black"></path></g><g opacity="0.3"><path d="M82.5751 124.906C82.7612 124.391 82.6228 123.87 82.2659 123.741C81.9091 123.612 81.4689 123.924 81.2828 124.439C81.0967 124.954 81.2351 125.476 81.592 125.605C81.9488 125.734 82.389 125.421 82.5751 124.906Z" fill="black"></path></g><g opacity="0.3"><path d="M95.4115 141.374C95.791 141.374 96.0986 141.066 96.0986 140.687C96.0986 140.307 95.791 140 95.4115 140C95.032 140 94.7244 140.307 94.7244 140.687C94.7244 141.066 95.032 141.374 95.4115 141.374Z" fill="black"></path></g><g opacity="0.3"><path d="M67.1707 135.419C67.4421 135.419 67.6621 135.199 67.6621 134.928C67.6621 134.656 67.4421 134.436 67.1707 134.436C66.8993 134.436 66.6793 134.656 66.6793 134.928C66.6793 135.199 66.8993 135.419 67.1707 135.419Z" fill="black"></path></g><g opacity="0.3"><path d="M91.6826 130.267C91.8745 130.267 92.0301 130.111 92.0301 129.919C92.0301 129.728 91.8745 129.572 91.6826 129.572C91.4908 129.572 91.3352 129.728 91.3352 129.919C91.3352 130.111 91.4908 130.267 91.6826 130.267Z" fill="black"></path></g><g opacity="0.3"><path d="M94.897 134.688C95.0889 134.688 95.2444 134.533 95.2444 134.341C95.2444 134.149 95.0889 133.993 94.897 133.993C94.7051 133.993 94.5496 134.149 94.5496 134.341C94.5496 134.533 94.7051 134.688 94.897 134.688Z" fill="black"></path></g><g opacity="0.3"><path d="M80.6503 130.758C81.1133 130.758 81.4886 130.382 81.4886 129.919C81.4886 129.456 81.1133 129.081 80.6503 129.081C80.1873 129.081 79.812 129.456 79.812 129.919C79.812 130.382 80.1873 130.758 80.6503 130.758Z" fill="black"></path></g><path d="M70.0105 49.1077C70.1296 49.8881 69.5936 50.6173 68.8132 50.7364L64.6211 51.3764C63.8407 51.4955 63.1115 50.9595 62.9924 50.1791C62.8733 49.3988 63.4093 48.6696 64.1897 48.5505L68.3818 47.9105C69.1621 47.7913 69.8913 48.3273 70.0105 49.1077Z" fill="#FBE291"></path><g opacity="0.65"><path d="M68.921 47.9316L65.4417 48.4622C65.0148 48.5262 64.6619 48.7746 64.4477 49.1135C64.2706 49.394 64.1884 49.7373 64.2431 50.0909C64.3347 50.6874 64.7799 51.1413 65.3357 51.267L64.6216 51.378C63.841 51.4968 63.1116 50.9599 62.9929 50.1793C62.9395 49.8236 63.0196 49.479 63.1967 49.1986C63.4108 48.8596 63.7646 48.6147 64.1894 48.5493L68.3815 47.9099C68.5668 47.8806 68.7483 47.8899 68.921 47.9316Z" fill="#FCE5E5"></path></g><g opacity="0.3"><path d="M70.0101 49.1084C70.1289 49.8889 69.5934 50.6162 68.8128 50.735L66.855 51.0352C67.6355 50.9165 68.1724 50.187 68.0536 49.4065C67.9356 48.6294 67.2097 48.0917 66.4318 48.2063L68.3814 47.9098C69.1619 47.791 69.8913 48.3279 70.0101 49.1084Z" fill="black"></path></g><path d="M64.401 52.0119C63.968 52.0119 63.5477 51.8749 63.1923 51.6136C62.7515 51.2896 62.4633 50.8133 62.3807 50.2725C62.2981 49.7317 62.4311 49.1911 62.7551 48.7503C63.0791 48.3095 63.5554 48.0213 64.0962 47.9388L68.2884 47.2988C68.8292 47.2162 69.3698 47.3492 69.8106 47.6732C70.2514 47.9972 70.5395 48.4735 70.6221 49.0143C70.7925 50.1307 70.023 51.1776 68.9066 51.348L64.7144 51.988C64.6097 52.004 64.505 52.0119 64.401 52.0119ZM68.5992 48.5126C68.5581 48.5126 68.5166 48.5158 68.4752 48.5221L64.283 49.1621C64.069 49.1947 63.8805 49.3088 63.7523 49.4833C63.624 49.6577 63.5714 49.8717 63.6041 50.0857C63.6367 50.2997 63.7508 50.4882 63.9253 50.6165C64.0997 50.7447 64.3136 50.7974 64.5277 50.7647L68.7198 50.1247C69.1617 50.0572 69.4662 49.6429 69.3988 49.2011C69.3661 48.987 69.2521 48.7985 69.0776 48.6703C68.9369 48.5669 68.7706 48.5126 68.5992 48.5126Z" fill="black"></path><g opacity="0.3"><path d="M137.235 101.81C136.523 102.152 135.669 101.851 135.328 101.14L133.493 97.3162C133.152 96.6045 133.452 95.7507 134.164 95.4093C134.876 95.0678 135.729 95.368 136.071 96.0797L137.905 99.9032C138.247 100.615 137.946 101.469 137.235 101.81Z" fill="black"></path></g><g opacity="0.3"><path d="M125.844 122.043L125.776 121.994C125.156 121.545 125.017 120.677 125.466 120.057L128.374 116.041C128.824 115.42 129.691 115.281 130.312 115.731L130.38 115.78C131 116.229 131.139 117.097 130.69 117.717L127.782 121.733C127.332 122.354 126.465 122.493 125.844 122.043Z" fill="black"></path></g><g opacity="0.3"><path d="M87.9409 77.9146C87.3448 78.4321 86.442 78.3683 85.9246 77.7722L83.1446 74.5697C82.6272 73.9736 82.6909 73.0708 83.2871 72.5533C83.8832 72.0359 84.786 72.0996 85.3034 72.6958L88.0833 75.8982C88.6008 76.4944 88.5371 77.3971 87.9409 77.9146Z" fill="black"></path></g><g opacity="0.3"><path d="M76.0726 90.1618L75.9232 90.1917C75.1089 90.3546 74.3167 89.8266 74.1538 89.0122L73.3509 84.9997C73.188 84.1853 73.716 83.3931 74.5304 83.2302L74.6798 83.2003C75.4941 83.0373 76.2863 83.5654 76.4492 84.3797L77.2521 88.3923C77.415 89.2066 76.887 89.9989 76.0726 90.1618Z" fill="black"></path></g><g opacity="0.3"><path d="M107.603 79.4967C107.001 78.9858 106.928 78.0839 107.438 77.4821L110.183 74.2492C110.694 73.6474 111.596 73.5737 112.198 74.0846C112.799 74.5955 112.873 75.4975 112.362 76.0993L109.618 79.3321C109.107 79.9339 108.205 80.0076 107.603 79.4967Z" fill="black"></path></g><g opacity="0.3"><path d="M126.913 84.1669C126.153 83.9526 125.711 83.1629 125.926 82.4032L127.077 78.3218C127.292 77.5621 128.081 77.12 128.841 77.3344C129.601 77.5487 130.043 78.3384 129.828 79.0981L128.677 83.1795C128.462 83.9392 127.673 84.3813 126.913 84.1669Z" fill="black"></path></g><g opacity="0.3"><path d="M74.3558 106.81C73.9127 106.157 74.0831 105.268 74.7364 104.825L78.8642 102.026C79.5175 101.583 80.4063 101.753 80.8494 102.406C81.2925 103.06 81.122 103.949 80.4687 104.392L76.3409 107.191C75.6877 107.634 74.7989 107.464 74.3558 106.81Z" fill="black"></path></g><path d="M125.241 82.0063C124.481 81.7919 124.039 81.0022 124.254 80.2425L125.405 76.1611C125.62 75.4014 126.409 74.9593 127.169 75.1737C127.929 75.3881 128.371 76.1778 128.157 76.9375L127.005 81.0189C126.791 81.7785 126.001 82.2207 125.241 82.0063Z" fill="#FBE291"></path><g opacity="0.65"><path d="M126.763 81.5009L127.719 78.1139C127.837 77.6987 127.757 77.2746 127.537 76.9395C127.355 76.6622 127.077 76.4454 126.732 76.3489C126.151 76.1855 125.554 76.4029 125.209 76.857L125.404 76.1609C125.619 75.4012 126.409 74.9593 127.169 75.174C127.515 75.2726 127.795 75.4881 127.977 75.7653C128.197 76.1005 128.274 76.5239 128.158 76.9377L127.006 81.0187C126.956 81.1996 126.872 81.361 126.763 81.5009Z" fill="#FCE5E5"></path></g><g opacity="0.3"><path d="M125.241 82.0056C124.481 81.7908 124.04 81.0024 124.255 80.2426L124.792 78.3361C124.577 79.0958 125.019 79.8863 125.779 80.1011C126.535 80.3152 127.325 79.8766 127.542 79.121L127.006 81.0187C126.791 81.7784 126 82.2204 125.241 82.0056Z" fill="black"></path></g><path d="M125.632 82.6797C125.446 82.6797 125.258 82.6539 125.073 82.6018C124.547 82.4532 124.109 82.1085 123.842 81.6311C123.575 81.1538 123.51 80.6009 123.658 80.0745L124.81 75.9931C125.116 74.9062 126.25 74.2715 127.337 74.5782C127.864 74.7267 128.301 75.0714 128.568 75.5488C128.835 76.0262 128.901 76.579 128.752 77.1055L127.6 81.1869C127.452 81.7133 127.107 82.1505 126.63 82.4177C126.32 82.5913 125.978 82.6797 125.632 82.6797ZM126.781 75.7386C126.427 75.7386 126.101 75.9723 126.001 76.3291L124.849 80.4105C124.79 80.6189 124.816 80.8377 124.922 81.0266C125.028 81.2156 125.201 81.352 125.409 81.4108C125.617 81.4696 125.836 81.4437 126.025 81.3379C126.214 81.2322 126.351 81.0592 126.409 80.8508L127.561 76.7694C127.62 76.561 127.594 76.3423 127.488 76.1534C127.383 75.9644 127.209 75.828 127.001 75.7692C126.928 75.7485 126.854 75.7386 126.781 75.7386Z" fill="black"></path><path d="M114.207 47.649C113.447 47.4346 113.005 46.6449 113.219 45.8852L114.371 41.8038C114.586 41.0441 115.375 40.602 116.135 40.8164C116.895 41.0308 117.337 41.8205 117.122 42.5802L115.971 46.6616C115.756 47.4213 114.967 47.8634 114.207 47.649Z" fill="#FBE291"></path><g opacity="0.65"><path d="M115.728 47.1437L116.685 43.7566C116.803 43.3415 116.723 42.9174 116.503 42.5822C116.321 42.3049 116.042 42.0881 115.698 41.9916C115.117 41.8282 114.52 42.0457 114.175 42.4997L114.37 41.8037C114.584 41.0439 115.375 40.602 116.135 40.8168C116.481 40.9153 116.761 41.1309 116.943 41.4081C117.163 41.7433 117.24 42.1667 117.124 42.5805L115.971 46.6615C115.921 46.8423 115.838 47.0037 115.728 47.1437Z" fill="#FCE5E5"></path></g><g opacity="0.3"><path d="M114.206 47.6483C113.447 47.4335 113.006 46.6451 113.221 45.8853L113.758 43.9788C113.543 44.7385 113.985 45.529 114.744 45.7438C115.501 45.9579 116.291 45.5193 116.508 44.7637L115.972 46.6614C115.757 47.4211 114.966 47.8631 114.206 47.6483Z" fill="black"></path></g><path d="M114.594 48.3217C114.411 48.3217 114.224 48.2968 114.039 48.2445C112.952 47.9378 112.317 46.8041 112.624 45.7172L113.776 41.6358C114.082 40.549 115.216 39.9142 116.303 40.2209C117.39 40.5276 118.025 41.6614 117.718 42.7483L116.566 46.8296C116.312 47.7312 115.488 48.3217 114.594 48.3217ZM114.375 47.0535C114.805 47.1749 115.254 46.9237 115.375 46.4935L116.527 42.4122C116.648 41.982 116.397 41.5333 115.967 41.4119C115.537 41.2905 115.088 41.5417 114.967 41.9719L113.815 46.0533C113.694 46.4834 113.945 46.9321 114.375 47.0535Z" fill="black"></path><path d="M138.206 97.9207C137.481 98.232 136.64 97.8962 136.329 97.1708L134.657 93.2736C134.346 92.5481 134.682 91.7077 135.407 91.3964C136.133 91.0852 136.973 91.4209 137.284 92.1464L138.956 96.0436C139.267 96.7691 138.932 97.6095 138.206 97.9207Z" fill="#FBE291"></path><g opacity="0.65"><path d="M139.071 96.5708L137.684 93.3362C137.515 92.9391 137.186 92.6597 136.804 92.5376C136.488 92.4365 136.135 92.4432 135.806 92.5849C135.252 92.8234 134.924 93.3682 134.942 93.9378L134.656 93.2744C134.345 92.5487 134.681 91.7079 135.407 91.3969C135.738 91.2559 136.092 91.247 136.407 91.348C136.789 91.4702 137.115 91.7511 137.285 92.1459L138.957 96.0431C139.032 96.2151 139.068 96.3931 139.071 96.5708Z" fill="#FCE5E5"></path></g><g opacity="0.3"><path d="M138.205 97.9205C137.48 98.2314 136.641 97.8957 136.33 97.1699L135.548 95.3502C135.859 96.0759 136.7 96.4124 137.426 96.1015C138.148 95.7921 138.486 94.9544 138.18 94.2302L138.957 96.043C139.268 96.7687 138.931 97.6095 138.205 97.9205Z" fill="black"></path></g><path d="M137.643 98.6564C137.386 98.6564 137.129 98.6073 136.883 98.5091C136.375 98.3061 135.976 97.9174 135.76 97.4147L134.088 93.5175C133.643 92.4797 134.125 91.2731 135.163 90.8278C136.201 90.3825 137.407 90.8645 137.853 91.9024L139.525 95.7995C139.97 96.8374 139.488 98.044 138.45 98.4892C138.191 98.6006 137.917 98.6564 137.643 98.6564ZM135.969 91.8994C135.863 91.8994 135.755 91.9205 135.651 91.9651C135.24 92.1413 135.049 92.6189 135.226 93.0296L136.898 96.9268C136.983 97.1258 137.141 97.2796 137.342 97.3599C137.543 97.4403 137.763 97.4375 137.962 97.3521C138.373 97.1759 138.564 96.6983 138.388 96.2876L136.715 92.3904C136.584 92.0835 136.284 91.8994 135.969 91.8994Z" fill="black"></path><path d="M87.4444 44.9926C86.7189 45.3039 85.8785 44.9681 85.5673 44.2427L83.8952 40.3455C83.584 39.62 83.9197 38.7797 84.6452 38.4684C85.3707 38.1571 86.211 38.4929 86.5223 39.2184L88.1943 43.1156C88.5056 43.841 88.1699 44.6814 87.4444 44.9926Z" fill="#FBE291"></path><g opacity="0.65"><path d="M88.3092 43.6427L86.9221 40.4081C86.7529 40.011 86.4238 39.7316 86.0419 39.6095C85.726 39.5084 85.3732 39.5151 85.0445 39.6568C84.4901 39.8953 84.1625 40.4401 84.1804 41.0097L83.8937 40.3463C83.5827 39.6206 83.9193 38.7798 84.645 38.4688C84.9759 38.3278 85.3296 38.3189 85.6455 38.4199C86.0273 38.5421 86.3532 38.823 86.5232 39.2178L88.1947 43.115C88.2697 43.287 88.3063 43.465 88.3092 43.6427Z" fill="#FCE5E5"></path></g><g opacity="0.3"><path d="M87.4435 44.9925C86.7178 45.3034 85.8794 44.9677 85.5684 44.242L84.7863 42.4222C85.0972 43.148 85.938 43.4845 86.6637 43.1735C87.3863 42.8641 87.7245 42.0264 87.4182 41.3022L88.1948 43.115C88.5058 43.8407 88.1693 44.6815 87.4435 44.9925Z" fill="black"></path></g><path d="M86.8837 45.7272C86.0889 45.7272 85.3313 45.2621 84.9986 44.4867L83.3266 40.5895C83.1109 40.0868 83.1039 39.5301 83.3068 39.0221C83.5098 38.5141 83.8985 38.1155 84.4012 37.8998C85.439 37.4546 86.6456 37.9366 87.0909 38.9744L88.763 42.8716C89.2083 43.9094 88.7262 45.1161 87.6884 45.5613C87.4259 45.6739 87.1526 45.7272 86.8837 45.7272ZM87.2004 44.4241C87.6112 44.2479 87.8019 43.7703 87.6257 43.3595L85.9536 39.4624C85.7774 39.0516 85.2999 38.8608 84.8892 39.0371C84.4784 39.2133 84.2876 39.6909 84.4638 40.1016L86.1359 43.9987C86.3121 44.4095 86.7897 44.6003 87.2004 44.4241Z" fill="black"></path><path d="M106.779 76.6176C106.177 76.1067 106.103 75.2047 106.614 74.6029L109.359 71.37C109.869 70.7683 110.771 70.6946 111.373 71.2055C111.975 71.7163 112.049 72.6183 111.538 73.2201L108.793 76.453C108.282 77.0548 107.38 77.1285 106.779 76.6176Z" fill="#ED2E7A"></path><g opacity="0.65"><path d="M108.372 76.7907L110.651 74.108C110.931 73.7796 111.034 73.3607 110.974 72.9643C110.923 72.6365 110.76 72.3235 110.487 72.0924C110.027 71.7023 109.393 71.6516 108.891 71.9214L109.357 71.3692C109.868 70.7676 110.771 70.6944 111.373 71.2056C111.646 71.4391 111.812 71.7518 111.862 72.0796C111.923 72.4759 111.816 72.8928 111.539 73.2208L108.794 76.4532C108.673 76.5969 108.53 76.7089 108.372 76.7907Z" fill="#FCE5E5"></path></g><g opacity="0.3"><path d="M106.778 76.6167C106.177 76.1055 106.104 75.2052 106.615 74.6036L107.896 73.0928C107.385 73.6944 107.458 74.5971 108.06 75.1084C108.658 75.6176 109.559 75.5472 110.071 74.9504L108.794 76.4531C108.283 77.0548 107.38 77.128 106.778 76.6167Z" fill="black"></path></g><path d="M107.702 77.5751C107.233 77.5752 106.763 77.4156 106.378 77.0893C105.961 76.7352 105.707 76.24 105.662 75.6947C105.618 75.1495 105.788 74.6195 106.142 74.2024L108.887 70.9696C109.241 70.5526 109.736 70.2983 110.281 70.2538C110.827 70.2092 111.357 70.3797 111.774 70.7337C112.635 71.4646 112.74 72.7596 112.009 73.6205L109.265 76.8534C108.86 77.3299 108.283 77.5751 107.702 77.5751ZM110.449 71.4844C110.427 71.4844 110.405 71.4853 110.382 71.4872C110.166 71.5048 109.97 71.6054 109.83 71.7705L107.086 75.0034C106.946 75.1684 106.878 75.3782 106.896 75.5939C106.913 75.8097 107.014 76.0057 107.179 76.1459C107.52 76.4352 108.032 76.3933 108.322 76.0525L111.066 72.8196C111.355 72.4789 111.314 71.9663 110.973 71.6771C110.825 71.5516 110.641 71.4844 110.449 71.4844Z" fill="black"></path><path d="M117.347 28.4375C116.908 27.7816 117.084 26.8938 117.739 26.4546L121.263 24.0951C121.919 23.6559 122.807 23.8316 123.246 24.4875C123.685 25.1434 123.51 26.0312 122.854 26.4704L119.33 28.8299C118.674 29.2691 117.786 29.0934 117.347 28.4375Z" fill="#ED2E7A"></path><g opacity="0.65"><path d="M118.833 29.0396L121.758 27.0819C122.117 26.8426 122.331 26.4679 122.381 26.0701C122.422 25.741 122.351 25.3953 122.151 25.0984C121.815 24.5972 121.219 24.3753 120.663 24.4975L121.262 24.0938C121.918 23.6548 122.807 23.8312 123.246 24.4874C123.445 24.7868 123.519 25.1328 123.478 25.4619C123.428 25.8597 123.211 26.2317 122.855 26.4712L119.331 28.8302C119.175 28.9355 119.007 29.0041 118.833 29.0396Z" fill="#FCE5E5"></path></g><g opacity="0.3"><path d="M117.347 28.4366C116.908 27.7803 117.084 26.8945 117.74 26.4555L119.386 25.3524C118.729 25.7914 118.553 26.6797 118.992 27.3359C119.429 27.9894 120.314 28.1679 120.97 27.7339L119.331 28.8302C118.674 29.2692 117.786 29.0929 117.347 28.4366Z" fill="black"></path></g><path d="M118.538 29.6897C117.877 29.6897 117.228 29.371 116.833 28.7817C116.205 27.8434 116.457 26.5687 117.395 25.9404L120.919 23.581C121.374 23.2766 121.919 23.1674 122.456 23.2737C122.993 23.3799 123.456 23.6887 123.76 24.1433C124.389 25.0817 124.136 26.3563 123.198 26.9846L119.674 29.3441C119.325 29.5777 118.929 29.6897 118.538 29.6897ZM117.861 28.0932C118.11 28.4646 118.614 28.5644 118.986 28.3157L122.509 25.9563C122.689 25.8358 122.812 25.6525 122.854 25.4401C122.896 25.2277 122.853 25.0117 122.732 24.8317C122.612 24.6518 122.428 24.5296 122.216 24.4876C122.003 24.4455 121.787 24.4887 121.608 24.6092L118.084 26.9686C117.712 27.2173 117.613 27.7218 117.861 28.0932Z" fill="black"></path><path d="M101.041 63.0488C100.275 63.2399 99.4996 62.7738 99.3086 62.0078L98.2826 57.8931C98.0915 57.1271 98.5576 56.3514 99.3236 56.1604C100.09 55.9693 100.865 56.4354 101.056 57.2014L102.082 61.3161C102.273 62.0821 101.807 62.8578 101.041 63.0488Z" fill="#ED2E7A"></path><g opacity="0.65"><path d="M102.111 61.8549L101.26 58.4399C101.157 58.0207 100.877 57.6923 100.52 57.5105C100.224 57.3602 99.8746 57.3102 99.5276 57.3975C98.9421 57.544 98.5315 58.0293 98.4579 58.5944L98.2812 57.8937C98.0905 57.1275 98.5574 56.3514 99.3235 56.1608C99.6728 56.0747 100.023 56.1225 100.319 56.2728C100.676 56.4546 100.953 56.7841 101.058 57.201L102.083 61.3157C102.129 61.4975 102.137 61.679 102.111 61.8549Z" fill="#FCE5E5"></path></g><g opacity="0.3"><path d="M101.041 63.0485C100.274 63.2391 99.5006 62.7734 99.31 62.0072L98.8295 60.0857C99.0201 60.8519 99.7962 61.3187 100.562 61.1281C101.325 60.9385 101.793 60.1658 101.607 59.4019L102.083 61.3156C102.274 62.0818 101.807 62.8578 101.041 63.0485Z" fill="black"></path></g><path d="M100.696 63.7103C99.7775 63.7103 98.9402 63.0876 98.7082 62.1575L97.6822 58.0428C97.5498 57.512 97.6321 56.9614 97.9138 56.4924C98.1956 56.0235 98.643 55.6924 99.1738 55.56C100.27 55.2867 101.383 55.9559 101.657 57.0517L102.683 61.1664C102.956 62.2622 102.287 63.376 101.191 63.6492C101.025 63.6905 100.859 63.7103 100.696 63.7103ZM100.892 62.4485C101.325 62.3403 101.59 61.8995 101.482 61.4659L100.456 57.3511C100.348 56.9175 99.907 56.6526 99.4733 56.7607C99.2632 56.8131 99.0861 56.9442 98.9746 57.1298C98.8631 57.3153 98.8305 57.5332 98.8829 57.7434L99.909 61.8581C100.017 62.2918 100.458 62.5566 100.892 62.4485Z" fill="black"></path><path d="M74.6111 90.1766C73.837 90.3315 73.084 89.8296 72.9291 89.0555L72.097 84.8972C71.9421 84.1231 72.4441 83.3701 73.2182 83.2152C73.9922 83.0603 74.7453 83.5622 74.9001 84.3363L75.7322 88.4946C75.8871 89.2687 75.3852 90.0217 74.6111 90.1766Z" fill="#ED2E7A"></path><g opacity="0.65"><path d="M75.7359 89.0341L75.0459 85.5829C74.9623 85.1594 74.698 84.8182 74.3496 84.6199C74.0613 84.4559 73.7146 84.3895 73.3639 84.4605C72.7722 84.5794 72.3393 85.0449 72.2392 85.6059L72.0955 84.8976C71.941 84.1234 72.4438 83.3701 73.2181 83.2156C73.571 83.1459 73.9189 83.2101 74.2071 83.3741C74.5556 83.5724 74.8165 83.9146 74.9013 84.3359L75.7329 88.4941C75.7706 88.678 75.7697 88.8597 75.7359 89.0341Z" fill="#FCE5E5"></path></g><g opacity="0.3"><path d="M74.6103 90.1763C73.8361 90.3309 73.0849 89.8293 72.9304 89.0551L72.5405 87.1132C72.6951 87.8875 73.4484 88.3902 74.2226 88.2356C74.9935 88.082 75.4972 87.3321 75.3469 86.5603L75.7328 88.4943C75.8873 89.2685 75.3846 90.0218 74.6103 90.1763Z" fill="black"></path></g><path d="M74.3299 90.8234C73.374 90.8234 72.5169 90.1493 72.3223 89.1769L71.4902 85.0186C71.2687 83.9113 71.9893 82.8301 73.0966 82.6085C73.6331 82.5013 74.1792 82.6092 74.6344 82.9126C75.0896 83.216 75.3994 83.6786 75.5068 84.215L76.3388 88.3733C76.4461 88.9097 76.3382 89.4559 76.0347 89.9111C75.7313 90.3663 75.2688 90.6761 74.7323 90.7834C74.5973 90.8104 74.4626 90.8234 74.3299 90.8234ZM73.5002 83.8059C73.4468 83.8059 73.3931 83.8112 73.3395 83.8219C73.1272 83.8644 72.9441 83.987 72.824 84.1672C72.704 84.3474 72.6612 84.5635 72.7037 84.7758L73.5358 88.9341C73.6235 89.3724 74.0514 89.6576 74.4896 89.5699C74.7019 89.5274 74.885 89.4048 75.0051 89.2246C75.1252 89.0444 75.1679 88.8283 75.1254 88.616L74.2934 84.4577C74.2509 84.2454 74.1283 84.0623 73.9481 83.9423C73.8134 83.8525 73.6585 83.8059 73.5002 83.8059Z" fill="black"></path><path d="M74.2497 105.128C73.7761 104.496 73.9043 103.6 74.5359 103.127L77.929 100.583C78.5606 100.11 79.4565 100.238 79.93 100.869C80.4035 101.501 80.2754 102.397 79.6438 102.87L76.2507 105.414C75.619 105.888 74.7232 105.759 74.2497 105.128Z" fill="#ED2E7A"></path><g opacity="0.65"><path d="M75.7655 105.65L78.5818 103.539C78.9279 103.281 79.1218 102.896 79.1504 102.496C79.1741 102.165 79.0845 101.824 78.8693 101.538C78.5068 101.055 77.9001 100.865 77.3508 101.017L77.9279 100.582C78.5598 100.109 79.4563 100.237 79.9295 100.869C80.1446 101.158 80.2367 101.499 80.213 101.83C80.1844 102.23 79.9881 102.613 79.6446 102.871L76.2513 105.414C76.1018 105.528 75.9375 105.605 75.7655 105.65Z" fill="#FCE5E5"></path></g><g opacity="0.3"><path d="M74.2497 105.127C73.7763 104.495 73.905 103.601 74.5369 103.128L76.1209 101.939C75.4889 102.412 75.3601 103.308 75.8335 103.94C76.3045 104.57 77.1983 104.701 77.8299 104.232L76.2513 105.415C75.6194 105.888 74.7229 105.759 74.2497 105.127Z" fill="black"></path></g><path d="M75.3976 106.319C75.2999 106.319 75.2017 106.312 75.1033 106.298C74.5618 106.22 74.0827 105.937 73.7546 105.499C73.4265 105.061 73.2884 104.522 73.3659 103.98C73.4434 103.439 73.7271 102.96 74.1648 102.632L77.5579 100.088C77.9956 99.7598 78.5349 99.6217 79.0764 99.6991C79.618 99.7766 80.097 100.06 80.4251 100.498C80.7533 100.936 80.8913 101.475 80.8139 102.017C80.7364 102.558 80.4527 103.037 80.015 103.365L76.6219 105.909C76.2637 106.178 75.8374 106.319 75.3976 106.319ZM78.7847 100.916C78.6106 100.916 78.442 100.972 78.3002 101.078L74.9071 103.622C74.7339 103.752 74.6216 103.941 74.5909 104.156C74.5603 104.37 74.6149 104.583 74.7448 104.757C74.8746 104.93 75.0642 105.042 75.2785 105.073C75.4928 105.104 75.7063 105.049 75.8795 104.919L79.2726 102.375C79.4459 102.245 79.5581 102.056 79.5888 101.841C79.6195 101.627 79.5649 101.414 79.435 101.24C79.3051 101.067 79.1156 100.955 78.9012 100.924C78.8623 100.919 78.8234 100.916 78.7847 100.916Z" fill="black"></path><path d="M128.961 53.1225C128.487 52.4909 128.615 51.595 129.247 51.1215L132.64 48.5777C133.272 48.1041 134.167 48.2323 134.641 48.8639C135.114 49.4955 134.986 50.3914 134.355 50.8649L130.962 53.4087C130.33 53.8823 129.434 53.7541 128.961 53.1225Z" fill="#ED2E7A"></path><g opacity="0.65"><path d="M130.476 53.6447L133.293 51.5341C133.639 51.276 133.833 50.8904 133.861 50.4904C133.885 50.1596 133.795 49.8182 133.58 49.5323C133.218 49.0498 132.611 48.8599 132.062 49.0115L132.639 48.5765C133.271 48.1032 134.167 48.232 134.64 48.8639C134.855 49.1523 134.947 49.4939 134.924 49.8247C134.895 50.2246 134.699 50.6075 134.355 50.8658L130.962 53.4091C130.813 53.5224 130.648 53.6 130.476 53.6447Z" fill="#FCE5E5"></path></g><g opacity="0.3"><path d="M128.961 53.1217C128.487 52.4898 128.616 51.5958 129.248 51.1225L130.832 49.9333C130.2 50.4066 130.071 51.3031 130.544 51.935C131.015 52.5643 131.909 52.6954 132.541 52.2271L130.962 53.4091C130.33 53.8824 129.434 53.7536 128.961 53.1217Z" fill="black"></path></g><path d="M130.107 54.3125C129.483 54.3125 128.867 54.0297 128.465 53.4937C128.137 53.056 127.999 52.5167 128.077 51.9752C128.154 51.4336 128.438 50.9547 128.876 50.6265L132.269 48.0827C133.172 47.4053 134.459 47.5893 135.136 48.4928C135.464 48.9306 135.602 49.4699 135.525 50.0114C135.447 50.5529 135.163 51.0319 134.726 51.3601L131.333 53.9039C130.965 54.1794 130.534 54.3125 130.107 54.3125ZM133.496 48.9111C133.327 48.9111 133.157 48.9637 133.011 49.0728L129.618 51.6166C129.445 51.7465 129.332 51.9361 129.302 52.1504C129.271 52.3647 129.326 52.5782 129.456 52.7514C129.724 53.1091 130.233 53.1819 130.59 52.9137L133.983 50.3699C134.157 50.24 134.269 50.0505 134.3 49.8362C134.33 49.6218 134.276 49.4084 134.146 49.2351C133.987 49.023 133.743 48.9111 133.496 48.9111Z" fill="black"></path><path d="M88.4115 74.8844C87.8154 75.4019 86.9126 75.3381 86.3951 74.742L83.6152 71.5395C83.0978 70.9434 83.1615 70.0406 83.7576 69.5232C84.3538 69.0057 85.2565 69.0695 85.774 69.6656L88.5539 72.8681C89.0714 73.4642 89.0077 74.367 88.4115 74.8844Z" fill="#51C5DA"></path><g opacity="0.65"><path d="M88.824 73.3352L86.5173 70.677C86.2352 70.3503 85.8367 70.1845 85.4358 70.1845C85.1041 70.1845 84.77 70.2984 84.5002 70.5335C84.0448 70.9295 83.8988 71.5482 84.0894 72.0853L83.6142 71.5408C83.0969 70.9443 83.1612 70.041 83.7577 69.5237C84.03 69.2886 84.3641 69.1722 84.6957 69.1722C85.0967 69.1722 85.4927 69.3405 85.7748 69.6648L88.5543 72.8674C88.678 73.0085 88.7671 73.1669 88.824 73.3352Z" fill="#FCE5E5"></path></g><g opacity="0.3"><path d="M88.4107 74.8845C87.8142 75.4018 86.9133 75.3374 86.3961 74.741L85.0967 73.2461C85.614 73.8425 86.5173 73.9069 87.1138 73.3896C87.7078 72.8748 87.7746 71.9739 87.2623 71.3774L88.5543 72.8674C89.0715 73.4639 89.0072 74.3672 88.4107 74.8845Z" fill="black"></path></g><path d="M87.4758 75.8522C86.9025 75.8522 86.3323 75.6135 85.9278 75.1476L83.1479 71.9451C82.7893 71.532 82.613 71.0039 82.6516 70.4582C82.6901 69.9125 82.9389 69.4145 83.352 69.0559C83.7651 68.6973 84.2932 68.5209 84.8389 68.5595C85.3846 68.5981 85.8826 68.8468 86.2412 69.26L89.0212 72.4625C89.7615 73.3153 89.6699 74.6114 88.8171 75.3517C88.4302 75.6875 87.9519 75.8522 87.4758 75.8522ZM84.6933 69.7919C84.4983 69.7919 84.3119 69.8613 84.1632 69.9904C83.9997 70.1323 83.9012 70.3294 83.886 70.5454C83.8707 70.7614 83.9405 70.9704 84.0824 71.1339L86.8623 74.3364C87.0043 74.4999 87.2014 74.5983 87.4174 74.6136C87.6333 74.6288 87.8423 74.5591 88.0058 74.4171C88.1693 74.2752 88.2678 74.0781 88.283 73.8621C88.2983 73.6462 88.2285 73.4372 88.0866 73.2737L85.3066 70.0712C85.1647 69.9077 84.9676 69.8092 84.7516 69.794C84.7322 69.7926 84.7127 69.7919 84.6933 69.7919Z" fill="black"></path><path d="M106.112 32.1747C105.516 32.6921 104.613 32.6284 104.096 32.0322L101.316 28.8297C100.798 28.2336 100.862 27.3309 101.458 26.8134C102.054 26.2959 102.957 26.3597 103.474 26.9558L106.254 30.1583C106.772 30.7544 106.708 31.6572 106.112 32.1747Z" fill="#51C5DA"></path><g opacity="0.65"><path d="M106.524 30.6254L104.218 27.9672C103.936 27.6405 103.537 27.4747 103.136 27.4747C102.805 27.4747 102.47 27.5885 102.201 27.8237C101.745 28.2197 101.599 28.8384 101.79 29.3755L101.315 28.831C100.797 28.2345 100.862 27.3311 101.458 26.8139C101.73 26.5787 102.065 26.4624 102.396 26.4624C102.797 26.4624 103.193 26.6307 103.475 26.9549L106.255 30.1576C106.378 30.2987 106.468 30.4571 106.524 30.6254Z" fill="#FCE5E5"></path></g><g opacity="0.3"><path d="M106.111 32.1747C105.515 32.692 104.614 32.6276 104.096 32.0311L102.797 30.5362C103.314 31.1327 104.218 31.1971 104.814 30.6798C105.408 30.165 105.475 29.2641 104.963 28.6676L106.255 30.1576C106.772 30.754 106.707 31.6574 106.111 32.1747Z" fill="black"></path></g><path d="M105.176 33.1425C104.603 33.1425 104.033 32.9038 103.628 32.4379L100.848 29.2354C100.49 28.8222 100.313 28.2942 100.352 27.7485C100.391 27.2028 100.639 26.7047 101.052 26.3462C101.466 25.9875 101.994 25.8113 102.539 25.8498C103.085 25.8884 103.583 26.1371 103.942 26.5502L106.722 29.7527C107.462 30.6055 107.37 31.9016 106.517 32.6419C106.131 32.9778 105.652 33.1425 105.176 33.1425ZM102.394 27.0822C102.199 27.0822 102.012 27.1516 101.864 27.2807C101.7 27.4226 101.602 27.6197 101.586 27.8357C101.571 28.0517 101.641 28.2607 101.783 28.4242L104.563 31.6267C104.705 31.7902 104.902 31.8886 105.118 31.9039C105.334 31.9191 105.543 31.8494 105.706 31.7074C106.044 31.4144 106.08 30.9014 105.787 30.5639L103.007 27.3614C102.865 27.198 102.668 27.0995 102.452 27.0842C102.433 27.0829 102.413 27.0822 102.394 27.0822Z" fill="black"></path><path d="M142.715 68.5654C141.98 68.2779 141.617 67.4488 141.905 66.7137L143.449 62.7642C143.736 62.029 144.565 61.6661 145.301 61.9535C146.036 62.241 146.399 63.07 146.111 63.8052L144.567 67.7547C144.279 68.4899 143.45 68.8528 142.715 68.5654Z" fill="#51C5DA"></path><g opacity="0.65"><path d="M144.279 68.2108L145.561 64.9332C145.719 64.5315 145.681 64.1016 145.495 63.7466C145.341 63.4529 145.085 63.2099 144.751 63.0803C144.189 62.861 143.573 63.0191 143.186 63.4374L143.447 62.7636C143.735 62.0285 144.565 61.6658 145.3 61.9537C145.635 62.0855 145.893 62.3273 146.047 62.6211C146.234 62.9761 146.269 63.405 146.113 63.8055L144.568 67.7546C144.5 67.9297 144.401 68.0822 144.279 68.2108Z" fill="#FCE5E5"></path></g><g opacity="0.3"><path d="M142.715 68.5645C141.98 68.2766 141.618 67.449 141.906 66.7138L142.626 64.8687C142.338 65.6038 142.701 66.4337 143.436 66.7216C144.168 67.0084 144.997 66.6491 145.287 65.9183L144.568 67.7546C144.28 68.4897 143.45 68.8524 142.715 68.5645Z" fill="black"></path></g><path d="M143.233 69.2823C142.986 69.2823 142.734 69.237 142.49 69.1415C141.98 68.9423 141.579 68.5566 141.36 68.0555C141.14 67.5543 141.129 66.9978 141.328 66.4882L142.873 62.5387C143.284 61.487 144.474 60.9659 145.526 61.3772C146.036 61.5764 146.437 61.9621 146.656 62.4633C146.876 62.9644 146.887 63.521 146.688 64.0305L145.143 67.98C144.827 68.7876 144.052 69.2823 143.233 69.2823ZM142.941 67.989C143.357 68.1518 143.828 67.9456 143.991 67.5293L145.535 63.5798C145.614 63.3782 145.61 63.1579 145.523 62.9595C145.436 62.7612 145.277 62.6085 145.075 62.5297C144.874 62.4508 144.653 62.4552 144.455 62.5421C144.257 62.6289 144.104 62.7878 144.025 62.9894L142.481 66.9389C142.402 67.1406 142.406 67.3608 142.493 67.5592C142.58 67.7575 142.739 67.9102 142.941 67.989Z" fill="black"></path><path d="M124.924 120.552C124.284 120.089 124.141 119.195 124.604 118.556L127.092 115.121C127.555 114.481 128.448 114.338 129.088 114.801C129.727 115.264 129.87 116.158 129.407 116.797L126.92 120.232C126.457 120.872 125.563 121.015 124.924 120.552Z" fill="#51C5DA"></path><g opacity="0.65"><path d="M126.526 120.601L128.591 117.751C128.845 117.402 128.916 116.976 128.825 116.586C128.749 116.263 128.563 115.963 128.272 115.754C127.783 115.401 127.148 115.399 126.668 115.707L127.09 115.12C127.553 114.481 128.448 114.338 129.087 114.802C129.378 115.013 129.567 115.312 129.642 115.635C129.734 116.026 129.66 116.45 129.408 116.798L126.92 120.232C126.811 120.385 126.677 120.508 126.526 120.601Z" fill="#FCE5E5"></path></g><g opacity="0.3"><path d="M124.924 120.551C124.284 120.087 124.142 119.195 124.606 118.556L125.766 116.951C125.303 117.59 125.445 118.485 126.085 118.948C126.721 119.41 127.614 119.27 128.078 118.636L126.921 120.232C126.457 120.872 125.563 121.014 124.924 120.551Z" fill="black"></path></g><path d="M125.758 121.442C125.33 121.442 124.914 121.309 124.561 121.053C124.118 120.732 123.826 120.258 123.74 119.717C123.653 119.177 123.782 118.636 124.103 118.193L126.591 114.758C126.911 114.315 127.386 114.023 127.926 113.937C128.466 113.85 129.008 113.979 129.451 114.3C129.894 114.621 130.185 115.095 130.272 115.635C130.358 116.176 130.229 116.717 129.908 117.16L127.421 120.595C127.1 121.038 126.626 121.33 126.086 121.416C125.976 121.434 125.867 121.442 125.758 121.442ZM125.287 120.05C125.462 120.177 125.676 120.228 125.89 120.194C126.104 120.16 126.292 120.045 126.419 119.869L128.906 116.434C129.033 116.259 129.084 116.045 129.05 115.831C129.016 115.617 128.9 115.43 128.725 115.303C128.549 115.176 128.335 115.124 128.121 115.159C127.907 115.193 127.72 115.308 127.593 115.484L125.106 118.918C124.979 119.094 124.927 119.308 124.962 119.522C124.996 119.736 125.111 119.923 125.287 120.05Z" fill="black"></path><path d="M75.9087 29.3213C75.2693 28.8583 75.1263 27.9647 75.5893 27.3253L78.0765 23.8905C78.5394 23.2511 79.4331 23.1082 80.0724 23.5711C80.7118 24.0341 80.8548 24.9277 80.3918 25.5671L77.9046 29.0019C77.4417 29.6413 76.548 29.7843 75.9087 29.3213Z" fill="#51C5DA"></path><g opacity="0.65"><path d="M77.5111 29.371L79.5757 26.5207C79.8297 26.1718 79.9007 25.746 79.8096 25.3556C79.7343 25.0326 79.5475 24.733 79.2572 24.5238C78.7681 24.1702 78.1324 24.1686 77.6526 24.4762L78.0749 23.8897C78.5383 23.2505 79.4327 23.1079 80.0719 23.5713C80.3627 23.783 80.5519 24.082 80.6272 24.405C80.7183 24.7954 80.6444 25.2193 80.3927 25.5677L77.9053 29.002C77.7961 29.1545 77.6621 29.2773 77.5111 29.371Z" fill="#FCE5E5"></path></g><g opacity="0.3"><path d="M75.9084 29.3205C75.2692 28.8571 75.1271 27.9652 75.5905 27.3259L76.7511 25.7209C76.2878 26.3601 76.4303 27.2545 77.0696 27.7179C77.7058 28.1794 78.5984 28.0398 79.0629 27.4054L77.9054 29.002C77.442 29.6413 76.5476 29.7838 75.9084 29.3205Z" fill="black"></path></g><path d="M76.7441 30.2109C76.3278 30.2109 75.9079 30.0847 75.5456 29.8224C74.6309 29.16 74.4256 27.877 75.088 26.9623L77.5752 23.5275C77.896 23.0844 78.3702 22.7928 78.9104 22.7064C79.4506 22.6199 79.9921 22.749 80.4352 23.0699C80.8783 23.3908 81.1699 23.865 81.2563 24.4051C81.3428 24.9453 81.2137 25.4868 80.8928 25.9299L78.4056 29.3647C78.0056 29.9172 77.3791 30.2109 76.7441 30.2109ZM76.2714 28.8201C76.6334 29.0823 77.1413 29.001 77.4034 28.639L79.8906 25.2042C80.0175 25.0288 80.0687 24.8145 80.0344 24.6007C80.0002 24.3869 79.8848 24.1992 79.7094 24.0722C79.534 23.9453 79.3197 23.8941 79.1059 23.9284C78.8921 23.9626 78.7045 24.078 78.5774 24.2534L76.0903 27.6882C75.8282 28.0501 75.9094 28.558 76.2714 28.8201Z" fill="black"></path><path d="M100.975 158.732C100.938 158.732 100.907 158.73 100.882 158.727C100.432 158.696 100.077 158.321 100.077 157.863C100.077 157.385 100.464 156.997 100.943 156.997H100.978C101.456 156.997 101.844 157.385 101.844 157.863C101.844 158.341 101.454 158.732 100.975 158.732ZM100.941 158.729C100.941 158.729 100.941 158.729 100.941 158.729C100.941 158.729 100.941 158.729 100.941 158.729Z" fill="black"></path></svg> 