<?xml version="1.0" encoding="UTF-8"?> <svg xmlns="http://www.w3.org/2000/svg" width="28" height="28" viewBox="0 0 28 28" fill="none"><g clip-path="url(#clip0_5_189)"><path d="M21 0H7C3.08 0 0 3.08 0 7V21C0 24.92 3.08 28 7 28H21C24.92 28 28 24.92 28 21V7C28 3.08 24.92 0 21 0ZM25.2 21C25.2 23.38 23.38 25.2 21 25.2H7C4.62 25.2 2.8 23.38 2.8 21V7C2.8 4.62 4.62 2.8 7 2.8H21C23.38 2.8 25.2 4.62 25.2 7V21Z" fill="#010910"></path><path d="M14 7C10.08 7 7 10.08 7 14C7 17.92 10.08 21 14 21C17.92 21 21 17.92 21 14C21 10.08 17.92 7 14 7ZM14 18.2C11.62 18.2 9.8 16.38 9.8 14C9.8 11.62 11.62 9.8 14 9.8C16.38 9.8 18.2 11.62 18.2 14C18.2 16.38 16.38 18.2 14 18.2Z" fill="#010910"></path><path d="M21 8.40001C21.7732 8.40001 22.4 7.7732 22.4 7.00001C22.4 6.22681 21.7732 5.60001 21 5.60001C20.2268 5.60001 19.6 6.22681 19.6 7.00001C19.6 7.7732 20.2268 8.40001 21 8.40001Z" fill="#010910"></path></g><defs><clipPath id="clip0_5_189"><rect width="28" height="28" fill="white"></rect></clipPath></defs></svg> 