<?xml version="1.0" encoding="UTF-8"?> <svg xmlns="http://www.w3.org/2000/svg" width="48" height="48" viewBox="0 0 48 48" fill="none"><path d="M3.92501 23.7487L13.585 27.0292L36.5215 13.0072C36.8545 12.8047 37.195 13.2562 36.9085 13.5202L19.5445 29.5027L18.8995 38.4502C18.889 38.6 18.9243 38.7496 19.0007 38.879C19.0771 39.0083 19.191 39.1114 19.3274 39.1746C19.4637 39.2377 19.616 39.2579 19.7641 39.2324C19.9122 39.207 20.049 39.1372 20.1565 39.0322L25.5025 33.7747L35.2765 41.1727C36.3295 41.9707 37.855 41.4082 38.1385 40.1182L44.944 9.21817C45.3325 7.45567 43.6045 5.96767 41.92 6.61267L3.87701 21.1807C2.68301 21.6382 2.71601 23.3377 3.92501 23.7487Z" fill="#010910"></path></svg> 